<?xml version="1.0" encoding="UTF-8"?>
<svg width="372px" height="236px" viewBox="0 0 372 236" version="1.1" xmlns="http://www.w3.org/2000/svg" xmlns:xlink="http://www.w3.org/1999/xlink">
    <!-- Generator: Sketch 46.2 (44496) - http://www.bohemiancoding.com/sketch -->
    <title>Group 2</title>
    <desc>Created with Sketch.</desc>
    <defs></defs>
    <g id="404" stroke="none" stroke-width="1" fill="none" fill-rule="evenodd">
        <g transform="translate(-523.000000, -202.000000)" id="Group-2">
            <g transform="translate(523.000000, 202.000000)">
                <g id="Group" transform="translate(16.100000, 75.588933)">
                    <path d="M0.666,106.390387 L0.666,89.6896126 L41.6988,32.1975652 L61.6248,32.1975652 L61.6248,92.9410909 L78.0084,92.9410909 L78.0084,106.390387 L61.6248,106.390387 L61.6248,127.968379 L47.6028,127.968379 L47.6028,106.390387 L0.666,106.390387 Z M47.6028,92.9410909 L47.6028,46.0902451 L13.95,92.9410909 L47.6028,92.9410909 Z" id="4" fill="#222222"></path>
                    <path d="M276.066,106.390387 L276.066,89.6896126 L317.0988,32.1975652 L337.0248,32.1975652 L337.0248,92.9410909 L353.4084,92.9410909 L353.4084,106.390387 L337.0248,106.390387 L337.0248,127.968379 L323.0028,127.968379 L323.0028,106.390387 L276.066,106.390387 Z M323.0028,92.9410909 L323.0028,46.0902451 L289.35,92.9410909 L323.0028,92.9410909 Z" id="4-copy" fill="#222222"></path>
                    <g id="saturn" transform="translate(103.500000, 0.000000)" fill-rule="nonzero">
                        <path d="M92.355887,23.458222 C109.769199,40.7738281 114.237383,67.2009851 103.479847,89.2510895 C92.7223113,111.301194 69.1114517,124.111462 44.6984139,121.143443 C54.3674765,128.818693 66.6661286,132.414946 78.9615078,131.162326 L78.9615078,133.6896 C104.733481,129.947305 124.796722,109.456867 127.928968,83.6794996 C131.061215,57.9021323 116.485999,33.2279096 92.355887,23.458222 Z" id="Shape" fill-opacity="0.4" fill="#999999"></path>
                        <path d="M134.765217,0 C127.676763,-4.32742102e-16 121.930435,5.7291096 121.930435,12.7963244 C121.930435,19.8635393 127.676763,25.5926489 134.765217,25.5926489 C141.853672,25.5926489 147.6,19.8635393 147.6,12.7963244 C147.6,9.4025282 146.247768,6.147733 143.840779,3.74795666 C141.433791,1.34818031 138.169213,2.07810086e-16 134.765217,0 Z M134.765217,19.1944867 C131.22099,19.1944867 128.347826,16.3299319 128.347826,12.7963244 C128.347826,9.26271703 131.22099,6.39816222 134.765217,6.39816222 C138.309445,6.39816222 141.182609,9.26271703 141.182609,12.7963244 C141.178718,16.328324 138.307832,19.1906079 134.765217,19.1944867 L134.765217,19.1944867 Z" id="Shape" fill="#222222"></path>
                        <ellipse id="Oval" fill="#222222" cx="3.20869565" cy="131.162326" rx="3.20869565" ry="3.19908111"></ellipse>
                        <path d="M131.556522,76.7779467 C131.608717,57.5933051 122.048822,39.6497232 106.07592,28.9517672 C90.1030183,18.2538112 69.8269633,16.2145694 52.0328504,23.5164453 C36.6895096,12.6606834 22.9190713,6.39816222 13.38732,6.39816222 C9.94973566,6.20761812 6.57283178,7.35917758 3.97236522,9.60876003 C-4.65966783,17.7261084 1.29117913,39.6686058 17.2294122,65.4947876 C16.453551,69.2063566 16.0562176,72.9866486 16.0434783,76.7779467 C16.0434783,108.580414 41.9019538,134.361407 73.8,134.361407 C75.116207,134.361407 76.3971183,134.224486 77.6889391,134.132992 C97.5539739,150.356812 115.936591,159.954056 127.795289,159.954056 C131.232901,160.144804 134.60988,158.993219 137.210243,156.743458 C145.611892,148.841727 140.137216,127.866632 125.182127,102.972023 C129.37328,94.8730059 131.558981,85.8913833 131.556522,76.7779467 Z M22.4608696,76.7779467 C22.4608696,75.7971084 22.5956348,74.8527397 22.6533913,73.887257 C30.1396166,84.8367666 38.3753979,95.2577214 47.3019496,105.075739 C54.5083877,113.055635 62.1486572,120.635205 70.1882922,127.780257 C43.3308024,125.878063 22.5041928,103.622405 22.4608696,76.7779467 L22.4608696,76.7779467 Z M132.807271,152.089435 C131.380855,153.188922 129.591436,153.712489 127.795289,153.555893 C119.164539,153.555893 104.122816,146.543508 86.4441861,132.925659 L86.5359548,132.910304 C84.3623843,131.235265 82.1432504,129.44186 79.8965217,127.567838 L79.7919183,127.574236 C69.9391276,119.297034 60.6757297,110.346586 52.0687878,100.78769 C41.7133377,89.4589817 32.3437202,77.2721463 24.061367,64.3591138 L24.0863948,64.2311506 C22.5057913,61.7313886 21.0137478,59.278973 19.6506939,56.9033354 L19.6121896,57.022981 C7.01228348,35.0971189 3.59373913,18.7632505 8.37533739,14.2627832 C9.80316904,13.1631604 11.5938244,12.6396337 13.3911704,12.7963244 C20.4586435,12.7963244 31.8450209,17.5399219 45.4351304,26.7193653 C35.9206267,32.060007 28.1125609,39.9713163 22.910087,49.5422497 C24.085753,51.7355397 25.3371443,53.9896123 26.7483287,56.3607712 C37.9145942,30.3924669 68.0813791,18.3659201 94.1277287,29.4987269 C120.174078,40.6315338 132.23677,70.7079269 121.070504,96.6762312 C109.21121,87.4143848 98.1906442,77.1320685 88.1358104,65.9477775 C87.3742665,65.0782049 86.201892,64.6851373 85.068084,64.9192463 C83.9342759,65.1533552 83.014916,65.9783245 82.662415,67.0779254 C82.3099141,68.1775262 82.5789537,69.3811832 83.3664052,70.2275082 C93.9479336,82.0081864 105.577746,92.8093098 118.11337,102.498559 C114.699917,108.305762 110.177647,113.389429 104.802417,117.461941 C91.9717761,107.675565 79.95918,96.8668385 68.8829948,85.1422642 C62.2390333,77.8065451 55.9983951,70.1174925 50.1884922,62.1088802 C49.1518057,60.6751189 47.1456189,60.3507081 45.7075487,61.3842883 C44.2694784,62.4178685 43.9440926,64.4180438 44.9807791,65.8518051 C50.9281592,74.0466019 57.3150618,81.9152148 64.1135896,89.4232745 C74.9433879,100.92301 86.6697627,111.549463 99.1827078,121.202946 C95.6770549,123.20369 91.9461047,124.783518 88.0677861,125.909434 C90.1611391,127.567838 92.2108539,129.136028 94.2053791,130.592889 C98.2112372,129.026019 102.0282,127.016164 105.584697,124.60101 C106.308051,124.465514 106.95938,124.077656 107.421997,123.506924 C107.465635,123.450621 107.472694,123.378961 107.51184,123.323297 C112.921533,119.461702 117.623818,114.700136 121.412551,109.24734 C134.007965,131.166804 137.58887,147.590887 132.807271,152.089435 Z" id="Shape" fill="#222222"></path>
                        <ellipse id="Oval" fill="#222222" cx="60.9652174" cy="9.59724334" rx="3.20869565" ry="3.19908111"></ellipse>
                    </g>
                </g>
                <g id="comet" fill-rule="nonzero">
                    <path d="M41.5888704,45.8564399 C41.5889578,42.5423814 43.9244515,39.6898889 47.167061,39.0434278 C50.4096705,38.3969667 53.656287,40.1365848 54.9214154,43.1984042 C56.1865438,46.2602237 55.1178293,49.7914881 52.3688532,51.6326235 C49.6198772,53.4737589 45.9562648,53.1119852 43.6185288,50.7685482 C42.314701,49.4685879 41.5838508,47.6998097 41.5888704,45.8564399 Z" id="Shape" fill-opacity="0.5" fill="#999999"></path>
                    <path d="M55.379016,52.733336 C58.6519445,49.4526181 59.1571712,44.3112366 56.5857201,40.4534494 C54.014269,36.5956622 49.0823235,35.0959143 44.806059,36.8713899 C40.5297945,38.6468656 38.1002075,43.2030712 39.0031337,47.7536185 C39.9060599,52.3041657 43.8900224,55.5816667 48.5185932,55.5817364 C51.0917384,55.5817751 53.5595083,54.557174 55.379016,52.733336 Z M41.5885932,45.8564399 C41.5886806,42.5423814 43.9241743,39.6898889 47.1667838,39.0434278 C50.4093933,38.3969667 53.6560098,40.1365848 54.9211382,43.1984042 C56.1862666,46.2602237 55.1175521,49.7914881 52.368576,51.6326235 C49.6196,53.4737589 45.9559876,53.1119852 43.6182516,50.7685482 C42.3145255,49.4685421 41.5837775,47.6997695 41.5888704,45.8564399 L41.5885932,45.8564399 Z" id="Shape" fill="#222222"></path>
                    <ellipse id="Oval" fill="#222222" transform="translate(48.518586, 45.856391) rotate(-45.002500) translate(-48.518586, -45.856391) " cx="48.5185857" cy="45.8563908" rx="1.386" ry="1.38932806"></ellipse>
                    <path d="M61.2592596,33.0851806 L43.6182516,15.401813 C43.0763024,14.8633001 42.2020444,14.8652191 41.6624531,15.4061061 C41.1228619,15.946993 41.1209475,16.8233503 41.6581704,17.3666008 L59.2991784,35.0499684 C65.253131,41.0182178 65.253131,50.6946619 59.2991782,56.6629113 C53.3452255,62.6311607 43.6919608,62.6311607 37.738008,56.6629115 L8.3365128,27.1908174 C7.79525132,26.6481795 6.91763104,26.6481173 6.37629302,27.1906785 C5.834955,27.7332396 5.83489294,28.6129672 6.3761544,29.1556051 L35.7779268,58.6276992 C42.8144026,65.681071 54.2227838,65.681071 61.2592596,58.6276992 C68.2957354,51.5743275 68.2957354,40.1385524 61.2592596,33.0851806 Z" id="Shape" fill="#222222"></path>
                    <path d="M20.00691,28.390919 C20.2669145,28.1303589 20.4129892,27.7769224 20.4129892,27.4083862 C20.4129892,27.03985 20.2669145,26.6864134 20.00691,26.4258534 L2.365902,8.74248577 C1.82464052,8.19984789 0.947020224,8.19978568 0.4056822,8.74234684 C-0.135655824,9.28490799 -0.135717878,10.1646356 0.4055436,10.7072735 L18.0465516,28.3906411 C18.3064508,28.6513067 18.65902,28.7977822 19.0266734,28.7978343 C19.3943268,28.7978865 19.7469373,28.6515109 20.00691,28.390919 L20.00691,28.390919 Z" id="Shape" fill="#222222"></path>
                    <path d="M38.4021792,35.7154565 C38.9434333,35.1728923 38.9434333,34.293233 38.4021792,33.7506688 L18.80109,14.1027913 C18.2591408,13.5642784 17.3848828,13.5661974 16.8452915,14.1070843 C16.3057003,14.6479712 16.3037859,15.5243285 16.8410088,16.0675791 L36.4418208,35.7154565 C36.7017567,35.9760853 37.0543466,36.1225108 37.422,36.1225108 C37.7896534,36.1225108 38.1422433,35.9760853 38.4021792,35.7154565 Z" id="Shape" fill="#222222"></path>
                    <path d="M35.8269912,23.9845261 C36.1766106,24.3380681 36.6882109,24.4770863 37.1680924,24.348946 C37.6479738,24.2208058 38.0227861,23.8450935 38.1506194,23.3640597 C38.2784527,22.883026 38.1397676,22.3701972 37.7870724,22.0197383 L16.2261792,0.406795257 C15.8760444,0.0557700943 15.3656854,-0.0813473176 14.8873495,0.0470938233 C14.4090137,0.175534964 14.0353715,0.550021393 13.9071703,1.0294877 C13.7789692,1.508954 13.915686,2.02055784 14.2658208,2.371583 L35.8269912,23.9845261 Z" id="Shape" fill="#222222"></path>
                    <path d="M36.4418208,10.7075514 C36.9830823,11.2501892 37.8607026,11.2502514 38.4020406,10.7076903 C38.9433786,10.1651291 38.9434407,9.28540152 38.4021792,8.74276364 L32.5216584,2.8484004 C31.9803204,2.30583926 31.1027001,2.30590147 30.5614386,2.84853935 C30.0201772,3.39117723 30.0202392,4.27090485 30.5615772,4.81346601 L36.4418208,10.7075514 Z" id="Shape" fill="#222222"></path>
                    <path d="M22.5818208,30.9720126 C22.0405667,31.5145769 22.0405667,32.3942362 22.5818208,32.9368004 L26.5019832,36.8663759 C27.0439324,37.4048888 27.9181904,37.4029698 28.4577817,36.8620829 C28.9973729,36.321196 28.9992873,35.4448387 28.4620644,34.9015881 L24.5421792,30.9720126 C24.2822433,30.7113839 23.9296534,30.5649584 23.562,30.5649584 C23.1943466,30.5649584 22.8417567,30.7113839 22.5818208,30.9720126 Z" id="Shape" fill="#222222"></path>
                </g>
                <g id="rocket" transform="translate(355.400000, 44.948617) rotate(40.000000) translate(-355.400000, -44.948617) translate(336.500000, 20.616601)" fill-rule="nonzero">
                    <path d="M18.9,2.82796421 C18.5592032,3.19411238 18.1601147,3.63578713 17.7337705,4.11970226 C21.3088547,8.51445363 25.8631579,15.3056166 25.8631579,21.4121739 C25.8631579,32.8429656 19.5083811,38.9312253 14.9210526,38.9312253 C14.6190776,38.9300174 14.3177163,38.9044962 14.02002,38.8549201 C15.3591648,40.0602955 17.083416,40.7750382 18.9,40.8777866 C23.4873284,40.8777866 29.8421053,34.7895269 29.8421053,23.3587352 C29.8421053,15.4154026 22.1285179,6.29634707 18.9,2.82796421 Z" id="Shape" fill-opacity="0.5" fill="#999999"></path>
                    <path d="M18.9,19.4656126 C16.1531101,19.4656126 13.9263158,21.6443756 13.9263158,24.3320158 C13.9263158,27.0196561 16.1531101,29.198419 18.9,29.198419 C21.6468899,29.198419 23.8736842,27.0196561 23.8736842,24.3320158 C23.8736842,21.6443756 21.6468899,19.4656126 18.9,19.4656126 Z M18.9,27.2518577 C17.251866,27.2518577 15.9157895,25.9446 15.9157895,24.3320158 C15.9157895,22.7194317 17.251866,21.4121739 18.9,21.4121739 C20.548134,21.4121739 21.8842105,22.7194317 21.8842105,24.3320158 C21.8823467,25.943844 20.5473613,27.2500341 18.9,27.2518577 Z" id="Shape" fill="#222222"></path>
                    <ellipse id="Oval" fill="#222222" cx="18.9" cy="12.6526482" rx="1" ry="1"></ellipse>
                    <path d="M31.6895305,21.3376206 C30.2961032,10.9385064 18.9,0 18.9,0 C18.9,0 7.50389684,10.9385064 6.11046947,21.3376206 C3.72031579,23.8161771 0,27.8928603 0,29.198419 C0,31.6316206 2.56980316,48.6640316 3.97894737,48.6640316 C5.16049579,47.5079689 5.30095263,39.1593623 10.0054611,37.3496443 C10.5785364,38.1497864 11.2250081,38.8971175 11.9368421,39.58235 L11.9368421,44.7709091 C11.9368421,45.8459652 12.8275598,46.7174704 13.9263158,46.7174704 L16.0984232,46.7174704 C16.5142385,47.8831943 17.6381005,48.6640856 18.9,48.6640856 C20.1618995,48.6640856 21.2857615,47.8831943 21.7015768,46.7174704 L23.8736842,46.7174704 C24.9724402,46.7174704 25.8631579,45.8459652 25.8631579,44.7709091 L25.8631579,39.58235 C26.5749919,38.8971175 27.2214636,38.1497864 27.7945389,37.3496443 C32.4990474,39.1593623 32.6395042,47.5079689 33.8210526,48.6640316 C35.2303958,48.6640316 37.8,31.6316206 37.8,29.198419 C37.8,27.8928603 34.0796842,23.8161771 31.6895305,21.3376206 Z M3.92960842,42.1808147 C3.05782902,37.9388976 2.4111138,33.6556602 1.99206,29.3483042 C3.12867747,27.526049 4.47454584,25.8369457 6.00343579,24.3139128 C6.03774891,28.2739799 7.04169806,32.1683133 8.93114526,35.6705405 C6.41948706,37.074883 4.61028311,39.4298419 3.92960842,42.1808147 Z M13.9263158,44.7709091 L13.9263158,41.1687975 C14.5516595,41.5804621 15.2182628,41.9286849 15.9157895,42.2080665 L15.9157895,44.7709091 L13.9263158,44.7709091 Z M18.9,46.7174704 C18.3508947,46.7168268 17.9059209,46.281451 17.9052632,45.7441897 L17.9052632,42.7499892 C18.5645487,42.8491539 19.2354513,42.8491539 19.8947368,42.7499892 L19.8947368,45.7441897 C19.8940791,46.281451 19.4491053,46.7168268 18.9,46.7174704 L18.9,46.7174704 Z M23.8736842,44.7709091 L21.8842105,44.7709091 L21.8842105,42.2078719 C22.5817372,41.9284903 23.2483405,41.5802674 23.8736842,41.1686028 L23.8736842,44.7709091 Z M18.9,40.8777866 C14.3126716,40.8777866 7.95789474,34.7895269 7.95789474,23.3587352 C7.95789474,15.4154026 15.6714821,6.29634707 18.9,2.82796421 C22.1285179,6.29634707 29.8421053,15.4154026 29.8421053,23.3587352 C29.8421053,34.7895269 23.4873284,40.8777866 18.9,40.8777866 Z M33.8703916,42.1808147 C33.1897169,39.4298419 31.3805129,37.074883 28.8688547,35.6705405 C30.7583019,32.1683133 31.7622511,28.2739799 31.7965642,24.3139128 C33.3254148,25.8369794 34.6712795,27.5260781 35.80794,29.3483042 C35.3888862,33.6556602 34.742171,37.9388976 33.8703916,42.1808147 L33.8703916,42.1808147 Z" id="Shape" fill="#222222"></path>
                </g>
            </g>
        </g>
    </g>
</svg>