<?xml version="1.0" encoding="UTF-8"?>
<svg width="14px" height="18px" viewBox="0 0 14 18" version="1.1" xmlns="http://www.w3.org/2000/svg" xmlns:xlink="http://www.w3.org/1999/xlink">
    <!-- Generator: sketchtool 42 (36781) - http://www.bohemiancoding.com/sketch -->
    <title>FDC80C83-A8FB-442B-B377-6D49CA7AFCD8</title>
    <desc>Created with sketchtool.</desc>
    <defs></defs>
    <g id="Landing__home" stroke="none" stroke-width="1" fill="none" fill-rule="evenodd">
        <g id="landing__home-drag&amp;drop" transform="translate(-1134.000000, -31.000000)" fill-rule="nonzero" fill="#FFFFFF">
            <g id="Top-bar">
                <g id="Group-9" transform="translate(1116.000000, 17.500000)">
                    <g id="business-48px-glyph_calculator" transform="translate(18.000000, 13.500000)">
                        <path d="M13.6111111,0 L0.388888889,0 C0.155555556,0 0,0.156521739 0,0.391304348 L0,17.6086957 C0,17.8434783 0.155555556,18 0.388888889,18 L13.6111111,18 C13.8444444,18 14,17.8434783 14,17.6086957 L14,0.391304348 C14,0.156521739 13.8444444,0 13.6111111,0 Z M3.88888889,16.0434783 C3.88888889,16.2782609 3.73333333,16.4347826 3.5,16.4347826 L2.72222222,16.4347826 C2.48888889,16.4347826 2.33333333,16.2782609 2.33333333,16.0434783 L2.33333333,15.2608696 C2.33333333,15.026087 2.48888889,14.8695652 2.72222222,14.8695652 L3.5,14.8695652 C3.73333333,14.8695652 3.88888889,15.026087 3.88888889,15.2608696 L3.88888889,16.0434783 Z M3.88888889,12.1304348 C3.88888889,12.3652174 3.73333333,12.5217391 3.5,12.5217391 L2.72222222,12.5217391 C2.48888889,12.5217391 2.33333333,12.3652174 2.33333333,12.1304348 L2.33333333,11.3478261 C2.33333333,11.1130435 2.48888889,10.9565217 2.72222222,10.9565217 L3.5,10.9565217 C3.73333333,10.9565217 3.88888889,11.1130435 3.88888889,11.3478261 L3.88888889,12.1304348 Z M3.88888889,8.2173913 C3.88888889,8.45217391 3.73333333,8.60869565 3.5,8.60869565 L2.72222222,8.60869565 C2.48888889,8.60869565 2.33333333,8.45217391 2.33333333,8.2173913 L2.33333333,7.43478261 C2.33333333,7.2 2.48888889,7.04347826 2.72222222,7.04347826 L3.5,7.04347826 C3.73333333,7.04347826 3.88888889,7.2 3.88888889,7.43478261 L3.88888889,8.2173913 Z M7.77777778,16.0434783 C7.77777778,16.2782609 7.62222222,16.4347826 7.38888889,16.4347826 L6.61111111,16.4347826 C6.37777778,16.4347826 6.22222222,16.2782609 6.22222222,16.0434783 L6.22222222,15.2608696 C6.22222222,15.026087 6.37777778,14.8695652 6.61111111,14.8695652 L7.38888889,14.8695652 C7.62222222,14.8695652 7.77777778,15.026087 7.77777778,15.2608696 L7.77777778,16.0434783 Z M7.77777778,12.1304348 C7.77777778,12.3652174 7.62222222,12.5217391 7.38888889,12.5217391 L6.61111111,12.5217391 C6.37777778,12.5217391 6.22222222,12.3652174 6.22222222,12.1304348 L6.22222222,11.3478261 C6.22222222,11.1130435 6.37777778,10.9565217 6.61111111,10.9565217 L7.38888889,10.9565217 C7.62222222,10.9565217 7.77777778,11.1130435 7.77777778,11.3478261 L7.77777778,12.1304348 Z M7.77777778,8.2173913 C7.77777778,8.45217391 7.62222222,8.60869565 7.38888889,8.60869565 L6.61111111,8.60869565 C6.37777778,8.60869565 6.22222222,8.45217391 6.22222222,8.2173913 L6.22222222,7.43478261 C6.22222222,7.2 6.37777778,7.04347826 6.61111111,7.04347826 L7.38888889,7.04347826 C7.62222222,7.04347826 7.77777778,7.2 7.77777778,7.43478261 L7.77777778,8.2173913 Z M11.6666667,16.0434783 C11.6666667,16.2782609 11.5111111,16.4347826 11.2777778,16.4347826 L10.5,16.4347826 C10.2666667,16.4347826 10.1111111,16.2782609 10.1111111,16.0434783 L10.1111111,11.3478261 C10.1111111,11.1130435 10.2666667,10.9565217 10.5,10.9565217 L11.2777778,10.9565217 C11.5111111,10.9565217 11.6666667,11.1130435 11.6666667,11.3478261 L11.6666667,16.0434783 Z M11.6666667,8.2173913 C11.6666667,8.45217391 11.5111111,8.60869565 11.2777778,8.60869565 L10.5,8.60869565 C10.2666667,8.60869565 10.1111111,8.45217391 10.1111111,8.2173913 L10.1111111,7.43478261 C10.1111111,7.2 10.2666667,7.04347826 10.5,7.04347826 L11.2777778,7.04347826 C11.5111111,7.04347826 11.6666667,7.2 11.6666667,7.43478261 L11.6666667,8.2173913 Z M11.6666667,4.30434783 C11.6666667,4.53913043 11.5111111,4.69565217 11.2777778,4.69565217 L2.72222222,4.69565217 C2.48888889,4.69565217 2.33333333,4.53913043 2.33333333,4.30434783 L2.33333333,2.73913043 C2.33333333,2.50434783 2.48888889,2.34782609 2.72222222,2.34782609 L11.2777778,2.34782609 C11.5111111,2.34782609 11.6666667,2.50434783 11.6666667,2.73913043 L11.6666667,4.30434783 Z" id="Shape"></path>
                    </g>
                </g>
            </g>
        </g>
    </g>
</svg>