<?xml version="1.0" encoding="UTF-8"?>
<svg width="34px" height="34px" viewBox="0 0 34 34" version="1.1" xmlns="http://www.w3.org/2000/svg" xmlns:xlink="http://www.w3.org/1999/xlink">
    <!-- Generator: Sketch 46.2 (44496) - http://www.bohemiancoding.com/sketch -->
    <title>social-48px-glyph-3_square-facebook copy</title>
    <desc>Created with Sketch.</desc>
    <defs></defs>
    <g id="Page-1" stroke="none" stroke-width="1" fill="none" fill-rule="evenodd">
        <g id="landing-expert" transform="translate(-1028.000000, -4574.000000)" fill-rule="nonzero" fill="#868E96">
            <g id="Group-37-Copy" transform="translate(0.000000, 4466.000000)">
                <g id="Group-35" transform="translate(1026.000000, 56.000000)">
                    <g id="social-48px-glyph-3_square-facebook-copy" transform="translate(2.000000, 52.000000)">
                        <path d="M29.75,0 L4.25,0 C1.9125,0 0,1.9125 0,4.25 L0,29.75 C0,32.0875 1.9125,34 4.25,34 L29.75,34 C32.0875,34 34,32.0875 34,29.75 L34,4.25 C34,1.9125 32.0875,0 29.75,0 Z M21.3916667,11.3333333 L19.8333333,11.3333333 C18.5583333,11.3333333 18.3458333,11.9 18.3458333,12.8208333 L18.3458333,14.7333333 L21.3208333,14.7333333 L20.8958333,17.7791667 L18.275,17.7791667 L18.275,25.5 L15.1583333,25.5 L15.1583333,17.7791667 L12.5375,17.7791667 L12.5375,14.7333333 L15.1583333,14.7333333 L15.1583333,12.5375 C15.1583333,9.91666667 16.7166667,8.57083333 19.0541667,8.57083333 C20.1875,8.57083333 21.1083333,8.64166667 21.3916667,8.7125 L21.3916667,11.3333333 Z" id="Shape"></path>
                    </g>
                </g>
            </g>
        </g>
    </g>
</svg>