<?xml version="1.0" encoding="UTF-8"?>
<svg width="35px" height="34px" viewBox="0 0 35 34" version="1.1" xmlns="http://www.w3.org/2000/svg" xmlns:xlink="http://www.w3.org/1999/xlink">
    <!-- Generator: Sketch 46.2 (44496) - http://www.bohemiancoding.com/sketch -->
    <title>social-48px-glyph-3_square-instagram</title>
    <desc>Created with Sketch.</desc>
    <defs></defs>
    <g id="Page-1" stroke="none" stroke-width="1" fill="none" fill-rule="evenodd">
        <g id="landing-expert" transform="translate(-1120.000000, -4574.000000)" fill-rule="nonzero" fill="#868E96">
            <g id="Group-37-Copy" transform="translate(0.000000, 4466.000000)">
                <g id="Group-35" transform="translate(1026.000000, 56.000000)">
                    <g id="social-48px-glyph-3_square-instagram" transform="translate(94.800000, 52.000000)">
                        <g id="Group">
                            <path d="M22.990375,11.009625 C22.29975,10.319 21.4022917,10.1249167 20.4347083,10.081 C19.5386667,10.0399167 19.2695,10.0314167 17,10.0314167 C14.7305,10.0314167 14.4613333,10.0399167 13.5652917,10.081 C12.5977083,10.1249167 11.70025,10.319 11.009625,11.009625 C10.319,11.70025 10.1249167,12.5977083 10.081,13.5652917 C10.0399167,14.4613333 10.0314167,14.7305 10.0314167,17 C10.0314167,19.2695 10.0399167,19.5386667 10.081,20.4347083 C10.1249167,21.4022917 10.319,22.29975 11.009625,22.990375 C11.70025,23.681 12.5977083,23.8750833 13.5652917,23.919 C14.4613333,23.9600833 14.7305,23.9685833 17,23.9685833 C19.2695,23.9685833 19.5386667,23.9600833 20.4347083,23.919 C21.4022917,23.8750833 22.29975,23.681 22.990375,22.990375 C23.681,22.29975 23.8750833,21.4022917 23.919,20.4347083 C23.9600833,19.5386667 23.9685833,19.2695 23.9685833,17 C23.9685833,14.7305 23.9600833,14.4613333 23.919,13.5652917 C23.8750833,12.5977083 23.681,11.70025 22.990375,11.009625 Z M17,21.36475 C14.5895417,21.36475 12.63525,19.4104583 12.63525,17 C12.63525,14.5895417 14.5895417,12.63525 17,12.63525 C19.4104583,12.63525 21.36475,14.5895417 21.36475,17 C21.36475,19.4104583 19.4104583,21.36475 17,21.36475 Z M21.5375833,13.4824167 C20.9744583,13.4824167 20.5175833,13.0255417 20.5175833,12.4624167 C20.5175833,11.8992917 20.9744583,11.4424167 21.5375833,11.4424167 C22.1007083,11.4424167 22.5575833,11.8992917 22.5575833,12.4624167 C22.5575833,13.0255417 22.1007083,13.4824167 21.5375833,13.4824167 Z" id="Shape"></path>
                            <circle id="Oval" cx="17" cy="17" r="2.83333333"></circle>
                            <path d="M29.75,0 L4.25,0 C1.90258333,0 0,1.90258333 0,4.25 L0,29.75 C0,32.0974167 1.90258333,34 4.25,34 L29.75,34 C32.0974167,34 34,32.0974167 34,29.75 L34,4.25 C34,1.90258333 32.0974167,0 29.75,0 Z M25.449,20.5048333 C25.3859583,21.8867917 25.047375,23.1001667 24.0734167,24.0734167 C23.0994583,25.047375 21.885375,25.3859583 20.5048333,25.449 C19.5981667,25.4900833 19.3084583,25.5 17,25.5 C14.6915417,25.5 14.4018333,25.4900833 13.4951667,25.449 C12.1132083,25.3859583 10.8998333,25.047375 9.92658333,24.0734167 C8.952625,23.0994583 8.61404167,21.885375 8.551,20.5048333 C8.50991667,19.5981667 8.5,19.3084583 8.5,17 C8.5,14.6915417 8.50991667,14.4018333 8.551,13.4951667 C8.61404167,12.1132083 8.952625,10.8998333 9.92658333,9.92658333 C10.9005417,8.952625 12.1139167,8.61404167 13.4951667,8.551 C14.4018333,8.50991667 14.6915417,8.5 17,8.5 C19.3084583,8.5 19.5981667,8.50991667 20.5048333,8.551 C21.8867917,8.61404167 23.1001667,8.952625 24.0734167,9.92658333 C25.047375,10.9005417 25.3859583,12.1139167 25.449,13.4951667 C25.4900833,14.4018333 25.5,14.6915417 25.5,17 C25.5,19.3084583 25.4900833,19.5981667 25.449,20.5048333 Z" id="Shape"></path>
                        </g>
                    </g>
                </g>
            </g>
        </g>
    </g>
</svg>