<?xml version="1.0" encoding="UTF-8"?>
<svg width="35px" height="34px" viewBox="0 0 35 34" version="1.1" xmlns="http://www.w3.org/2000/svg" xmlns:xlink="http://www.w3.org/1999/xlink">
    <!-- Generator: Sketch 46.2 (44496) - http://www.bohemiancoding.com/sketch -->
    <title>social-48px-glyph-3_square-linkedin copy</title>
    <desc>Created with Sketch.</desc>
    <defs></defs>
    <g id="Page-1" stroke="none" stroke-width="1" fill="none" fill-rule="evenodd">
        <g id="landing-expert" transform="translate(-1167.000000, -4574.000000)" fill-rule="nonzero" fill="#868E96">
            <g id="Group-37-Copy" transform="translate(0.000000, 4466.000000)">
                <g id="Group-35" transform="translate(1026.000000, 56.000000)">
                    <g id="social-48px-glyph-3_square-linkedin-copy" transform="translate(141.200000, 52.000000)">
                        <path d="M29.75,0 L4.25,0 C1.9125,0 0,1.9125 0,4.25 L0,29.75 C0,32.0875 1.9125,34 4.25,34 L29.75,34 C32.0875,34 34,32.0875 34,29.75 L34,4.25 C34,1.9125 32.0875,0 29.75,0 Z M12.325,25.5 L8.78333333,25.5 L8.78333333,14.1666667 L12.325,14.1666667 L12.325,25.5 Z M10.5541667,12.6083333 C9.42083333,12.6083333 8.5,11.6875 8.5,10.5541667 C8.5,9.42083333 9.42083333,8.5 10.5541667,8.5 C11.6875,8.5 12.6083333,9.42083333 12.6083333,10.5541667 C12.6083333,11.6875 11.6875,12.6083333 10.5541667,12.6083333 Z M25.5,25.5 L21.9583333,25.5 L21.9583333,19.975 C21.9583333,18.6291667 21.9583333,17 20.1166667,17 C18.275,17 17.9916667,18.4166667 17.9916667,19.9041667 L17.9916667,25.5 L14.45,25.5 L14.45,14.1666667 L17.85,14.1666667 L17.85,15.725 L17.9208333,15.725 C18.4166667,14.8041667 19.55,13.8833333 21.25,13.8833333 C24.7916667,13.8833333 25.5,16.2208333 25.5,19.2666667 L25.5,25.5 Z" id="Shape"></path>
                    </g>
                </g>
            </g>
        </g>
    </g>
</svg>