<?xml version="1.0" encoding="UTF-8"?>
<svg width="309px" height="158px" viewBox="0 0 309 158" version="1.1" xmlns="http://www.w3.org/2000/svg" xmlns:xlink="http://www.w3.org/1999/xlink">
    <!-- Generator: Sketch 45.2 (43514) - http://www.bohemiancoding.com/sketch -->
    <title>logo</title>
    <desc>Created with Sketch.</desc>
    <defs></defs>
    <g id="Piste-1-Copy" stroke="none" stroke-width="1" fill="none" fill-rule="evenodd">
        <g id="Artboard" transform="translate(-364.000000, -565.000000)" fill="#2C2B31">
            <g id="logo" transform="translate(364.000000, 565.000000)">
                <path d="M77.33435,21.87 L77.33435,27.0724 L68.14285,27.0724 L68.14285,39.4405 L77.33435,39.4405 L77.33435,77.82072 L91.51273,77.82072 L91.51273,39.4405 L103.2465,39.4405 L103.2465,27.0724 L91.51273,27.0724 L91.51273,21.4774 C91.51273,16.6676 95.03287,13.4283 100.0197,13.4283 C101.4865,13.4283 102.2819,13.5372 103.3443,13.7957 L103.3443,1.2566 C101.8776,1.0602 100.5087,0.9621 98.35745,0.9621 C85.64581,0.9621 77.33435,9.1093 77.33435,21.87 Z M134.4907,26.5816 C126.766,26.5816 122.7569,29.5264 120.6057,32.8638 L120.6057,27.0724 L106.8185,27.0724 L106.8185,77.82072 L121.0946,77.82072 L121.0946,52.103 C121.0946,45.1337 126.2771,40.4221 134.4907,40.4221 L134.4907,26.5816 Z M185.6824,57.011 L185.6824,51.3177 C185.6824,35.5141 176.0998,26.0908 161.5303,26.0908 C146.4719,26.0908 135.8137,36.1031 135.8137,52.4957 C135.8137,68.79008 146.4719,78.90047 161.9214,78.90047 C173.753,78.90047 183.6517,71.34222 185.4118,61.72262 L170.8196,61.72262 C169.744,65.25635 166.5172,67.31769 161.5303,67.31769 C155.0767,67.31769 151.2632,63.29316 150.9699,57.011 L185.6824,57.011 Z M161.4325,37.281 C167.8861,37.281 171.0151,41.3055 171.3085,47.4895 L150.9699,47.4895 C151.361,41.011 155.37,37.281 161.4325,37.281 L161.4325,37.281 Z M242.0565,77.82072 L242.0565,1.551 L227.8782,1.551 L227.8782,31.4896 C225.2381,28.4467 220.1534,26.0908 213.602,26.0908 C199.3259,26.0908 189.2543,36.4957 189.2543,52.4957 C189.2543,68.39744 199.3259,78.90047 213.602,78.90047 C220.7401,78.90047 226.0203,76.05386 228.6604,72.61829 L228.6604,77.82072 L242.0565,77.82072 Z M215.9488,38.3607 C222.9891,38.3607 227.8782,43.1705 227.8782,51.3177 L227.8782,53.5754 C227.8782,61.82078 222.9891,66.53242 215.9488,66.53242 C208.8107,66.53242 203.7261,61.5263 203.7261,52.4957 C203.7261,43.465 208.8107,38.3607 215.9488,38.3607 L215.9488,38.3607 Z" id="Fill-1"></path>
                <path d="M29.49132,142.88622 L29.49132,99.28436 L24.66395,99.28436 L24.66395,118.58814 C23.09225,115.83847 19.55593,113.7622 14.7847,113.7622 C6.926196,113.7622 0.9761887,119.37376 0.9761887,128.63284 C0.9761887,137.8358 6.926196,143.44738 14.7847,143.44738 C19.66819,143.44738 23.31678,141.20275 24.94461,138.22861 L24.94461,142.88622 L29.49132,142.88622 Z M15.45828,117.97087 C20.7347,117.97087 24.66395,121.28169 24.66395,127.73499 L24.66395,129.41846 C24.66395,135.92788 20.7347,139.2387 15.45828,139.2387 C10.01346,139.2387 5.859685,135.47895 5.859685,128.57673 C5.859685,121.73062 10.01346,117.97087 15.45828,117.97087 L15.45828,117.97087 Z M61.59315,130.42855 L61.59315,127.7911 C61.59315,119.31765 56.65352,113.7622 48.45823,113.7622 C40.31907,113.7622 34.36906,119.26153 34.36906,128.57673 C34.36906,137.89193 40.37519,143.44738 48.57049,143.44738 C55.19408,143.44738 60.13371,139.57538 61.31248,134.41275 L56.48512,134.13218 C55.53088,137.33077 52.66814,139.2387 48.45823,139.2387 C43.40633,139.2387 39.75774,135.92788 39.47708,130.42855 L61.59315,130.42855 Z M48.40209,117.97087 C53.84691,117.97087 56.65352,121.50615 56.76578,126.50045 L39.47708,126.50045 C39.81387,120.945 43.46246,117.97087 48.40209,117.97087 L48.40209,117.97087 Z M81.56467,142.88622 L81.56467,99.28436 L76.73731,99.28436 L76.73731,142.88622 L81.56467,142.88622 Z M98.28629,113.7622 C91.32591,113.7622 87.22826,118.8126 87.22826,123.75078 L92.11176,123.97524 C92.11176,120.945 94.07639,118.02698 98.34243,118.02698 C102.4401,118.02698 104.3486,120.66442 104.3486,124.98532 L104.3486,126.3321 L96.93913,126.78102 C90.93298,127.11772 86.44241,129.36234 86.44241,135.3106 C86.44241,140.52936 90.2594,143.44738 95.81648,143.44738 C99.35281,143.44738 102.2717,141.98836 104.3486,139.51928 L104.3486,142.88622 L109.2321,142.88622 L109.2321,124.8731 C109.2321,117.80252 105.3589,113.7622 98.28629,113.7622 L98.28629,113.7622 Z M104.4047,130.20407 L104.4047,131.38251 C104.4047,137.1063 100.8684,139.29482 96.5462,139.29482 C93.51507,139.29482 91.32591,138.22861 91.32591,135.19837 C91.32591,132.0559 93.85186,130.87746 97.55658,130.653 L104.4047,130.20407 Z M138.2409,113.7622 C130.1578,113.7622 124.1517,119.1493 124.1517,128.57673 C124.1517,138.00415 130.214,143.44738 138.2409,143.44738 C145.1451,143.44738 150.0848,139.51928 151.1513,133.17821 L146.4362,132.72928 C145.7626,136.76961 142.7314,139.2387 138.2409,139.2387 C133.0206,139.2387 129.0913,135.42284 129.0913,128.57673 C129.0913,121.78673 132.9083,117.91475 138.2409,117.91475 C142.563,117.91475 145.8748,120.55219 146.38,124.8731 L151.0951,124.48028 C150.2532,117.80252 144.9767,113.7622 138.2409,113.7622 L138.2409,113.7622 Z M168.2658,113.7622 C159.9582,113.7622 153.5592,119.48599 153.5592,128.57673 C153.5592,137.66745 159.9582,143.44738 168.2658,143.44738 C176.5734,143.44738 182.9724,137.66745 182.9724,128.57673 C182.9724,119.48599 176.5734,113.7622 168.2658,113.7622 L168.2658,113.7622 Z M168.2658,117.97087 C173.8229,117.97087 178.0889,121.89896 178.0889,128.57673 C178.0889,135.25449 173.8229,139.2387 168.2658,139.2387 C162.7087,139.2387 158.4427,135.25449 158.4427,128.57673 C158.4427,121.89896 162.7087,117.97087 168.2658,117.97087 L168.2658,117.97087 Z M220.1262,113.7622 C215.5233,113.7622 212.2115,116.11905 210.5275,119.42987 C208.7875,115.83847 205.3634,113.7622 201.1535,113.7622 C196.6629,113.7622 193.8002,115.9507 192.453,118.58814 L192.453,114.26724 L187.8502,114.26724 L187.8502,142.88622 L192.6775,142.88622 L192.6775,126.16375 C192.6775,121.84285 195.5964,118.25145 200.1431,118.25145 C204.1846,118.25145 206.9351,121.33781 206.9351,126.10764 L206.9351,142.88622 L211.8186,142.88622 L211.8186,125.49037 L211.8186,125.15367 C212.2115,121.28169 214.8497,118.25145 219.0035,118.25145 C223.3257,118.25145 225.9639,121.33781 225.9639,126.10764 L225.9639,142.88622 L230.7913,142.88622 L230.7913,125.43425 C230.7913,118.47591 226.4691,113.7622 220.1262,113.7622 L220.1262,113.7622 Z M252.0596,113.7622 C247.12,113.7622 243.5275,116.00682 241.8997,118.98095 L241.8997,114.26724 L237.2968,114.26724 L237.2968,157.195698 L242.1242,157.195698 L242.1242,138.62142 C243.752,141.3711 247.2322,143.44738 252.0596,143.44738 C259.9181,143.44738 265.8681,137.8358 265.8681,128.57673 C265.8681,119.37376 259.9181,113.7622 252.0596,113.7622 L252.0596,113.7622 Z M251.3299,117.97087 C256.7747,117.97087 260.9285,121.73062 260.9285,128.63284 C260.9285,135.47895 256.7747,139.2387 251.3299,139.2387 C246.1096,139.2387 242.1803,135.92788 242.1803,129.47457 L242.1803,127.7911 C242.1803,121.28169 246.1096,117.97087 251.3299,117.97087 L251.3299,117.97087 Z M281.6916,138.902 C278.885,138.902 276.6397,137.49912 276.6397,133.34655 L276.752,118.47591 L284.4421,118.47591 L284.4421,114.26724 L276.752,114.26724 L276.8081,104.39088 L271.9246,104.39088 L271.8685,114.26724 L266.5359,114.26724 L266.5359,118.47591 L271.8685,118.47591 L271.8123,134.30053 C271.7562,140.58547 275.4048,143.27903 280.6251,143.27903 C282.4213,143.27903 283.544,143.11068 284.4982,142.94233 L284.4982,138.62142 C283.8246,138.73366 282.8704,138.902 281.6916,138.902 L281.6916,138.902 Z M297.6274,113.7622 C290.667,113.7622 286.5693,118.8126 286.5693,123.75078 L291.4528,123.97524 C291.4528,120.945 293.4175,118.02698 297.6835,118.02698 C301.7812,118.02698 303.6896,120.66442 303.6896,124.98532 L303.6896,126.3321 L296.2802,126.78102 C290.2741,127.11772 285.7835,129.36234 285.7835,135.3106 C285.7835,140.52936 289.6005,143.44738 295.1576,143.44738 C298.6939,143.44738 301.6128,141.98836 303.6896,139.51928 L303.6896,142.88622 L308.5731,142.88622 L308.5731,124.8731 C308.5731,117.80252 304.7,113.7622 297.6274,113.7622 L297.6274,113.7622 Z M303.7458,130.20407 L303.7458,131.38251 C303.7458,137.1063 300.2094,139.29482 295.8873,139.29482 C292.8561,139.29482 290.667,138.22861 290.667,135.19837 C290.667,132.0559 293.1929,130.87746 296.8976,130.653 L303.7458,130.20407 Z" id="Fill-3"></path>
            </g>
        </g>
    </g>
</svg>