<?xml version="1.0" encoding="UTF-8"?>
<svg width="35px" height="34px" viewBox="0 0 35 34" version="1.1" xmlns="http://www.w3.org/2000/svg" xmlns:xlink="http://www.w3.org/1999/xlink">
    <!-- Generator: Sketch 46.2 (44496) - http://www.bohemiancoding.com/sketch -->
    <title>Group 28</title>
    <desc>Created with Sketch.</desc>
    <defs></defs>
    <g id="Page-1" stroke="none" stroke-width="1" fill="none" fill-rule="evenodd">
        <g id="landing-expert" transform="translate(-1213.000000, -4574.000000)">
            <g id="Group-37-Copy" transform="translate(0.000000, 4466.000000)">
                <g id="Group-35" transform="translate(1026.000000, 56.000000)">
                    <g id="Group-28" transform="translate(187.600000, 52.000000)">
                        <rect id="Rectangle-17" fill="#868E96" x="0" y="0" width="34" height="34" rx="4.49999988"></rect>
                        <g id="medium-m-light-500px.png" transform="translate(8.052632, 9.842105)" fill-rule="nonzero" fill="#FFFFFF">
                            <g id="Calque_1">
                                <path d="M6.25689474,9.43308271 L6.25689474,15.4336923 C6.25689474,15.5456208 6.26942105,15.6637675 6.24436842,15.775696 C6.188,16.0057712 6.04394737,16.1114814 5.80594737,16.0182077 C5.71826316,15.9871164 5.63684211,15.9435887 5.54915789,15.900061 C3.88942105,15.0792522 2.23594737,14.2460069 0.569947368,13.4314164 C0.175368421,13.2386507 0,12.9774843 0,12.5297704 C0.0125263158,8.5314367 0.00626315789,4.53310303 0.00626315789,0.528551107 C0.00626315789,0.0248729933 0.100210526,-0.0310912416 0.551157895,0.192765698 C2.34868421,1.08819346 4.14621053,1.98362122 5.95,2.86661248 C6.19426316,2.9847592 6.26942105,3.13399716 6.26942105,3.39516358 C6.25689474,5.40987604 6.25689474,7.4245885 6.25689474,9.43308271 Z" id="Shape"></path>
                                <path d="M12.8457368,12.5857346 C12.7705789,12.4738061 12.7142105,12.3929689 12.6578421,12.3059134 C11.4052105,10.2849827 10.1588421,8.26405202 8.90621053,6.24933957 C8.79347368,6.06279212 8.79347368,5.93842715 8.90621053,5.7518797 C10.0398421,3.92993294 11.1734737,2.10798618 12.2945789,0.273602926 C12.4574211,0.00621824832 12.6077368,-0.0497459866 12.8958421,0.0932737249 C14.7434737,1.02601097 16.5973684,1.94631173 18.4512632,2.86661248 C18.6328947,2.95366795 18.7832105,3.01585044 18.6266316,3.27079862 C16.7226316,6.33639504 14.8248947,9.40199147 12.9271579,12.4738061 C12.9146316,12.5048974 12.8958421,12.5297704 12.8457368,12.5857346 Z" id="Shape"></path>
                                <path d="M18.7832105,4.21597236 L18.7832105,4.51444828 L18.7832105,15.4585653 C18.7832105,15.5642756 18.7894737,15.6699858 18.7706842,15.7694777 C18.7205789,15.9995529 18.5827895,16.1114814 18.3385263,16.0244259 C18.2821579,16.0057712 18.2257895,15.9746799 18.1694211,15.9498069 L13.2465789,13.5060354 C13.1839474,13.4749441 13.1275789,13.4314164 13.0461579,13.3878886 C14.9438947,10.316074 16.8353684,7.26291404 18.7268421,4.20975412 C18.7393684,4.20353587 18.7644211,4.20975412 18.7832105,4.21597236 Z" id="Shape"></path>
                                <path d="M6.85189474,3.99833367 C8.73710526,7.04527535 10.591,10.0362528 12.4762105,13.0831945 C12.3509474,13.0396667 12.2820526,13.021012 12.2131579,12.9899207 C10.4907895,12.1318025 8.76842105,11.2736842 7.03978947,10.4217842 C6.902,10.3533835 6.81431579,10.2849827 6.81431579,10.1046535 C6.82057895,8.12725056 6.82057895,6.14362934 6.82057895,4.16622638 C6.82684211,4.13513514 6.83310526,4.10404389 6.85189474,3.99833367 Z" id="Shape"></path>
                            </g>
                        </g>
                    </g>
                </g>
            </g>
        </g>
    </g>
</svg>