<?xml version="1.0" encoding="UTF-8"?>
<svg width="34px" height="34px" viewBox="0 0 34 34" version="1.1" xmlns="http://www.w3.org/2000/svg" xmlns:xlink="http://www.w3.org/1999/xlink">
    <!-- Generator: Sketch 46.2 (44496) - http://www.bohemiancoding.com/sketch -->
    <title>social-48px-glyph-3_square-pinterest</title>
    <desc>Created with Sketch.</desc>
    <defs></defs>
    <g id="Page-1" stroke="none" stroke-width="1" fill="none" fill-rule="evenodd">
        <g id="landing-expert" transform="translate(-1260.000000, -4574.000000)" fill-rule="nonzero" fill="#868E96">
            <g id="Group-37-Copy" transform="translate(0.000000, 4466.000000)">
                <g id="Group-35" transform="translate(1026.000000, 56.000000)">
                    <g id="social-48px-glyph-3_square-pinterest" transform="translate(234.000000, 52.000000)">
                        <path d="M29.75,0 L4.25,0 C1.9125,0 0,1.9125 0,4.25 L0,29.75 C0,32.0875 1.9125,34 4.25,34 L29.75,34 C32.0875,34 34,32.0875 34,29.75 L34,4.25 C34,1.9125 32.0875,0 29.75,0 Z M18.3458333,20.7541667 C17.2833333,20.7541667 16.2916667,20.1875 15.9375,19.55 C15.9375,19.55 15.3708333,21.8166667 15.2291667,22.2416667 C14.8041667,23.8 13.5291667,25.2875 13.4583333,25.4291667 C13.3875,25.5 13.2458333,25.5 13.2458333,25.3583333 C13.2458333,25.1458333 12.8916667,23.2333333 13.2458333,21.675 C13.4583333,20.8958333 14.5208333,16.3625 14.5208333,16.3625 C14.5208333,16.3625 14.2375,15.725 14.2375,14.8041667 C14.2375,13.3875 15.0875,12.2541667 16.15,12.2541667 C17.0708333,12.2541667 17.4958333,12.8916667 17.4958333,13.7416667 C17.4958333,14.6625 16.9291667,15.9375 16.6458333,17.2125 C16.2916667,18.275 17.0708333,19.125 18.0625,19.125 C19.9041667,19.125 21.1791667,16.7166667 21.1791667,13.9541667 C21.1791667,11.8291667 19.7625,10.2 17.1416667,10.2 C14.1666667,10.2 12.325,12.3958333 12.325,14.875 C12.325,15.725 12.6083333,16.2916667 12.9625,16.7875 C13.175,17 13.175,17.0708333 13.1041667,17.3541667 C13.0333333,17.5666667 12.9625,17.9916667 12.8916667,18.1333333 C12.8208333,18.3458333 12.6083333,18.4875 12.3958333,18.3458333 C11.05,17.7791667 10.4125,16.2916667 10.4125,14.5916667 C10.4125,11.8291667 12.75,8.5 17.425,8.5 C21.1791667,8.5 23.5875,11.1916667 23.5875,14.0958333 C23.5875,17.9208333 21.4625,20.7541667 18.3458333,20.7541667 Z" id="Shape"></path>
                    </g>
                </g>
            </g>
        </g>
    </g>
</svg>