<?xml version="1.0" encoding="UTF-8"?>
<svg width="35px" height="34px" viewBox="0 0 35 34" version="1.1" xmlns="http://www.w3.org/2000/svg" xmlns:xlink="http://www.w3.org/1999/xlink">
    <!-- Generator: Sketch 46.2 (44496) - http://www.bohemiancoding.com/sketch -->
    <title>social-48px-glyph-3_square-twitter</title>
    <desc>Created with Sketch.</desc>
    <defs></defs>
    <g id="Page-1" stroke="none" stroke-width="1" fill="none" fill-rule="evenodd">
        <g id="landing-expert" transform="translate(-1074.000000, -4574.000000)" fill-rule="nonzero" fill="#868E96">
            <g id="Group-37-Copy" transform="translate(0.000000, 4466.000000)">
                <g id="Group-35" transform="translate(1026.000000, 56.000000)">
                    <g id="social-48px-glyph-3_square-twitter" transform="translate(48.400000, 52.000000)">
                        <path d="M29.75,0 L4.25,0 C1.9125,0 0,1.9125 0,4.25 L0,29.75 C0,32.0875 1.9125,34 4.25,34 L29.75,34 C32.0875,34 34,32.0875 34,29.75 L34,4.25 C34,1.9125 32.0875,0 29.75,0 Z M23.7291667,13.5291667 L23.7291667,13.9541667 C23.7291667,18.5583333 20.1875,23.8708333 13.8125,23.8708333 C11.8291667,23.8708333 9.9875,23.3041667 8.5,22.3125 C8.78333333,22.3125 9.06666667,22.3833333 9.35,22.3833333 C10.9791667,22.3833333 12.4666667,21.8166667 13.6708333,20.8958333 C12.1125,20.8958333 10.8375,19.8333333 10.4125,18.4875 C10.625,18.5583333 10.8375,18.5583333 11.05,18.5583333 C11.3333333,18.5583333 11.6875,18.4875 11.9708333,18.4166667 C10.3416667,18.0625 9.20833333,16.7166667 9.20833333,15.0166667 C9.20833333,15.0166667 9.20833333,15.0166667 9.20833333,14.9458333 C9.70416667,15.2291667 10.2,15.3708333 10.7666667,15.3708333 C9.84583333,14.7333333 9.20833333,13.6708333 9.20833333,12.4666667 C9.20833333,11.8291667 9.35,11.2625 9.70416667,10.6958333 C11.4041667,12.8208333 14.025,14.1666667 16.8583333,14.3083333 C16.7875,14.025 16.7875,13.8125 16.7875,13.5291667 C16.7875,11.6166667 18.3458333,10.0583333 20.2583333,10.0583333 C21.25,10.0583333 22.1708333,10.4833333 22.8083333,11.1916667 C23.5875,11.05 24.3666667,10.7666667 25.0041667,10.3416667 C24.7208333,11.1208333 24.225,11.8291667 23.4458333,12.2541667 C24.1541667,12.1833333 24.7916667,11.9708333 25.4291667,11.6875 C25.0041667,12.3958333 24.4375,13.0333333 23.7291667,13.5291667 Z" id="Shape"></path>
                    </g>
                </g>
            </g>
        </g>
    </g>
</svg>