<?xml version="1.0" standalone="no"?>
<!DOCTYPE svg PUBLIC "-//W3C//DTD SVG 1.1//EN" "http://www.w3.org/Graphics/SVG/1.1/DTD/svg11.dtd" >
<svg>
<metadata>
Created by FontForge 20090914 at Mon Sep 18 12:08:48 2017
 By www-data
Copyright (C) 1996-2005, Hoefler &#38; Frere-Jones, Inc. www.typography.com
</metadata>
<defs>
<font id="Mercury-TextG1Bold" horiz-adv-x="519" >
  <font-face 
    font-family="Mercury Text G1"
    font-weight="700"
    font-stretch="normal"
    units-per-em="1000"
    panose-1="0 0 0 0 0 0 0 0 0 0"
    ascent="800"
    descent="-200"
    x-height="454"
    cap-height="637"
    bbox="-136 -270.001 1037 940.509"
    underline-thickness="59"
    underline-position="-66"
    unicode-range="U+0020-U+FB02"
  />
<missing-glyph horiz-adv-x="500" 
 />
    <glyph glyph-name=".notdef" horiz-adv-x="500" 
 />
    <glyph glyph-name="space" unicode=" " horiz-adv-x="210" 
 />
    <glyph glyph-name="exclam" unicode="!" horiz-adv-x="298" 
d="M243 553c0 -8 -0.666992 -17.665 -2 -28.998s-3.5 -25.333 -6.5 -42s-5.83301 -31.334 -8.5 -44.001l-12 -54.5c-5.33301 -23.667 -9.5 -41.5 -12.5 -53.5l-15 -61.5c-7 -29 -11.833 -48.5 -14.5 -58.5h-46c-4 18 -10.5 45.167 -19.5 81.5l-20.5 84.5l-15.5 69
c-5.66699 26 -9.66699 47.667 -12 65s-3.5 31.666 -3.5 42.999c0 30 8 54 24 72s39.333 27 70 27s54 -9 70 -27s24 -42 24 -72zM242 68.002c0 -24.667 -9 -44.667 -27 -60s-40 -23 -66 -23s-48 7.66699 -66 23s-27 35.333 -27 60c0 24 9 43.667 27 59s40 23 66 23
s48 -7.66699 66 -23s27 -35 27 -59z" />
    <glyph glyph-name="quotedbl" unicode="&#x22;" horiz-adv-x="450" 
d="M423 584c0 -16.667 -4 -32.666 -12 -47.999c-12.667 -22.667 -33 -52 -61 -88l-61 -78l-38 18l13 104c7.33301 53.333 13.666 87.666 18.999 102.999c13.333 38 37 57 71 57c18.667 0 34.834 -6.66699 48.501 -20s20.5 -29.333 20.5 -48zM218 584.001
c0 -16.667 -4 -32.666 -12 -47.999c-12.667 -22.667 -33 -52 -61 -88l-61 -78l-38 18l13 104c7.33301 53.333 13.666 87.666 18.999 102.999c13.333 38 37 57 71 57c18.667 0 34.834 -6.66699 48.501 -20s20.5 -29.333 20.5 -48z" />
    <glyph glyph-name="numbersign" unicode="#" horiz-adv-x="642" 
d="M598 384h-118l-25 -82l-24 -84h121v-63h-139l-42 -147l-66 19l38 128h-133l-42 -147l-66 19l38 128h-96v63h115l29 97l20 69h-118v63h136l45 159l67 -19l-42 -140h133l45 159l67 -19l-42 -140h99v-63zM411 384h-134l-25 -82l-24 -84h134l29 97z" />
    <glyph glyph-name="dollar" unicode="$" horiz-adv-x="583" 
d="M534 183c0 -55.333 -21.333 -101.168 -64 -137.501s-101.334 -56.166 -176.001 -59.499l-9 -105l-67 4l9 103c-54.667 7.33301 -110.334 20 -167.001 38l-8 179l40 2c24 -46.667 46.333 -82.167 67 -106.5s47 -43.166 79 -56.499l18 205c-69.333 24 -119 49.667 -149 77
s-45 64.333 -45 111c0 56 21.333 101.667 64 137s99 53.333 169 54l7 91l67 -5l-8 -88c42.667 -4 90.334 -13 143.001 -27l3 -158l-40 -6c-16 38 -32.5 67.5 -49.5 88.5s-38.833 36.167 -65.5 45.5l-16 -189c72.667 -25.333 123.834 -52.333 153.501 -81
s44.5 -67.334 44.5 -116.001zM295 574.998c-66 -8 -99 -37 -99 -87c0 -41.333 28 -71.333 84 -90zM399 134.998c0 46.667 -29.667 78.999 -89 96.999l-16 -193c32 2.66699 57.5 12.834 76.5 30.501s28.5 39.5 28.5 65.5z" />
    <glyph glyph-name="percent" unicode="%" horiz-adv-x="816" 
d="M370 463c0 -46 -16.167 -85.333 -48.5 -118s-73.833 -49 -124.5 -49c-49.333 0 -89 15.5 -119 46.5s-45 70.5 -45 118.5c0 46 16.5 85.167 49.5 117.5s74.5 48.5 124.5 48.5c49.333 0 88.833 -15.333 118.5 -46s44.5 -70 44.5 -118zM142 8l238 306l241 324l53 -36
l-238 -305l-242 -325zM783 149c0 -46 -16.5 -85.167 -49.5 -117.5s-74.5 -48.5 -124.5 -48.5c-49.333 0 -88.833 15.333 -118.5 46s-44.5 70 -44.5 118c0 46 16.167 85.333 48.5 118s73.833 49 124.5 49c49.333 0 89 -15.5 119 -46.5s45 -70.5 45 -118.5zM266 463
c0 79.333 -22 119 -66 119c-42 0 -63 -40.667 -63 -122c0 -39.333 6 -69 18 -89s28 -30 48 -30c42 0 63 40.667 63 122zM550 147c0 -79.333 22 -119 66 -119c42 0 63 40.667 63 122c0 39.333 -6 69 -18 89s-28 30 -48 30c-42 0 -63 -40.667 -63 -122z" />
    <glyph glyph-name="ampersand" unicode="&#x26;" horiz-adv-x="723" 
d="M718 353l-0.00195312 -29l-61 -25l-148 -157c28 -35.333 51.5 -58.666 70.5 -69.999s43.167 -17 72.5 -17c17.333 0 31.333 1 42 3l3 -36c-43.333 -24.667 -92.333 -37 -147 -37c-36.667 0 -67 5.5 -91 16.5s-48 30.5 -72 58.5c-30 -26 -58.167 -45 -84.5 -57
s-56.5 -18 -90.5 -18c-52.667 0 -97.667 15.833 -135 47.5s-56 72.167 -56 121.5c0 40 10.833 72.833 32.5 98.5s53.834 48.167 96.501 67.5l23 10c-34.667 49.333 -52 94 -52 134c0 47.333 18.833 86.5 56.5 117.5s86.5 46.5 146.5 46.5
c54.667 0 96.834 -11.667 126.501 -35s44.5 -54.333 44.5 -93c0 -56.667 -39.667 -105.334 -119 -146.001l-21 -11l122 -159l77 114l-60 27v28h224zM377.998 500c0 24.667 -5.16602 44 -15.499 58s-24.833 21 -43.5 21c-16.667 0 -30.334 -6.33301 -41.001 -19
s-16 -29 -16 -49c0 -30.667 16.667 -67.667 50 -111l19 -25c31.333 39.333 47 81 47 125zM355.999 98l-154 196.001l-9 -9c-24.667 -24.667 -37 -52 -37 -82c0 -34.667 12.5 -64.334 37.5 -89.001s55.5 -37 91.5 -37c23.333 0 47 7 71 21z" />
    <glyph glyph-name="quotesingle" unicode="'" horiz-adv-x="245" 
d="M218 584c0 -16.667 -4 -32.666 -12 -47.999c-12.667 -22.667 -33 -52 -61 -88l-61 -78l-38 18l13 104c7.33301 53.333 13.666 87.666 18.999 102.999c13.333 38 37 57 71 57c18.667 0 34.834 -6.66699 48.501 -20s20.5 -29.333 20.5 -48z" />
    <glyph glyph-name="parenleft" unicode="(" horiz-adv-x="378" 
d="M194 282c0 -214.667 64 -355.332 192 -421.999l-16 -37c-92.667 33.333 -169.667 89.5 -231 168.5s-92 175.833 -92 290.5s30.667 211.5 92 290.5s138.333 135.167 231 168.5l16 -37c-128 -66.667 -192 -207.334 -192 -422.001z" />
    <glyph glyph-name="parenright" unicode=")" horiz-adv-x="378" 
d="M331 282c0 -114.667 -30.667 -211.502 -92 -290.502s-138.333 -135.167 -231 -168.5l-16 37c128 66.667 192 207.334 192 422.001s-64 355.334 -192 422.001l16 37c92.667 -33.333 169.667 -89.5 231 -168.5s92 -175.833 92 -290.5z" />
    <glyph glyph-name="asterisk" unicode="*" horiz-adv-x="446" 
d="M40 521l32 65l118 -84l10 5l-15 142h76l-15 -142l10 -5l118 84l32 -65l-126 -58v-12l126 -59l-32 -65l-118 84l-10 -4l15 -143h-76l15 143l-10 4l-118 -84l-32 65l127 59v12z" />
    <glyph glyph-name="plus" unicode="+" horiz-adv-x="520" 
d="M471 275h-177v-181h-68v181h-178v63h178v178h68v-178h177v-63z" />
    <glyph glyph-name="comma" unicode="," horiz-adv-x="250" 
d="M216 55c0 -46 -15.501 -90 -46.501 -132s-75.5 -79 -133.5 -111l-24 27c67.333 61.333 105.666 112.333 114.999 153l-8 8l-6 -1c-3.33301 -0.666992 -7.66602 -1 -12.999 -1c-19.333 0 -35.166 7.16699 -47.499 21.5s-18.5 32.166 -18.5 53.499
c0 24 8.33301 45.5 25 64.5s36.667 28.5 60 28.5c30 0 53.667 -9.66699 71 -29s26 -46.666 26 -81.999z" />
    <glyph glyph-name="hyphen" unicode="-" horiz-adv-x="355" 
d="M317 183h-279v115h279v-115z" />
    <glyph glyph-name="period" unicode="." horiz-adv-x="250" 
d="M216 75c0 -24.667 -9 -46 -27 -64s-39.333 -27 -64 -27s-46 9 -64 27s-27 39.333 -27 64s9 46 27 64s39.333 27 64 27s46 -9 64 -27s27 -39.333 27 -64z" />
    <glyph glyph-name="slash" unicode="/" horiz-adv-x="392" 
d="M399 713l-202 -459l-197 -465l-63 28l202 458l197 466z" />
    <glyph glyph-name="zero" unicode="0" horiz-adv-x="591" 
d="M562 306c0 -96 -25.001 -173.5 -75.001 -232.5s-115.333 -88.5 -196 -88.5c-82 0 -146.333 29 -193 87s-70 136 -70 234c0 96.667 25 174.5 75 233.5s115 88.5 195 88.5c82.667 0 147.334 -29.167 194.001 -87.5s70 -136.5 70 -234.5zM393.999 306
c0 92 -9.66699 159.833 -29 203.5s-45.333 65.5 -78 65.5c-29.333 0 -51.833 -19.667 -67.5 -59s-23.5 -109.333 -23.5 -210c0 -100 9.33301 -169.667 28 -209s45 -59 79 -59c60.667 0 91 89.333 91 268z" />
    <glyph glyph-name="one" unicode="1" horiz-adv-x="419" 
d="M295 81l105 -45v-36h-367v36l105 45v422l-106 53v32l239 33l24 -13v-527z" />
    <glyph glyph-name="two" unicode="2" horiz-adv-x="506" 
d="M289 409c0 32.667 -8.99902 58.333 -26.999 77s-42 28 -72 28c-36 0 -76.333 -16.667 -121 -50l-30 22c49.333 94.667 117.666 142 204.999 142c60 0 107.167 -17.5 141.5 -52.5s51.5 -77.833 51.5 -128.5c0 -53.333 -18.667 -102.833 -56 -148.5
s-105.333 -103.834 -204 -174.501l4 -11l187 5l74 87l26 -5l-33 -200h-422l-5 53c76.667 60.667 138 115.334 184 164.001c34.667 37.333 59.5 70.333 74.5 99s22.5 59.667 22.5 93z" />
    <glyph glyph-name="three" unicode="3" 
d="M474 179c0 -57.333 -22.499 -104 -67.499 -140s-101.833 -54 -170.5 -54c-64.667 0 -116.667 10.5 -156 31.5s-59 47.833 -59 80.5c0 22.667 7.16699 40.834 21.5 54.501s31.5 20.5 51.5 20.5c30.667 0 52.167 -11 64.5 -33s15.166 -50 8.49902 -84
c19.333 -8.66699 38.333 -13 57 -13c33.333 0 59.333 8.16699 78 24.5s28 40.833 28 73.5c0 37.333 -16.667 68 -50 92s-88.333 41.667 -165 53v39c70.667 23.333 120.167 44.833 148.5 64.5s42.5 43.167 42.5 70.5c0 21.333 -8 38.666 -24 51.999s-40.667 20 -74 20
c-24 0 -45.667 -3.5 -65 -10.5s-43.333 -18.833 -72 -35.5l-24 26c60 78 135.333 117 226 117c54 0 97.167 -12 129.5 -36s48.5 -55.333 48.5 -94c0 -66.667 -46 -114 -138 -142v-13c107.333 -26 161 -80.667 161 -164z" />
    <glyph glyph-name="four" unicode="4" horiz-adv-x="578" 
d="M540 161h-95v-85l104 -40v-36h-357v36l106 40v85h-276l-10 48l289 418l144 -6v-371h95v-89zM301 250v240h-18l-162 -240h180z" />
    <glyph glyph-name="five" unicode="5" horiz-adv-x="524" 
d="M478 193c0 -60 -22.333 -109.667 -67 -149s-101.667 -59 -171 -59c-60 0 -109.167 10.667 -147.5 32s-57.5 48.333 -57.5 81c0 22 6.33301 39.833 19 53.5s28.667 20.5 48 20.5c28 0 48.333 -10.333 61 -31s16.667 -47.667 12 -81c20.667 -12 42.667 -18 66 -18
c31.333 0 57.166 9.5 77.499 28.5s30.5 45.833 30.5 80.5c0 79.333 -50.667 119 -152 119c-33.333 0 -66.666 -5 -99.999 -15l-31 14l33 343h278l43 54l34 -9l-15 -175h-288l-11 -93l4 -2c28 4.66699 57.667 7 89 7c163.333 0 245 -67 245 -201z" />
    <glyph glyph-name="six" unicode="6" horiz-adv-x="568" 
d="M528 215c0 -72 -22.834 -128.333 -68.501 -169s-104.5 -61 -176.5 -61s-131 21 -177 63s-69 102.667 -69 182c0 105.333 40.667 197.333 122 276c63.333 61.333 154.666 105.666 273.999 132.999l10 -43c-51.333 -25.333 -94.666 -54.333 -129.999 -87
c-23.333 -22 -41.666 -42.167 -54.999 -60.5s-27 -42.833 -41 -73.5l9 -4c34.667 22 74.667 33 120 33c59.333 0 104.5 -17.167 135.5 -51.5s46.5 -80.166 46.5 -137.499zM369.999 181c0 98.667 -33 148 -99 148c-20.667 0 -42 -5.33301 -64 -16
c-6 -23.333 -9 -53.333 -9 -90c0 -55.333 8.33301 -100 25 -134s40 -51 70 -51c24.667 0 43.667 12.5 57 37.5s20 60.167 20 105.5z" />
    <glyph glyph-name="seven" unicode="7" horiz-adv-x="496" 
d="M372 479h-247l-55 -64l-31 8l27 218l31 9l26 -38h349l18 -20l-267 -607h-144l147 244z" />
    <glyph glyph-name="eight" unicode="8" horiz-adv-x="548" 
d="M368 344c50 -24 85.833 -49.6689 107.5 -77.002s32.5 -61 32.5 -101c0 -52.667 -23 -96 -69 -130s-103.333 -51 -172 -51c-64 0 -117.333 14.833 -160 44.5s-64 66.834 -64 111.501c0 66.667 42.333 118.667 127 156c-73.333 36.667 -110 88.334 -110 155.001
c0 50 20.5 91.833 61.5 125.5s94.5 50.5 160.5 50.5c62.667 0 112.5 -13 149.5 -39s55.5 -59 55.5 -99c0 -62 -39.667 -110.667 -119 -146zM318 366.998c36 38 53.999 76.999 53.999 116.999c0 28.667 -8.16699 51.834 -24.5 69.501s-39.166 26.5 -68.499 26.5
c-25.333 0 -45.666 -7.66699 -60.999 -23s-23 -35.333 -23 -60c0 -26.667 9.66699 -50 29 -70s50.666 -40 93.999 -60zM212.999 276.997c-32 -36 -48 -78.001 -48 -126.001c0 -36.667 10 -65.5 30 -86.5s46 -31.5 78 -31.5c27.333 0 49.166 8.33301 65.499 25
s24.5 38.334 24.5 65.001c0 31.333 -11.167 58.5 -33.5 81.5s-61.166 47.167 -116.499 72.5z" />
    <glyph glyph-name="nine" unicode="9" horiz-adv-x="568" 
d="M531 383c0 -104.667 -40.665 -196.666 -121.998 -275.999c-68.667 -66 -163.334 -110.333 -284.001 -133l-10 43c59.333 26.667 106 55.667 140 87c23.333 22 41.666 42.167 54.999 60.5s27 42.833 41 73.5l-9 4c-34.667 -22 -74.667 -33 -120 -33
c-59.333 0 -104.5 17.167 -135.5 51.5s-46.5 80.166 -46.5 137.499c0 72 22.833 128.333 68.5 169s104.5 61 176.5 61s131 -21 177 -63s69 -102.667 69 -182zM370.002 390.001c0 55.333 -8.33301 100 -25 134s-40 51 -70 51c-24.667 0 -43.667 -12.5 -57 -37.5
s-20 -60.167 -20 -105.5c0 -98.667 33 -148 99 -148c20.667 0 42 5.33301 64 16c6 23.333 9 53.333 9 90z" />
    <glyph glyph-name="colon" unicode=":" horiz-adv-x="260" 
d="M219 345c0 -24.667 -8.66699 -45.667 -26 -63s-38.333 -26 -63 -26s-45.667 8.66699 -63 26s-26 38.333 -26 63s8.66699 45.667 26 63s38.333 26 63 26s45.667 -8.66699 63 -26s26 -38.333 26 -63zM219 73c0 -24.667 -8.66699 -45.667 -26 -63s-38.333 -26 -63 -26
s-45.667 8.66699 -63 26s-26 38.333 -26 63s8.66699 45.667 26 63s38.333 26 63 26s45.667 -8.66699 63 -26s26 -38.333 26 -63z" />
    <glyph glyph-name="semicolon" unicode=";" horiz-adv-x="260" 
d="M219 345c0 -24.667 -8.66699 -45.667 -26 -63s-38.333 -26 -63 -26s-45.667 8.66699 -63 26s-26 38.333 -26 63s8.66699 45.667 26 63s38.333 26 63 26s45.667 -8.66699 63 -26s26 -38.333 26 -63zM221 55c0 -46 -15.501 -90 -46.501 -132s-75.5 -79 -133.5 -111l-24 27
c67.333 61.333 105.666 112.333 114.999 153l-8 8l-6 -1c-3.33301 -0.666992 -7.66602 -1 -12.999 -1c-19.333 0 -35.166 7.16699 -47.499 21.5s-18.5 32.166 -18.5 53.499c0 24 8.33301 45.5 25 64.5s36.667 28.5 60 28.5c30 0 53.667 -9.66699 71 -29
s26 -46.666 26 -81.999z" />
    <glyph glyph-name="less" unicode="&#x3c;" horiz-adv-x="520" 
d="M438 165l-17 -67l-355 185v49l355 184l17 -67l-291 -140z" />
    <glyph glyph-name="equal" unicode="=" horiz-adv-x="520" 
d="M459 438v-68h-398v68h398zM459 174h-398v68h398v-68z" />
    <glyph glyph-name="greater" unicode="&#x3e;" horiz-adv-x="520" 
d="M373 306l-291 144l17 67l355 -185v-49l-355 -184l-17 67z" />
    <glyph glyph-name="question" unicode="?" horiz-adv-x="494" 
d="M462 471c0 -37.333 -9.83203 -67.5 -29.499 -90.5s-50.5 -46.167 -92.5 -69.5c-39.333 -21.333 -65 -38.833 -77 -52.5s-18 -29.834 -18 -48.501h-66c-22 43.333 -33 76.333 -33 99c0 33.333 29.333 69.333 88 108c29.333 19.333 49.166 35.333 59.499 48
s15.5 28.667 15.5 48c0 22.667 -8.16699 41.334 -24.5 56.001s-37.166 22 -62.499 22c-16.667 0 -33 -2.66699 -49 -8c6.66699 -18 10 -37.333 10 -58c0 -22.667 -7.33301 -42.167 -22 -58.5s-33 -24.5 -55 -24.5c-23.333 0 -43 7.83301 -59 23.5s-24 34.834 -24 57.501
c0 35.333 19.167 65.666 57.5 90.999s90.166 38 155.499 38c63.333 0 116.833 -17.167 160.5 -51.5s65.5 -77.5 65.5 -129.5zM305.001 68c0 -24.667 -9 -44.667 -27 -60s-40 -23 -66 -23s-48 7.66699 -66 23s-27 35.333 -27 60c0 24 9 43.667 27 59s40 23 66 23
s48 -7.66699 66 -23s27 -35 27 -59z" />
    <glyph glyph-name="at" unicode="@" horiz-adv-x="921" 
d="M797 301c0 84 -29.832 155.333 -89.499 214s-139.167 88 -238.5 88s-181.166 -34.5 -245.499 -103.5s-96.5 -162.5 -96.5 -280.5c0 -98.667 34.5 -179.5 103.5 -242.5s160.167 -94.5 273.5 -94.5c78.667 0 157.667 23 237 69l17 -27
c-36.667 -30 -80.834 -54.5 -132.501 -73.5s-104.5 -28.5 -158.5 -28.5c-74.667 0 -143.334 14.667 -206.001 44s-114.5 75 -155.5 137s-61.5 135.333 -61.5 220c0 74.667 20.667 145 62 211s97.666 118.833 168.999 158.5s148 59.5 230 59.5
c106 0 194.167 -33.333 264.5 -100s105.5 -143.334 105.5 -230.001c0 -77.333 -22.5 -142.666 -67.5 -195.999s-102.5 -80 -172.5 -80c-73.333 0 -119.333 24.333 -138 73l-12 2c-22.667 -25.333 -44.167 -43.5 -64.5 -54.5s-43.166 -16.5 -68.499 -16.5
c-30.667 0 -55.834 10.333 -75.501 31s-29.5 48 -29.5 82c0 80.667 28.333 147.667 85 201s114.667 80 174 80c28 0 57 -6.33301 87 -19l46 33l26 -9l-52 -240c-17.333 -76.667 -1.66602 -115 47.001 -115c38 0 70.333 18.5 97 55.5s40 87.5 40 151.5zM522.001 343
c-20 31.333 -40 46.999 -60 46.999c-24 0 -45 -23.167 -63 -69.5s-27 -87.166 -27 -122.499c0 -40.667 15 -61 45 -61c19.333 0 41.333 7.33301 66 22z" />
    <glyph glyph-name="A" unicode="A" horiz-adv-x="731" 
d="M651 66l77 -29v-37h-334v32l74 24l-49 139h-213l-46 -133l62 -30v-32h-224v37l76 33l227 573h132zM399 251l-83 237h-10l-81 -237h174z" />
    <glyph glyph-name="B" unicode="B" horiz-adv-x="678" 
d="M638 173c0 -53.333 -20.5 -95.501 -61.5 -126.501s-99.5 -46.5 -175.5 -46.5h-373v37l87 24v515l-87 24v37h347c80 0 139.5 -13.167 178.5 -39.5s58.5 -59.833 58.5 -100.5c0 -79.333 -60 -129.666 -180 -150.999v-15c137.333 -14 206 -66.667 206 -158zM289 353.999
l28 1.99902c82.667 5.33301 124 45 124 119c0 38.667 -10.667 66.834 -32 84.501s-52 27.167 -92 28.5l-28 1v-235zM452 172.998c0 44.667 -12.168 77.667 -36.501 99s-60.166 33.333 -107.499 36l-19 1v-256c14 -4 28.667 -6 44 -6c79.333 0 119 42 119 126z" />
    <glyph glyph-name="C" unicode="C" horiz-adv-x="705" 
d="M653 211l-21.001 -186.001c-66.667 -26.667 -143 -40 -229 -40c-107.333 0 -193.833 28.333 -259.5 85s-98.5 137.334 -98.5 242.001c0 94.667 33.333 175 100 241s152.334 99 257.001 99c59.333 0 112 -10.333 158 -31l34 34h34l14 -262l-45 -2
c-34.667 76.667 -67 129.667 -97 159s-64.333 44 -103 44c-47.333 0 -85.333 -22.5 -114 -67.5s-43 -110.833 -43 -197.5c0 -89.333 18.167 -158.5 54.5 -207.5s84.5 -73.5 144.5 -73.5c18.667 0 38.667 3 60 9l119 158z" />
    <glyph glyph-name="D" unicode="D" horiz-adv-x="768" 
d="M115 576l-86.999 24.001v37h323c113.333 0 203.666 -27.833 270.999 -83.5s101 -131.167 101 -226.5c0 -100.667 -34.5 -180.334 -103.5 -239.001s-160.833 -88 -275.5 -88h-316v37l87 24v515zM528.001 319.001c0 166 -66.333 253.002 -199 261.002l-34 2v-526l54 3
c58.667 3.33301 103.167 24.666 133.5 63.999s45.5 104.666 45.5 195.999z" />
    <glyph glyph-name="E" unicode="E" horiz-adv-x="672" 
d="M600 637l14 -215l-29 -5l-70 90c-20.667 26.667 -39.334 45 -56.001 55s-41 15.667 -73 17l-91 4v-239h36c25.333 0 42.833 4.33301 52.5 13s20.834 30.334 33.501 65.001l12 32h31v-271h-32l-11 29c-12.667 33.333 -24.167 54.666 -34.5 63.999s-27.5 14 -51.5 14h-36
v-235l123 6c28 1.33301 50.333 7 67 17s34.667 26.333 54 49l72 84l29 -4l-19 -207h-593v37l87 24v515l-87 24v37h572z" />
    <glyph glyph-name="F" unicode="F" horiz-adv-x="643" 
d="M615 422l-28.999 -4.99805l-70 90c-22 28 -40.667 46.667 -56 56s-38 14.666 -68 15.999l-97 4v-253h33c27.333 0 46.666 5.16699 57.999 15.5s23 31.166 35 62.499l12 31h31v-271h-31l-12 29c-13.333 32 -25.333 53 -36 63s-29.667 15 -57 15h-33v-214l93 -24v-37h-360
v37l87 24v515l-87 24v37h573z" />
    <glyph glyph-name="G" unicode="G" horiz-adv-x="726" 
d="M638 413l-45 -1.99902c-35.333 64.667 -67.833 111.167 -97.5 139.5s-62.167 42.5 -97.5 42.5c-48.667 0 -87.167 -21.333 -115.5 -64s-42.5 -104 -42.5 -184c0 -92.667 18.167 -163.334 54.5 -212.001s87.5 -73 153.5 -73c10.667 0 22.667 2 36 6v179l-85 25v36h310v-36
l-61 -25v-250l-36 -4l-80 45c-62 -34.667 -122.667 -52 -182 -52c-88.667 0 -161.667 30.667 -219 92s-86 140 -86 236s33.333 176.5 100 241.5s150.667 97.5 252 97.5c60.667 0 112.667 -10 156 -30l34 34h41z" />
    <glyph glyph-name="H" unicode="H" horiz-adv-x="816" 
d="M521 363v213l-74 24v37h341v-37l-87 -24v-515l87 -24v-37h-341v37l74 24v237h-226v-237l74 -24v-37h-341v37l87 24v515l-87 24v37h341v-37l-74 -24v-213h226z" />
    <glyph glyph-name="I" unicode="I" horiz-adv-x="430" 
d="M305 61l86 -24v-37h-353v37l87 24v515l-87 24v37h353v-37l-86 -24v-515z" />
    <glyph glyph-name="J" unicode="J" horiz-adv-x="564" 
d="M459 242c0 -48.667 -6.16797 -88.335 -18.501 -119.002s-32.166 -57 -59.499 -79c-51.333 -41.333 -117 -62 -197 -62c-53.333 0 -95.833 10.333 -127.5 31s-47.5 49.334 -47.5 86.001c0 26 8.66699 47.5 26 64.5s38.333 25.5 63 25.5c66.667 0 99 -50.667 97 -152
c56 6.66699 84 51.334 84 134.001v405l-87 24v37h351v-37l-84 -24v-334z" />
    <glyph glyph-name="K" unicode="K" horiz-adv-x="752" 
d="M459 382l212 -310l81 -35v-37h-319v27l50 25l-143 230h-45v-221l74 -24v-37h-341v37l87 24v515l-87 24v37h341v-37l-74 -24v-228h53l165 218l-73 44v27h284v-37l-98 -36z" />
    <glyph glyph-name="L" unicode="L" horiz-adv-x="635" 
d="M608 237l-23 -236.999h-557v37l87 24v515l-87 24v37h354v-37l-87 -24v-521l74 4c28.667 1.33301 52.667 8.16602 72 20.499s41 33.833 65 64.5l75 96z" />
    <glyph glyph-name="M" unicode="M" horiz-adv-x="997" 
d="M882 61l87 -24v-37h-337v37l75 24v458h-15l-173 -519h-116l-189 519h-13v-449l85 -33v-37h-258v37l87 33v506l-87 24v37h326l35 -106l108 -328h13l108 328l34 106h317v-37l-87 -24v-515z" />
    <glyph glyph-name="N" unicode="N" horiz-adv-x="795" 
d="M120 73v494l-79 33v37h280l69 -104l197 -290h12v321l-85 36v37h256v-37l-85 -36v-570h-139l-70 104l-258 366h-12v-391l85 -36v-37h-256v37z" />
    <glyph glyph-name="O" unicode="O" horiz-adv-x="762" 
d="M717 319c0 -94.667 -30.168 -174 -90.501 -238s-143.166 -96 -248.499 -96c-108 0 -190.5 31.5 -247.5 94.5s-85.5 142.833 -85.5 239.5c0 94 30.167 173 90.5 237s143.166 96 248.499 96c108.667 0 191.334 -31.5 248.001 -94.5s85 -142.5 85 -238.5zM522.999 319
c0 91.333 -13.334 161 -40.001 209s-63 72 -109 72c-44 0 -77.5 -21.667 -100.5 -65s-34.5 -115.333 -34.5 -216s12.833 -172.667 38.5 -216s62.5 -65 110.5 -65c42.667 0 75.834 23.833 99.501 71.5s35.5 117.5 35.5 209.5z" />
    <glyph glyph-name="P" unicode="P" horiz-adv-x="661" 
d="M632 450c0 -64.667 -22.667 -113.167 -68 -145.5s-107 -48.5 -185 -48.5c-28 0 -56 1.66699 -84 5v-200l99 -24v-37h-366v37l87 24v515l-87 24v37h342c81.333 0 145.333 -16.167 192 -48.5s70 -78.5 70 -138.5zM447 450c0 82.667 -41.333 126.667 -124 132l-28 2v-269h25
c84.667 0 127 45 127 135z" />
    <glyph glyph-name="Q" unicode="Q" horiz-adv-x="762" 
d="M717 319c0 -76.667 -20.501 -143.834 -61.501 -201.501s-98.833 -96.167 -173.5 -115.5c23.333 -39.333 52 -70.666 86 -93.999c30.667 -21.333 72 -36 124 -44l-9 -36h-142c-72.667 0 -122.667 11 -150 33c-18 14 -39.333 45.333 -64 94l-21 40
c-85.333 13.333 -150.166 49.5 -194.499 108.5s-66.5 130.833 -66.5 215.5c0 94 30.167 173 90.5 237s143.166 96 248.499 96c108.667 0 191.334 -31.5 248.001 -94.5s85 -142.5 85 -238.5zM522.999 319c0 91.333 -13.334 161 -40.001 209s-63 72 -109 72
c-44 0 -77.5 -21.667 -100.5 -65s-34.5 -115.333 -34.5 -216s12.833 -172.667 38.5 -216s62.5 -65 110.5 -65c42.667 0 75.834 23.833 99.501 71.5s35.5 117.5 35.5 209.5z" />
    <glyph glyph-name="R" unicode="R" horiz-adv-x="713" 
d="M642 481c0 -40.667 -15.499 -75.501 -46.499 -104.501s-78.5 -48.5 -142.5 -58.5v-15c44 -6.66699 77.333 -19.334 100 -38.001s39.667 -44.334 51 -77.001c16 -48 34.667 -85 56 -111c14.667 -17.333 35.667 -30.666 63 -39.999v-37h-138
c-37.333 0 -64.833 7.83301 -82.5 23.5s-35.167 45.167 -52.5 88.5l-37 93c-10.667 26.667 -24.334 45.334 -41.001 56.001s-38.667 16 -66 16h-11v-216l86 -24v-37h-353v37l87 24v515l-87 24v37h387c71.333 0 127 -13.667 167 -41s60 -65.666 60 -114.999zM464.001 458.999
c0 76 -42.333 116.333 -127 121l-42 2v-251l47 2c81.333 3.33301 122 45.333 122 126z" />
    <glyph glyph-name="S" unicode="S" horiz-adv-x="574" 
d="M533 198c0 -63.333 -22.3311 -114.668 -66.998 -154.001s-103.334 -59 -176.001 -59c-56 0 -110 12.667 -162 38l-27 -35h-40l-13 225l46 2c28 -65.333 57.167 -110.333 87.5 -135s63.833 -37 100.5 -37c32.667 0 58.5 8.33301 77.5 25s28.5 38 28.5 64
c0 25.333 -8.16699 45.333 -24.5 60s-47.166 31.334 -92.499 50.001c-46.667 18.667 -79.334 32.667 -98.001 42c-74.667 36 -112 93 -112 171c0 56.667 20.833 103.667 62.5 141s93.834 56 156.501 56c50 0 96 -11.333 138 -34l28 34h40l17 -201l-45 -3
c-26 52.667 -51.5 90.167 -76.5 112.5s-53.5 33.5 -85.5 33.5c-26.667 0 -47.834 -7 -63.501 -21s-23.5 -32.667 -23.5 -56c0 -22 6.83301 -40.333 20.5 -55s37.5 -29.667 71.5 -45c10 -4.66699 28.167 -12 54.5 -22s46.166 -18.333 59.499 -25
c78.667 -38 118 -95.333 118 -172z" />
    <glyph glyph-name="T" unicode="T" horiz-adv-x="714" 
d="M690 394l-31 -4.99902l-77 103c-26.667 36 -47.334 59.833 -62.001 71.5s-33.667 18.5 -57 20.5l-16 1v-524l90 -24v-37h-360v37l90 24v524l-17 -1c-22.667 -1.33301 -41.667 -8.33301 -57 -21s-35.666 -36.334 -60.999 -71.001l-77 -103l-31 5l28 243h610z" />
    <glyph glyph-name="U" unicode="U" horiz-adv-x="759" 
d="M575 567l-72 33v37h238v-37l-78 -33v-341c0 -75.333 -23.333 -134.333 -70 -177s-111.667 -64 -195 -64c-195.333 0 -293 84 -293 252v339l-86 24v37h353v-37l-87 -24v-346c0 -109.333 49 -164 147 -164c45.333 0 80.5 14.333 105.5 43s37.5 67 37.5 115v343z" />
    <glyph glyph-name="V" unicode="V" horiz-adv-x="732" 
d="M663 556l-235 -562h-109l-236 577l-80 29v37h367v-37l-89 -24l148 -396l140 381l-77 39v37h242v-37z" />
    <glyph glyph-name="W" unicode="W" horiz-adv-x="1034" 
d="M653 576l112 -364h8l96 354l-62 39v32h230v-37l-76 -43l-190 -563h-105l-137 403h-8l-151 -403h-105l-178 577l-86 29v37h339v-32l-65 -24l99 -374h4l112 305l-22 64l-61 29v32h313v-32z" />
    <glyph glyph-name="X" unicode="X" horiz-adv-x="744" 
d="M640 573l-184 -222l206 -291l72 -23v-37h-351v32l73 21l-117 187l-124 -181l63 -27v-32h-254v37l81 27l189 228l-198 285l-72 23v37h355v-32l-77 -20l109 -181l120 174l-64 27v32h258v-37z" />
    <glyph glyph-name="Y" unicode="Y" horiz-adv-x="737" 
d="M646 567l-177 -289v-210l90 -31v-37h-359v37l89 31v185l-181 312l-86 35v37h346v-32l-65 -30l130 -234l117 228l-53 36v32h228v-37z" />
    <glyph glyph-name="Z" unicode="Z" horiz-adv-x="660" 
d="M620 243l-16 -243.001h-574l-4 30l388 545l-132 -3c-26 -0.666992 -48.167 -6.66699 -66.5 -18s-39.5 -32.666 -63.5 -63.999l-59 -77l-31 5l17 219h544l4 -30l-384 -547l164 3c24.667 0.666992 45.5 7 62.5 19s34.5 31.667 52.5 59l70 106z" />
    <glyph glyph-name="bracketleft" unicode="[" horiz-adv-x="380" 
d="M401 691h-167v-817h167v-50h-300v917h300v-50z" />
    <glyph glyph-name="backslash" unicode="\" horiz-adv-x="392" 
d="M56 741l197 -466l202 -458l-63 -28l-197 465l-202 459z" />
    <glyph glyph-name="bracketright" unicode="]" horiz-adv-x="380" 
d="M146 691h-167v50h300v-917h-300v50h167v817z" />
    <glyph glyph-name="asciicircum" unicode="^" horiz-adv-x="319" 
d="M159 591l-128 -84l-30 28l126 193h71l119 -193l-30 -28z" />
    <glyph glyph-name="underscore" unicode="_" horiz-adv-x="440" 
d="M442 60v-60h-444v60h444z" />
    <glyph glyph-name="grave" unicode="`" horiz-adv-x="238" 
d="M214 532l-31.0039 -21.001c-69.333 50 -114.333 89.333 -135 118c-15.333 20.667 -22.166 41.334 -20.499 62.001s11.834 36.667 30.501 48s37.834 13.5 57.501 6.5s35.834 -21.167 48.501 -42.5c12 -21.333 28.667 -78.333 50 -171z" />
    <glyph glyph-name="a" unicode="a" 
d="M448 327v-219.998c0 -20 5 -35.333 15 -46s27.667 -17.334 53 -20.001l2 -32c-49.333 -12.667 -88.666 -19 -117.999 -19c-50.667 0 -80.667 21 -90 63l-15 2c-46 -42 -92.333 -63 -139 -63c-38.667 0 -69.834 9.66699 -93.501 29s-35.5 46.666 -35.5 81.999
c0 89.333 91 140 273 152v53c0 36.667 -7.83301 62 -23.5 76s-43.167 21 -82.5 21c-13.333 0 -25 -1 -35 -3c14.667 -16 22 -34 22 -54c0 -17.333 -5.83301 -31.833 -17.5 -43.5s-27.834 -17.5 -48.501 -17.5c-19.333 0 -35.666 6.66699 -48.999 20s-20 29 -20 47
c0 34 22.5 61.667 67.5 83s96.833 32 155.5 32c62 0 107.333 -11.167 136 -33.5s43 -58.5 43 -108.5zM300 85.002v136c-84.667 -6 -127 -34.333 -127 -85c0 -45.333 23.667 -68 71 -68c18 0 36.667 5.66699 56 17z" />
    <glyph glyph-name="b" unicode="b" horiz-adv-x="585" 
d="M552 240c0 -70.667 -24.168 -131 -72.501 -181s-113.166 -75 -194.499 -75c-69.333 0 -142.666 9.66699 -219.999 29v599l-65 47v30l199 52l24 -13v-315l14 -2c46 38.667 92 58 138 58c49.333 0 91.166 -21.333 125.499 -64s51.5 -97.667 51.5 -165zM384.999 209
c0 109.333 -35 164 -105 164c-15.333 0 -34.333 -2.66699 -57 -8v-280c20 -32.667 46.333 -49 79 -49c24 0 43.833 14.167 59.5 42.5s23.5 71.833 23.5 130.5z" />
    <glyph glyph-name="c" unicode="c" horiz-adv-x="491" 
d="M468 352c0 -22.667 -6.83301 -41.3311 -20.5 -55.998s-31.5 -22 -53.5 -22c-24 0 -43.167 8 -57.5 24s-21.5 37.333 -21.5 64c0 13.333 2.33301 30.666 7 51.999h-3c-37.333 -2 -67.833 -18.833 -91.5 -50.5s-35.5 -74.167 -35.5 -127.5c0 -52 14.167 -91.667 42.5 -119
s65.833 -41 112.5 -41c30.667 0 66 6.33301 106 19l11 -30c-58 -54 -122.667 -81 -194 -81c-66 0 -122.5 21.833 -169.5 65.5s-70.5 99.5 -70.5 167.5c0 70 25.333 129.5 76 178.5s113.667 73.5 189 73.5c51.333 0 93 -11.333 125 -34s48 -50.334 48 -83.001z" />
    <glyph glyph-name="d" unicode="d" horiz-adv-x="590" 
d="M520 101l60 -47v-30l-188 -43l-24 13l6 57l-14 2l-1 -1c-48 -45.333 -97.667 -68 -149 -68c-49.333 0 -91.166 21.333 -125.499 64s-51.5 97.667 -51.5 165c0 70.667 24.167 131 72.5 181s113.166 75 194.499 75c20 0 40.667 -2 62 -6v149l-65 47v30l199 52l24 -13v-627z
M200 244c0 -109.333 35 -164 105 -164c15.333 0 34.333 2.66699 57 8v280c-20 32.667 -46.333 49 -79 49c-24 0 -43.833 -14.167 -59.5 -42.5s-23.5 -71.833 -23.5 -130.5z" />
    <glyph glyph-name="e" unicode="e" 
d="M491 221l-305.997 -0.000976562c3.33301 -102 49.666 -153 138.999 -153c44 0 93.667 7.66699 149 23l12 -25c-32 -24 -67.167 -43.667 -105.5 -59s-73.833 -23 -106.5 -23c-74.667 0 -133.834 21.333 -177.501 64s-65.5 99 -65.5 169
c0 70.667 25.167 130.334 75.5 179.001s107.833 73 172.5 73c77.333 0 133.166 -23 167.499 -69s49.5 -105.667 45.5 -179zM186.003 259.999l158.999 11c0 52.667 -6 91 -18 115s-30.667 36 -56 36c-24.667 0 -44.667 -14 -60 -42s-23.666 -68 -24.999 -120z" />
    <glyph glyph-name="f" unicode="f" horiz-adv-x="377" 
d="M377 381h-125.002v-323l75 -24v-34h-293v34l60 24v323h-90v32l90 45v35c0 94 35 162.667 105 206c44.667 28 95.667 42 153 42c38 0 68.167 -8.66699 90.5 -26s33.5 -38.333 33.5 -63c0 -20.667 -6.16699 -37.167 -18.5 -49.5s-28.5 -18.5 -48.5 -18.5
c-47.333 0 -81.666 33 -102.999 99c-19.333 -12 -33.166 -30.333 -41.499 -55s-12.5 -61 -12.5 -109v-64h125v-74z" />
    <glyph glyph-name="g" unicode="g" horiz-adv-x="533" 
d="M457 314c0 -40.667 -18.5 -74.835 -55.5 -102.502s-87.167 -41.5 -150.5 -41.5c-30.667 0 -56 2.33301 -76 7c-7.33301 -13.333 -11 -26.333 -11 -39c0 -24.667 20.333 -37.334 61 -38.001l126 -2c108 -2 162 -41.667 162 -119c0 -54 -26.167 -98.5 -78.5 -133.5
s-119.5 -52.5 -201.5 -52.5c-77.333 0 -135 8.66699 -173 26s-57 41 -57 71c0 18 7.33301 33.833 22 47.5s39 26.834 73 39.501l-1 11c-36.667 12 -55 34.667 -55 68c0 32 30.333 75.333 91 130v5c-29.333 12.667 -52.666 30.334 -69.999 53.001s-26 48 -26 76
c0 44.667 20 80.667 60 108s91.333 41 154 41c59.333 0 111.666 -15 156.999 -45l69 45h60v-88h-20l-77 15l-2 -9c12.667 -23.333 19 -47.666 19 -72.999zM317 325.999c0 69.333 -24.001 104 -72.001 104c-46 0 -69 -36.667 -69 -110c0 -41.333 6.33301 -70 19 -86
s31.334 -24 56.001 -24c44 0 66 38.667 66 116zM413.999 -81.001c0 19.333 -8.83301 33.333 -26.5 42s-47.167 13.334 -88.5 14.001l-164 1c-6 -16.667 -9 -35.334 -9 -56.001c0 -54 47.333 -81 142 -81c39.333 0 73.5 7.83301 102.5 23.5s43.5 34.5 43.5 56.5z" />
    <glyph glyph-name="h" unicode="h" horiz-adv-x="596" 
d="M375 281c0 58 -22.333 87 -67 87c-22 0 -47 -6 -75 -18v-292l46 -24v-34h-264v34l60 24v554l-65 47v30l199 52l24 -13v-328l14 -2c54 47.333 106.667 71 158 71c40.667 0 72.167 -12.167 94.5 -36.5s33.5 -57.5 33.5 -99.5v-275l60 -24v-34h-264v34l46 24v223z" />
    <glyph glyph-name="i" unicode="i" horiz-adv-x="309" 
d="M63 640c0 26.667 9.5 49.834 28.5 69.501s42.167 29.5 69.5 29.5s49.833 -8.83301 67.5 -26.5s26.5 -39.834 26.5 -66.501s-9.33301 -49.667 -28 -69s-42 -29 -70 -29c-26.667 0 -49 8.66699 -67 26s-27 39.333 -27 66zM80 353l-59 47v30l193 42l24 -13v-401l60 -24v-34
h-281v34l63 24v295z" />
    <glyph glyph-name="j" unicode="j" horiz-adv-x="298" 
d="M58 640c0 26.667 9.5 49.834 28.5 69.501s42.167 29.5 69.5 29.5s49.833 -8.83301 67.5 -26.5s26.5 -39.834 26.5 -66.501s-9.33301 -49.667 -28 -69s-42 -29 -70 -29c-26.667 0 -49 8.66699 -67 26s-27 39.333 -27 66zM233 40c0 -51.333 -3.66699 -89.998 -11 -115.998
s-20 -48.333 -38 -67c-40 -42 -99.333 -63 -178 -63c-38 0 -67.833 8.16699 -89.5 24.5s-32.5 35.5 -32.5 57.5c0 18 6 32.833 18 44.5s27.333 17.5 46 17.5c42.667 0 71.667 -30.667 87 -92c16.667 9.33301 27.5 22.166 32.5 38.499s7.5 43.166 7.5 80.499v388l-59 47v30
l193 42l24 -13v-419z" />
    <glyph glyph-name="k" unicode="k" horiz-adv-x="578" 
d="M361 282l172 -227l44 -21v-34h-241v29l33 18l-107 149h-29v-138l44 -24v-34h-262v34l60 24v554l-65 47v30l199 52l24 -13v-469h33l117 133l-55 33v29h226v-34l-60 -24z" />
    <glyph glyph-name="l" unicode="l" horiz-adv-x="304" 
d="M233 58l60 -24v-34h-281v34l63 24v554l-64 47v30l198 52l24 -13v-670z" />
    <glyph glyph-name="m" unicode="m" horiz-adv-x="883" 
d="M664 281c0 28.667 -4.66895 50.332 -14.002 64.999s-26 22 -50 22c-20 0 -44 -6 -72 -18v-292l46 -24v-34h-242v34l40 24v223c0 28.667 -4.66699 50.334 -14 65.001s-26 22 -50 22c-20 0 -44 -6 -72 -18v-292l46 -24v-34h-262v34l60 24v295l-60 47v30l186 42l24 -13
l-7 -71l14 -2c60 55.333 116 83 168 83c60 0 98 -26 114 -78l14 -2c58.667 53.333 113.334 80 164.001 80c40.667 0 71.334 -12.167 92.001 -36.5s31 -57.5 31 -99.5v-275l60 -24v-34h-256v34l40 24v223z" />
    <glyph glyph-name="n" unicode="n" horiz-adv-x="601" 
d="M538 333v-275l60 -24v-34h-264v34l46 24v223c0 58 -22.333 87 -67 87c-22 0 -47 -6 -75 -18v-292l46 -24v-34h-264v34l60 24v295l-60 47v30l188 42l24 -13l-7 -71l14 -2c60 55.333 117 83 171 83c40.667 0 72.167 -12.167 94.5 -36.5s33.5 -57.5 33.5 -99.5z" />
    <glyph glyph-name="o" unicode="o" horiz-adv-x="570" 
d="M540 227c0 -64.667 -23.333 -121.332 -70 -169.999s-110.334 -73 -191.001 -73c-81.333 0 -143.166 23.167 -185.499 69.5s-63.5 104.166 -63.5 173.499c0 64.667 23.333 121.167 70 169.5s110.334 72.5 191.001 72.5c81.333 0 143.166 -23.167 185.499 -69.5
s63.5 -103.833 63.5 -172.5zM373 227.002c0 126.667 -29.333 190 -88 190s-88 -63.333 -88 -190s29.333 -190 88 -190s88 63.333 88 190z" />
    <glyph glyph-name="p" unicode="p" horiz-adv-x="590" 
d="M557 240c0 -70.667 -24.167 -131 -72.5 -181s-113.166 -75 -194.499 -75c-20 0 -40.667 2 -62 6v-140l70 -24v-33h-288v33l60 24v502l-60 47v30l188 43l24 -13l-6 -57l14 -2c48.667 46 98.667 69 150 69c49.333 0 91.166 -21.333 125.499 -64s51.5 -97.667 51.5 -165z
M390 209c0 109.333 -35 164 -105 164c-15.333 0 -34.333 -2.66699 -57 -8v-280c20 -32.667 46.333 -49 79 -49c24 0 43.833 14.167 59.5 42.5s23.5 71.833 23.5 130.5z" />
    <glyph glyph-name="q" unicode="q" horiz-adv-x="585" 
d="M580 -207h-287v33l69 24v190l-14 2l-1 -1c-46 -38 -91.667 -57 -137 -57c-49.333 0 -91.166 21.333 -125.499 64s-51.5 97.667 -51.5 165c0 70.667 24.167 131 72.5 181s113.166 75 194.499 75c42 0 86.667 -6.66699 134 -20l51 47l35 -8v-638l60 -24v-33zM305 80
c15.333 0 34.333 2.66699 57 8v280c-20 32.667 -46.333 49 -79 49c-24 0 -43.833 -14.167 -59.5 -42.5s-23.5 -71.833 -23.5 -130.5c0 -109.333 35 -164 105 -164z" />
    <glyph glyph-name="r" unicode="r" horiz-adv-x="478" 
d="M466 382c0 -25.333 -7.83496 -46.833 -23.502 -64.5s-35.167 -26.5 -58.5 -26.5c-38 0 -64.333 20.333 -79 61c-25.333 -10.667 -47.666 -25.667 -66.999 -45v-249l69 -24v-34h-287v34l60 24v295l-60 47v30l188 42l24 -13l-13 -102l14 -2
c22 37.333 44.333 65.833 67 85.5s49.334 29.5 80.001 29.5c25.333 0 46 -8 62 -24s24 -37.333 24 -64z" />
    <glyph glyph-name="s" unicode="s" horiz-adv-x="445" 
d="M415 146c0 -49.333 -19 -88.665 -57 -117.998s-86 -44 -144 -44c-68.667 0 -126 9 -172 27l-3 137l35 2c33.333 -46 60.333 -77.333 81 -94s43 -25 67 -25c20 0 36.167 4.83301 48.5 14.5s18.5 23.167 18.5 40.5c0 19.333 -7.83301 34.666 -23.5 45.999
s-45.167 25.666 -88.5 42.999c-45.333 18 -79.5 37 -102.5 57s-34.5 49.333 -34.5 88c0 42 18 77.333 54 106s85 43 147 43c54 0 100.667 -6 140 -18l3 -124l-35 -4c-26 38 -47.667 64 -65 78s-36.333 21 -57 21c-20 0 -35.333 -5 -46 -15s-16 -22.667 -16 -38
c0 -17.333 6.5 -31 19.5 -41s37.5 -21.667 73.5 -35c56 -20.667 96.167 -41.167 120.5 -61.5s36.5 -48.833 36.5 -85.5z" />
    <glyph glyph-name="t" unicode="t" horiz-adv-x="403" 
d="M394 29c-18 -11.333 -45.167 -21.667 -81.5 -31s-69.833 -14 -100.5 -14c-87.333 0 -131 40.333 -131 121v273h-77v30l104 83l88 110h43v-147h152v-76h-152v-215c0 -41.333 9 -68.333 27 -81c16 -11.333 40.333 -17 73 -17c11.333 0 29 0.666992 53 2z" />
    <glyph glyph-name="u" unicode="u" horiz-adv-x="596" 
d="M521 101l60 -47v-30l-188 -42l-24 13l7 71l-14 2c-60 -55.333 -117 -83 -171 -83c-40.667 0 -72.167 12.167 -94.5 36.5s-33.5 57.5 -33.5 99.5v232l-59 47v30l193 42l24 -13v-286c0 -58 22.333 -87 67 -87c22 0 47 6 75 18v249l-59 47v30l193 42l24 -13v-358z" />
    <glyph glyph-name="v" unicode="v" horiz-adv-x="558" 
d="M228 397l96 -250h4l44 112l44 131l-53 33v31h204v-34l-63 -35l-176 -396h-99l-176 405l-60 26v34h295v-31z" />
    <glyph glyph-name="w" unicode="w" horiz-adv-x="822" 
d="M508 399l78 -250h5l86 243l-52 33v29h208v-34l-65 -35l-176 -396h-75l-99 251l-125 -251h-75l-159 405l-60 26v34h266v-29l-44 -26l81 -255h5l81 173l-32 82l-48 26v29h256v-29z" />
    <glyph glyph-name="x" unicode="x" horiz-adv-x="545" 
d="M305 282l75 120l-46 23v29h197v-34l-63 -27l-125 -150l145 -188l55 -21v-34h-282v29l55 21l-77 123l-83 -122l48 -22v-29h-194v34l59 27l130 153l-140 186l-55 20v34h279v-29l-52 -20z" />
    <glyph glyph-name="y" unicode="y" horiz-adv-x="553" 
d="M500 385l-174 -414.999c-27.333 -64.667 -56 -110.334 -86 -137.001s-66.667 -40 -110 -40c-31.333 0 -56 7 -74 21s-27 32 -27 54c0 19.333 7 35.5 21 48.5s31 19.5 51 19.5c33.333 0 61.333 -20 84 -60c20.667 18 38.667 40.333 54 67l11 19l-197 432l-60 26v34h296
v-31l-62 -29l97 -246h5l86 242l-54 33v31h200v-34z" />
    <glyph glyph-name="z" unicode="z" horiz-adv-x="501" 
d="M487 426l-287 -368h147l91 128l38 -6l-12 -180h-442l-9 29l287 367h-139l-83 -128l-38 6l9 180h429z" />
    <glyph glyph-name="braceleft" unicode="{" horiz-adv-x="405" 
d="M289 460c0 -52 -11.167 -90.999 -33.5 -116.999s-57.166 -43.333 -104.499 -52v-12c47.333 -8.66699 82.166 -25.834 104.499 -51.501s33.5 -64.5 33.5 -116.5v-89c0 -52 8.5 -88.5 25.5 -109.5s49.5 -36.833 97.5 -47.5v-41
c-98.667 5.33301 -167.667 22.166 -207 50.499s-59 74.5 -59 138.5v106c0 48.667 -9.33301 82.834 -28 102.501s-52.667 32.167 -102 37.5v53c49.333 5.33301 83.333 17.833 102 37.5s28 53.834 28 102.501v100c0 64 19.667 110.167 59 138.5s108.333 45.166 207 50.499v-41
c-48 -10.667 -80.5 -26.5 -97.5 -47.5s-25.5 -57.5 -25.5 -109.5v-83z" />
    <glyph glyph-name="bar" unicode="|" horiz-adv-x="300" 
d="M186 -241h-72l3 471l-3 471h72l-3 -471z" />
    <glyph glyph-name="braceright" unicode="}" horiz-adv-x="405" 
d="M259 452c0 -48.667 9.33301 -82.835 28 -102.502s52.667 -32.167 102 -37.5v-53c-49.333 -5.33301 -83.333 -17.833 -102 -37.5s-28 -53.834 -28 -102.501v-106c0 -64 -19.667 -110.167 -59 -138.5s-108.333 -45.166 -207 -50.499v41c48 10.667 80.5 26.5 97.5 47.5
s25.5 57.5 25.5 109.5v89c0 52 11.167 90.833 33.5 116.5s57.166 42.834 104.499 51.501v12c-47.333 8.66699 -82.166 26 -104.499 52s-33.5 65 -33.5 117v83c0 52 -8.5 88.5 -25.5 109.5s-49.5 36.833 -97.5 47.5v41c98.667 -5.33301 167.667 -22.166 207 -50.499
s59 -74.5 59 -138.5v-100z" />
    <glyph glyph-name="asciitilde" unicode="~" horiz-adv-x="431" 
d="M142 405c20.667 0 48.667 -8.33301 84 -25s59.666 -25 72.999 -25c10.667 0 19.334 4.16699 26.001 12.5s14 23.166 22 44.499l47 -6c-5.33301 -60 -16 -103 -32 -129s-40.333 -39 -73 -39c-20.667 0 -48.667 8.33301 -84 25s-59.666 25 -72.999 25
c-10.667 0 -19.334 -4.16699 -26.001 -12.5s-14 -23.166 -22 -44.499l-47 6c5.33301 60 16 103 32 129s40.333 39 73 39z" />
    <glyph glyph-name="nbspace" unicode="&#xa0;" horiz-adv-x="105" 
 />
    <glyph glyph-name="exclamdown" unicode="&#xa1;" horiz-adv-x="298" 
d="M242 348c0 -24 -9 -43.667 -27 -59s-40 -23 -66 -23s-48 7.66699 -66 23s-27 35 -27 59c0 24.667 9 44.667 27 60s40 23 66 23s48 -7.66699 66 -23s27 -35.333 27 -60zM126 206l46 -0.00195312c4 -18 10.5 -45.167 19.5 -81.5l20.5 -84.5l15.5 -69
c5.66699 -26 9.66699 -47.667 12 -65s3.5 -31.666 3.5 -42.999c0 -30 -8 -54 -24 -72s-39.333 -27 -70 -27s-54 9 -70 27s-24 42 -24 72c0 8 0.666992 17.667 2 29s3.5 25.333 6.5 42s5.83301 31.334 8.5 44.001l12 54.5c5.33301 23.667 9.5 41.5 12.5 53.5l15 61.5
c7 29 11.833 48.5 14.5 58.5z" />
    <glyph glyph-name="cent" unicode="&#xa2;" horiz-adv-x="510" 
d="M283 77c20 -4.66699 39.668 -7 59.001 -7c33.333 0 72 10 116 30l15 -29c-58 -54.667 -121.667 -83.667 -191 -87l-5 -98l-54 3l6 98c-53.333 9.33301 -98.833 34.5 -136.5 75.5s-56.5 91.167 -56.5 150.5c0 60.667 20.5 114.167 61.5 160.5s93.833 74.166 158.5 83.499
l5 88l53 -3l-5 -82c49.333 -2 89.5 -14.167 120.5 -36.5s46.5 -48.166 46.5 -77.499c0 -22 -6.16699 -39.833 -18.5 -53.5s-28.5 -20.5 -48.5 -20.5c-30 0 -50.667 11.833 -62 35.5s-13 56.167 -5 97.5c-16.667 1.33301 -30.334 1.33301 -41.001 0l-10 -170zM180.001 233
c0 -64.667 20 -110.001 60 -136.001l8 140l9 156c-51.333 -23.333 -77 -76.666 -77 -159.999z" />
    <glyph glyph-name="sterling" unicode="&#xa3;" horiz-adv-x="582" 
d="M461 346l0.00292969 -67h-131c0.666992 -3.33301 1 -8 1 -14c0 -32 -8.66699 -58.5 -26 -79.5s-45.333 -41.167 -84 -60.5l3 -11c6.66699 3.33301 38.167 4 94.5 2s85.5 -3 87.5 -3c27.333 0 47.5 6.33301 60.5 19s23.167 35 30.5 67l42 -2
c-4 -141.333 -53.333 -212 -148 -212c-32.667 0 -63.167 6.83301 -91.5 20.5s-60.166 34.167 -95.499 61.5c-34.667 -54.667 -72.334 -82 -113.001 -82c-22 0 -39.833 5.83301 -53.5 17.5s-20.5 27.167 -20.5 46.5c0 27.333 12.5 49 37.5 65s59.5 21.667 103.5 17
c12.667 25.333 19 53.333 19 84c0 20.667 -3.66699 42 -11 64h-134v67h110c-12.667 36.667 -19 65.334 -19 86.001c0 57.333 24.167 104.333 72.5 141s105.166 55 170.499 55c52.667 0 92.667 -9.5 120 -28.5s41 -40.5 41 -64.5c0 -18.667 -5.83301 -35 -17.5 -49
s-28.5 -21 -50.5 -21c-52.667 0 -88.334 37 -107.001 111c-21.333 -4 -38 -15.333 -50 -34s-18 -41.334 -18 -68.001c0 -12 1.16699 -24.5 3.5 -37.5s4.5 -23 6.5 -30s5.66699 -18 11 -33s8.66602 -24.167 9.99902 -27.5h146z" />
    <glyph glyph-name="currency" unicode="&#xa4;" horiz-adv-x="616" 
d="M98 331l-75.9971 0.000976562v60h86c18.667 72 54 129.5 106 172.5s115.667 64.5 191 64.5c53.333 0 96 -10.167 128 -30.5s48 -48.5 48 -84.5c0 -19.333 -7.16699 -35.166 -21.5 -47.499s-30.5 -18.5 -48.5 -18.5c-60 0 -90.333 41.333 -91 124c-6 2.66699 -14 4 -24 4
c-31.333 0 -61.5 -14.833 -90.5 -44.5s-46.833 -76.167 -53.5 -139.5h232v-60h-235v-2c0 -23.333 2 -45 6 -65h229v-60h-213c30 -77.333 87.667 -116 173 -116c40 0 80.667 9 122 27l15 -28c-24.667 -30.667 -54.834 -55.334 -90.501 -74.001s-74.167 -28 -115.5 -28
c-70.667 0 -129.834 19.667 -177.501 59s-78.834 92.666 -93.501 159.999h-82v60h75c-0.666992 4.66699 -1 12 -1 22s0.666992 25 2 45z" />
    <glyph glyph-name="yen" unicode="&#xa5;" horiz-adv-x="661" 
d="M77 323h150l-143 217l-75 35v37h340v-37l-84 -28l106 -196l110 190l-70 34v37h240v-37l-79 -39l-146 -213h155v-55h-173v-77h173v-55h-173v-68l103 -31v-37h-363v37l102 31v68h-173v55h173v77h-173v55z" />
    <glyph glyph-name="brokenbar" unicode="&#xa6;" horiz-adv-x="300" 
d="M186 289h-72l3 206l-3 206h72l-3 -206zM186 -241h-72l3 206l-3 206h72l-3 -206z" />
    <glyph glyph-name="section" unicode="&#xa7;" horiz-adv-x="562" 
d="M514 175c0 -80.667 -25.667 -146.334 -77 -197.001s-119 -76 -203 -76c-63.333 0 -110.833 9.66699 -142.5 29s-47.5 45 -47.5 77c0 19.333 6 35 18 47s27 18 45 18c22.667 0 40.5 -6.66699 53.5 -20s19.5 -32 19.5 -56c0 -4 -1.66699 -14.333 -5 -31
c20.667 -11.333 44.667 -17 72 -17c29.333 0 55 8.83301 77 26.5s38.333 42.167 49 73.5c-224 70.667 -336 187 -336 349c0 80.667 25.667 146.334 77 197.001s119 76 203 76c63.333 0 110.833 -9.66699 142.5 -29s47.5 -45 47.5 -77c0 -19.333 -6 -35 -18 -47
s-27 -18 -45 -18c-22.667 0 -40.5 6.66699 -53.5 20s-19.5 32 -19.5 56c0 4 1.66699 14.333 5 31c-20.667 11.333 -44.667 17 -72 17c-29.333 0 -55 -8.83301 -77 -26.5s-38.333 -42.167 -49 -73.5c224 -70.667 336 -187 336 -349zM166 442
c0 -64.667 16.167 -124.667 48.5 -180s88.5 -111.666 168.5 -168.999c1.33301 16 2 28.667 2 38c0 64.667 -16.167 124.667 -48.5 180s-88.5 111.666 -168.5 168.999c-1.33301 -16 -2 -28.667 -2 -38z" />
    <glyph glyph-name="dieresis" unicode="&#xa8;" horiz-adv-x="361" 
d="M283 523c-22.667 0 -41.5 7.66699 -56.5 23s-22.5 34.666 -22.5 57.999s8.33301 43.833 25 61.5s37.334 26.5 62.001 26.5c22.667 0 41.5 -7.66699 56.5 -23s22.5 -34.666 22.5 -57.999s-8.33301 -43.833 -25 -61.5s-37.334 -26.5 -62.001 -26.5zM62 523
c-23.333 0 -42.333 7.66699 -57 23s-22 34.666 -22 57.999s8.33301 43.833 25 61.5s37 26.5 61 26.5c23.333 0 42.333 -7.66699 57 -23s22 -34.666 22 -57.999s-8.33301 -43.833 -25 -61.5s-37 -26.5 -61 -26.5z" />
    <glyph glyph-name="copyright" unicode="&#xa9;" horiz-adv-x="788" 
d="M745 320c0 -97.333 -34.1689 -180.168 -102.502 -248.501s-151.166 -102.5 -248.499 -102.5c-96.667 0 -179.334 34.333 -248.001 103s-103 151.334 -103 248.001s34.333 179.167 103 247.5s151.334 102.5 248.001 102.5s179.334 -34.167 248.001 -102.5
s103 -150.833 103 -247.5zM701.998 319.998c0 85.333 -30.167 158.667 -90.5 220s-132.833 92 -217.5 92s-157 -30.5 -217 -91.5s-90 -134.5 -90 -220.5s30 -159.667 90 -221s132.333 -92 217 -92s157.167 30.667 217.5 92s90.5 135 90.5 221zM315.998 328.999
c0 -48.667 10.501 -86.334 31.501 -113.001s47.833 -40 80.5 -40c11.333 0 22 1.33301 32 4l64 91l28 -3l-10 -114c-40.667 -16 -84 -24 -130 -24c-64 0 -115.5 16.333 -154.5 49s-58.5 79.334 -58.5 140.001c0 55.333 19.167 102 57.5 140s88.166 57 149.499 57
c31.333 0 60.666 -5.66699 87.999 -17l16 20h30l8 -152l-35 -1c-18 40 -35.167 67.667 -51.5 83s-35.166 23 -56.499 23c-26.667 0 -48.167 -12.167 -64.5 -36.5s-24.5 -59.833 -24.5 -106.5z" />
    <glyph glyph-name="ordfeminine" unicode="&#xaa;" horiz-adv-x="420" 
d="M55 563c0 26.667 18.833 48.168 56.5 64.501s76.834 24.5 117.501 24.5c34 0 61 -8.33301 81 -25s30 -40.334 30 -71.001v-156c0 -16 3.16699 -28 9.5 -36s20.5 -13 42.5 -15l1 -26c-33.333 -8.66699 -62.333 -13 -87 -13c-34.667 0 -56 13.667 -64 41l-7 1
c-28.667 -27.333 -62.667 -41 -102 -41c-28 0 -50.833 7.83301 -68.5 23.5s-26.5 34.5 -26.5 56.5c0 32.667 16.833 58.5 50.5 77.5s83.167 28.5 148.5 28.5v43c0 21.333 -5.5 37.5 -16.5 48.5s-32.5 16.5 -64.5 16.5h-22c10 -12.667 15 -27 15 -43
c0 -12 -4.16699 -22.167 -12.5 -30.5s-19.5 -12.5 -33.5 -12.5c-14.667 0 -26.334 4.16699 -35.001 12.5s-13 18.833 -13 31.5zM146 409.001c0 -14.667 4.66797 -25.667 14.001 -33s20.666 -11 33.999 -11c18 0 32.333 4 43 12v92c-60.667 0 -91 -20 -91 -60z" />
    <glyph glyph-name="guillemotleft" unicode="&#xab;" horiz-adv-x="553" 
d="M404 224l93 -179l-33 -25l-207 189v30l207 189l33 -26zM177 224l93 -179l-33 -25l-207 189v30l207 189l33 -26z" />
    <glyph glyph-name="logicalnot" unicode="&#xac;" horiz-adv-x="520" 
d="M463 272h-405v70h405v-70z" />
    <glyph glyph-name="registered" unicode="&#xae;" horiz-adv-x="418" 
d="M209 287c-55.333 0 -100.833 17.5 -136.5 52.5s-53.5 80.167 -53.5 135.5s17.833 100.666 53.5 135.999s81.167 53 136.5 53s100.833 -17.667 136.5 -53s53.5 -80.666 53.5 -135.999s-17.833 -100.5 -53.5 -135.5s-81.167 -52.5 -136.5 -52.5zM209 312
c48 0 87 15.167 117 45.5s45 69.5 45 117.5s-15 87.333 -45 118s-69 46 -117 46s-87 -15.333 -117 -46s-45 -70 -45 -118s15 -87.167 45 -117.5s69 -45.5 117 -45.5zM300 527c0 -25.333 -18.3311 -41.332 -54.998 -47.999v-9c15.333 -2 26.166 -5.33301 32.499 -10
s11.166 -12.667 14.499 -24c4.66699 -16 8.66699 -25.667 12 -29c4.66699 -4.66699 10.667 -7.33398 18 -8.00098v-17h-42c-12.667 0 -21.667 2.5 -27 7.5s-10.333 14.5 -15 28.5l-8 25c-4.66699 13.333 -14.667 20 -30 20h-12v-57l27 -7v-17h-109v17l29 7v146l-29 7v17h116
c52 0 78 -16.333 78 -49zM244.002 519.001c0 11.333 -3.16699 19.333 -9.5 24s-16.5 7.66699 -30.5 9l-17 1v-68h19c25.333 0 38 11.333 38 34z" />
    <glyph glyph-name="macron" unicode="&#xaf;" horiz-adv-x="320" 
d="M318 641v-102h-316v102h316z" />
    <glyph glyph-name="degree" unicode="&#xb0;" horiz-adv-x="414" 
d="M376 493c0 -43.333 -15.166 -81.001 -45.499 -113.001s-72.5 -48 -126.5 -48c-53.333 0 -94.333 15.333 -123 46s-43 68.667 -43 114c0 43.333 15.333 80.833 46 112.5s73 47.5 127 47.5c53.333 0 94.166 -15.167 122.499 -45.5s42.5 -68.166 42.5 -113.499z
M273.001 492.999c0 37.333 -5.83301 66.332 -17.5 86.999s-28.167 31 -49.5 31c-20.667 0 -36.667 -10.667 -48 -32s-17 -50.666 -17 -87.999c0 -36.667 6 -65.5 18 -86.5s28.333 -31.5 49 -31.5c43.333 0 65 40 65 120z" />
    <glyph glyph-name="plusminus" unicode="&#xb1;" horiz-adv-x="500" 
d="M25 -200v1000h450v-1000h-450z" />
    <glyph glyph-name="twosuperior" unicode="&#xb2;" horiz-adv-x="390" 
d="M108 279l5.00293 -15.998l169 2l53 69l23 -5l-25 -156h-291l-13 95c47.333 35.333 86.666 68.666 117.999 99.999c49.333 49.333 74 93.333 74 132c0 18 -5.33301 32.167 -16 42.5s-25.334 15.5 -44.001 15.5c-36.667 0 -71.667 -24.333 -105 -73l-27 14
c38.667 98 98.667 147 180 147c39.333 0 70.666 -12.167 93.999 -36.5s35 -53.166 35 -86.499c0 -44.667 -17.167 -84.334 -51.5 -119.001s-93.833 -76.334 -178.5 -125.001z" />
    <glyph glyph-name="threesuperior" unicode="&#xb3;" horiz-adv-x="390" 
d="M107 376l-0.000976562 47.999c48 16.667 79.667 31.834 95 45.501s23 30.5 23 50.5c0 14 -5.66699 25.833 -17 35.5s-26.666 14.5 -45.999 14.5c-33.333 0 -66.666 -17.667 -99.999 -53l-27 21c17.333 33.333 41 59.666 71 78.999s63.667 29 101 29
c40.667 0 73.5 -9.5 98.5 -28.5s37.5 -43.167 37.5 -72.5c0 -25.333 -7.83301 -46.166 -23.5 -62.499s-41.834 -30.166 -78.501 -41.499v-14c79.333 -18.667 119 -59.334 119 -122.001c0 -44 -17 -79.5 -51 -106.5s-76.667 -40.5 -128 -40.5c-50 0 -89 7.66699 -117 23
s-42 36.333 -42 63c0 16.667 6 30.5 18 41.5s25.667 16.5 41 16.5c22.667 0 38.667 -8.5 48 -25.5s11.666 -38.833 6.99902 -65.5c12.667 -5.33301 25.334 -8 38.001 -8c22 0 39 6.66699 51 20s18 31 18 53c0 25.333 -10.167 46 -30.5 62s-55.5 28.667 -105.5 38z" />
    <glyph glyph-name="acute" unicode="&#xb4;" horiz-adv-x="238" 
d="M188 739c18.667 -12 28.8301 -28.167 30.4971 -48.5s-5.16602 -40.833 -20.499 -61.5c-20.667 -28.667 -65.667 -68 -135 -118l-31 21c21.333 92.667 38 149.667 50 171c12.667 21.333 28.834 35.5 48.501 42.5s38.834 4.83301 57.501 -6.5z" />
    <glyph glyph-name="mu" unicode="&#xb5;" horiz-adv-x="520" 
d="M304 305l138 -141l-47 -45l-135 140l-135 -140l-47 45l138 141l-138 141l47 45l135 -140l135 140l47 -45z" />
    <glyph glyph-name="paragraph" unicode="&#xb6;" horiz-adv-x="675" 
d="M326 177c-88 2 -158.168 21.333 -210.501 58s-78.5 90.667 -78.5 162c0 70 25.833 124.167 77.5 162.5s123.834 57.5 216.501 57.5h319v-37l-85 -36v-644h-78v648h-83v-648h-78v277zM325.999 249v300c-42 0 -74.167 -12.5 -96.5 -37.5s-33.5 -60.833 -33.5 -107.5
c0 -95.333 43.333 -147 130 -155z" />
    <glyph glyph-name="periodcentered" unicode="&#xb7;" horiz-adv-x="250" 
d="M216 318c0 -25.333 -9 -46.833 -27 -64.5s-39.333 -26.5 -64 -26.5s-46 8.83301 -64 26.5s-27 39.167 -27 64.5s9 46.833 27 64.5s39.333 26.5 64 26.5s46 -8.83301 64 -26.5s27 -39.167 27 -64.5z" />
    <glyph glyph-name="cedilla" unicode="&#xb8;" horiz-adv-x="282" 
d="M192 -162c0 -32 -12.0029 -58.001 -36.0029 -78.001s-54.667 -30 -92 -30c-32 0 -58 5 -78 15s-30 24 -30 42c0 10.667 3.33301 19.667 10 27s15.334 11 26.001 11s19.334 -4 26.001 -12s10 -17 10 -27c0 -6.66699 -1 -13.334 -3 -20.001c7.33301 -3.33301 17 -5 29 -5
c14.667 0 27.334 4.33301 38.001 13s16 22.334 16 41.001s-6.16699 33 -18.5 43s-28.833 15 -49.5 15c-6.66699 0 -15.667 -1 -27 -3l-20 20l189 157l23 -26l-108 -89c28 -4.66699 50.833 -15.167 68.5 -31.5s26.5 -37.166 26.5 -62.499z" />
    <glyph glyph-name="onesuperior" unicode="&#xb9;" horiz-adv-x="390" 
d="M271 234l92 -36v-25h-314v25l95 36v329l-90 40v24l192 25l25 -14v-404z" />
    <glyph glyph-name="ordmasculine" unicode="&#xba;" horiz-adv-x="420" 
d="M391 481c0 -48 -17.667 -88.333 -53 -121s-79.666 -49 -132.999 -49s-96 15.833 -128 47.5s-48 72.834 -48 123.501c0 48 17.5 88.333 52.5 121s79.167 49 132.5 49s96.166 -15.833 128.499 -47.5s48.5 -72.834 48.5 -123.501zM275 481c0 88 -21.667 132 -65 132
c-44 0 -66 -43.333 -66 -130c0 -88 21.667 -132 65 -132c44 0 66 43.333 66 130z" />
    <glyph glyph-name="guillemotright" unicode="&#xbb;" horiz-adv-x="553" 
d="M523 209l-207 -189l-33 26l93 178l-93 179l33 25l207 -189v-30zM296 209l-207 -189l-33 26l93 178l-93 179l33 25l207 -189v-30z" />
    <glyph glyph-name="onequarter" unicode="&#xbc;" horiz-adv-x="1040" 
d="M271 234l92 -36v-25h-314v25l95 36v329l-90 40v24l192 25l25 -14v-404zM822 630l-259 -373l-252 -379l-56 41l259 373l252 379zM626 120l168 273l132 -7v-265h71v-71h-71v-68l56 -29v-30h-251v30l76 29v70h-162zM812 117v186h-21l-100 -186h121z" />
    <glyph glyph-name="onehalf" unicode="&#xbd;" horiz-adv-x="1040" 
d="M271 234l92 -36v-25h-314v25l95 36v329l-90 40v24l192 25l25 -14v-404zM817 630l-259 -373l-252 -379l-56 41l259 373l252 379zM748 29l5.00293 -15.998l169 2l53 69l23 -5l-25 -156h-291l-13 95c47.333 35.333 86.666 68.666 117.999 99.999
c49.333 49.333 74 93.333 74 132c0 18 -5.33301 32.167 -16 42.5s-25.334 15.5 -44.001 15.5c-36.667 0 -71.667 -24.333 -105 -73l-27 14c38.667 98 98.667 147 180 147c39.333 0 70.666 -12.167 93.999 -36.5s35 -53.166 35 -86.499
c0 -44.667 -17.167 -84.334 -51.5 -119.001s-93.833 -76.334 -178.5 -125.001z" />
    <glyph glyph-name="threequarters" unicode="&#xbe;" horiz-adv-x="1040" 
d="M137 376l-0.000976562 47.999c48 16.667 79.667 31.834 95 45.501s23 30.5 23 50.5c0 14 -5.66699 25.833 -17 35.5s-26.666 14.5 -45.999 14.5c-33.333 0 -66.666 -17.667 -99.999 -53l-27 21c17.333 33.333 41 59.666 71 78.999s63.667 29 101 29
c40.667 0 73.5 -9.5 98.5 -28.5s37.5 -43.167 37.5 -72.5c0 -25.333 -7.83301 -46.166 -23.5 -62.499s-41.834 -30.166 -78.501 -41.499v-14c79.333 -18.667 119 -59.334 119 -122.001c0 -44 -17 -79.5 -51 -106.5s-76.667 -40.5 -128 -40.5c-50 0 -89 7.66699 -117 23
s-42 36.333 -42 63c0 16.667 6 30.5 18 41.5s25.667 16.5 41 16.5c22.667 0 38.667 -8.5 48 -25.5s11.666 -38.833 6.99902 -65.5c12.667 -5.33301 25.334 -8 38.001 -8c22 0 39 6.66699 51 20s18 31 18 53c0 25.333 -10.167 46 -30.5 62s-55.5 28.667 -105.5 38z
M826.999 629.999l-259 -373l-252 -379l-56 41l259 373l252 379zM625.999 119.999l168 273l132 -7v-265h71v-71h-71v-68l56 -29v-30h-251v30l76 29v70h-162zM811.999 116.999v186h-21l-100 -186h121z" />
    <glyph glyph-name="questiondown" unicode="&#xbf;" horiz-adv-x="457" 
d="M182 348c0 24.667 9 44.667 27 60s40 23 66 23s48 -7.66699 66 -23s27 -35.333 27 -60c0 -24 -9 -43.667 -27 -59s-40 -23 -66 -23s-48 7.66699 -66 23s-27 35 -27 59zM25 -55c0 37.333 9.66602 67.667 28.999 91s50.333 46.333 93 69c39.333 21.333 65 38.833 77 52.5
s18 29.834 18 48.501h66c22 -43.333 33 -76.333 33 -99c0 -33.333 -29.333 -69.333 -88 -108c-29.333 -19.333 -49.166 -35.5 -59.499 -48.5s-15.5 -28.833 -15.5 -47.5c0 -22.667 8.16699 -41.334 24.5 -56.001s37.166 -22 62.499 -22c16.667 0 33 2.66699 49 8
c-6.66699 18 -10 37.333 -10 58c0 22.667 7.33301 42.167 22 58.5s33 24.5 55 24.5c23.333 0 43 -7.83301 59 -23.5s24 -34.834 24 -57.501c0 -35.333 -19.167 -65.666 -57.5 -90.999s-90.166 -38 -155.499 -38c-63.333 0 -116.833 17.167 -160.5 51.5
s-65.5 77.5 -65.5 129.5z" />
    <glyph glyph-name="Agrave" unicode="&#xc0;" horiz-adv-x="731" 
d="M394 718l-31.0039 -21.001c-69.333 50 -114.333 89.333 -135 118c-15.333 20.667 -22.166 41.334 -20.499 62.001s11.834 36.667 30.501 48s37.834 13.5 57.501 6.5s35.834 -21.167 48.501 -42.5c12 -21.333 28.667 -78.333 50 -171zM650.996 65.999l77 -29v-37h-334v32
l74 24l-49 139h-213l-46 -133l62 -30v-32h-224v37l76 33l227 573h132zM398.996 250.999l-83 237h-10l-81 -237h174z" />
    <glyph glyph-name="Aacute" unicode="&#xc1;" horiz-adv-x="731" 
d="M478 925c18.667 -12 28.8301 -28.167 30.4971 -48.5s-5.16602 -40.833 -20.499 -61.5c-20.667 -28.667 -65.667 -68 -135 -118l-31 21c21.333 92.667 38 149.667 50 171c12.667 21.333 28.834 35.5 48.501 42.5s38.834 4.83301 57.501 -6.5zM650.996 66l77 -29v-37h-334
v32l74 24l-49 139h-213l-46 -133l62 -30v-32h-224v37l76 33l227 573h132zM398.996 251l-83 237h-10l-81 -237h174z" />
    <glyph glyph-name="Acircumflex" unicode="&#xc2;" horiz-adv-x="731" 
d="M361 777l-128 -99l-30 28l121 198h81l114 -198l-30 -28zM651 66l77 -29v-37h-334v32l74 24l-49 139h-213l-46 -133l62 -30v-32h-224v37l76 33l227 573h132zM399 251l-83 237h-10l-81 -237h174z" />
    <glyph glyph-name="Atilde" unicode="&#xc3;" horiz-adv-x="731" 
d="M190 710c5.33301 60 16 103 32 129s40.333 39 73 39c20.667 0 48.667 -8.33301 84 -25s59.666 -25 72.999 -25c10.667 0 19.334 4.16699 26.001 12.5s14 23.166 22 44.499l47 -6c-5.33301 -60 -16 -103 -32 -129s-40.333 -39 -73 -39c-20.667 0 -48.667 8.33301 -84 25
s-59.666 25 -72.999 25c-10.667 0 -19.334 -4.16699 -26.001 -12.5s-14 -23.166 -22 -44.499zM651 66l77 -29v-37h-334v32l74 24l-49 139h-213l-46 -133l62 -30v-32h-224v37l76 33l227 573h132zM399 251l-83 237h-10l-81 -237h174z" />
    <glyph glyph-name="Adieresis" unicode="&#xc4;" horiz-adv-x="731" 
d="M481 709c-22.667 0 -41.5 7.66699 -56.5 23s-22.5 34.666 -22.5 57.999s8.33301 43.833 25 61.5s37.334 26.5 62.001 26.5c22.667 0 41.5 -7.66699 56.5 -23s22.5 -34.666 22.5 -57.999s-8.33301 -43.833 -25 -61.5s-37.334 -26.5 -62.001 -26.5zM260 709
c-23.333 0 -42.333 7.66699 -57 23s-22 34.666 -22 57.999s8.33301 43.833 25 61.5s37 26.5 61 26.5c23.333 0 42.333 -7.66699 57 -23s22 -34.666 22 -57.999s-8.33301 -43.833 -25 -61.5s-37 -26.5 -61 -26.5zM651 66l77 -29v-37h-334v32l74 24l-49 139h-213l-46 -133
l62 -30v-32h-224v37l76 33l227 573h132zM399 251l-83 237h-10l-81 -237h174z" />
    <glyph glyph-name="Aring" unicode="&#xc5;" horiz-adv-x="731" 
d="M651 66l77 -29v-37h-334v32l74 24l-49 139h-213l-46 -133l62 -30v-32h-224v37l76 33l218 550c-35.333 20.667 -53 51.667 -53 93c0 30.667 12 56.5 36 77.5s54.667 31.5 92 31.5c36.667 0 66.167 -10 88.5 -30s33.5 -46 33.5 -78c0 -38 -16.333 -67.667 -49 -89zM313 712
c0 -23.333 5 -41.5 15 -54.5s22.333 -19.5 37 -19.5c15.333 0 27.5 6.66699 36.5 20s13.5 32 13.5 56c0 23.333 -4.83301 41.5 -14.5 54.5s-22.167 19.5 -37.5 19.5c-14.667 0 -26.667 -6.66699 -36 -20s-14 -32 -14 -56zM306 488l-81 -237h174l-83 237h-10z" />
    <glyph glyph-name="AE" unicode="&#xc6;" horiz-adv-x="1009" 
d="M233 220l-85 -153l67 -35v-32h-243v37l73 33l305 506l-98 24v37h685l14 -215l-29 -5l-70 90c-20.667 26.667 -39.334 45 -56.001 55s-41 15.667 -73 17l-91 4v-239h36c25.333 0 42.833 4.33301 52.5 13s20.834 30.334 33.501 65.001l12 32h31v-271h-32l-11 29
c-12.667 33.333 -24.167 54.666 -34.5 63.999s-27.5 14 -51.5 14h-36v-235l123 6c28 1.33301 50.333 7 67 17s34.667 26.333 54 49l72 84l29 -4l-19 -207h-593v37l87 24v159h-219zM452 276v302h-20l-168 -302h188z" />
    <glyph glyph-name="Ccedilla" unicode="&#xc7;" horiz-adv-x="705" 
d="M240 329c0 -89.333 18.1611 -158.502 54.4941 -207.502s84.5 -73.5 144.5 -73.5c18.667 0 38.667 3 60 9l119 158l35 -4l-21 -186c-55.333 -22 -117.666 -35 -186.999 -39l-66 -54c28 -4.66699 50.833 -15.167 68.5 -31.5s26.5 -37.166 26.5 -62.499
c0 -32 -12 -58 -36 -78s-54.667 -30 -92 -30c-32 0 -58 5 -78 15s-30 24 -30 42c0 10.667 3.33301 19.667 10 27s15.334 11 26.001 11s19.334 -4 26.001 -12s10 -17 10 -27c0 -6.66699 -1 -13.334 -3 -20.001c7.33301 -3.33301 17 -5 29 -5
c14.667 0 27.334 4.33301 38.001 13s16 22.334 16 41.001s-6.16699 33 -18.5 43s-28.833 15 -49.5 15c-6.66699 0 -15.667 -1 -27 -3l-20 20l115 95c-103.333 2.66699 -186.666 32.334 -249.999 89.001s-95 136 -95 238c0 94.667 33.333 175 100 241s152.334 99 257.001 99
c59.333 0 112 -10.333 158 -31l34 34h34l14 -262l-45 -2c-34.667 76.667 -67 129.667 -97 159s-64.333 44 -103 44c-47.333 0 -85.333 -22.5 -114 -67.5s-43 -110.833 -43 -197.5z" />
    <glyph glyph-name="Egrave" unicode="&#xc8;" horiz-adv-x="672" 
d="M398 718l-31.0039 -21.001c-69.333 50 -114.333 89.333 -135 118c-15.333 20.667 -22.166 41.334 -20.499 62.001s11.834 36.667 30.501 48s37.834 13.5 57.501 6.5s35.834 -21.167 48.501 -42.5c12 -21.333 28.667 -78.333 50 -171zM599.996 636.999l14 -215l-29 -5
l-70 90c-20.667 26.667 -39.334 45 -56.001 55s-41 15.667 -73 17l-91 4v-239h36c25.333 0 42.833 4.33301 52.5 13s20.834 30.334 33.501 65.001l12 32h31v-271h-32l-11 29c-12.667 33.333 -24.167 54.666 -34.5 63.999s-27.5 14 -51.5 14h-36v-235l123 6
c28 1.33301 50.333 7 67 17s34.667 26.333 54 49l72 84l29 -4l-19 -207h-593v37l87 24v515l-87 24v37h572z" />
    <glyph glyph-name="Eacute" unicode="&#xc9;" horiz-adv-x="672" 
d="M447 925c18.667 -12 28.8301 -28.167 30.4971 -48.5s-5.16602 -40.833 -20.499 -61.5c-20.667 -28.667 -65.667 -68 -135 -118l-31 21c21.333 92.667 38 149.667 50 171c12.667 21.333 28.834 35.5 48.501 42.5s38.834 4.83301 57.501 -6.5zM599.996 637l14 -215l-29 -5
l-70 90c-20.667 26.667 -39.334 45 -56.001 55s-41 15.667 -73 17l-91 4v-239h36c25.333 0 42.833 4.33301 52.5 13s20.834 30.334 33.501 65.001l12 32h31v-271h-32l-11 29c-12.667 33.333 -24.167 54.666 -34.5 63.999s-27.5 14 -51.5 14h-36v-235l123 6
c28 1.33301 50.333 7 67 17s34.667 26.333 54 49l72 84l29 -4l-19 -207h-593v37l87 24v515l-87 24v37h572z" />
    <glyph glyph-name="Ecircumflex" unicode="&#xca;" horiz-adv-x="672" 
d="M346 795l-128 -99l-30 28l121 198h81l114 -198l-30 -28zM600 637l14 -215l-29 -5l-70 90c-20.667 26.667 -39.334 45 -56.001 55s-41 15.667 -73 17l-91 4v-239h36c25.333 0 42.833 4.33301 52.5 13s20.834 30.334 33.501 65.001l12 32h31v-271h-32l-11 29
c-12.667 33.333 -24.167 54.666 -34.5 63.999s-27.5 14 -51.5 14h-36v-235l123 6c28 1.33301 50.333 7 67 17s34.667 26.333 54 49l72 84l29 -4l-19 -207h-593v37l87 24v515l-87 24v37h572z" />
    <glyph glyph-name="Edieresis" unicode="&#xcb;" horiz-adv-x="672" 
d="M450 709c-22.667 0 -41.5 7.66699 -56.5 23s-22.5 34.666 -22.5 57.999s8.33301 43.833 25 61.5s37.334 26.5 62.001 26.5c22.667 0 41.5 -7.66699 56.5 -23s22.5 -34.666 22.5 -57.999s-8.33301 -43.833 -25 -61.5s-37.334 -26.5 -62.001 -26.5zM229 709
c-23.333 0 -42.333 7.66699 -57 23s-22 34.666 -22 57.999s8.33301 43.833 25 61.5s37 26.5 61 26.5c23.333 0 42.333 -7.66699 57 -23s22 -34.666 22 -57.999s-8.33301 -43.833 -25 -61.5s-37 -26.5 -61 -26.5zM600 637l14 -215l-29 -5l-70 90
c-20.667 26.667 -39.334 45 -56.001 55s-41 15.667 -73 17l-91 4v-239h36c25.333 0 42.833 4.33301 52.5 13s20.834 30.334 33.501 65.001l12 32h31v-271h-32l-11 29c-12.667 33.333 -24.167 54.666 -34.5 63.999s-27.5 14 -51.5 14h-36v-235l123 6
c28 1.33301 50.333 7 67 17s34.667 26.333 54 49l72 84l29 -4l-19 -207h-593v37l87 24v515l-87 24v37h572z" />
    <glyph glyph-name="Igrave" unicode="&#xcc;" horiz-adv-x="430" 
d="M273 718l-31.0039 -21.001c-69.333 50 -114.333 89.333 -135 118c-15.333 20.667 -22.166 41.334 -20.499 62.001s11.834 36.667 30.501 48s37.834 13.5 57.501 6.5s35.834 -21.167 48.501 -42.5c12 -21.333 28.667 -78.333 50 -171zM304.996 60.999l86 -24v-37h-353v37
l87 24v515l-87 24v37h353v-37l-86 -24v-515z" />
    <glyph glyph-name="Iacute" unicode="&#xcd;" horiz-adv-x="430" 
d="M320 925c18.667 -12 28.8301 -28.167 30.4971 -48.5s-5.16602 -40.833 -20.499 -61.5c-20.667 -28.667 -65.667 -68 -135 -118l-31 21c21.333 92.667 38 149.667 50 171c12.667 21.333 28.834 35.5 48.501 42.5s38.834 4.83301 57.501 -6.5zM304.996 61l86 -24v-37h-353
v37l87 24v515l-87 24v37h353v-37l-86 -24v-515z" />
    <glyph glyph-name="Icircumflex" unicode="&#xce;" horiz-adv-x="430" 
d="M217 797l-128 -99l-30 28l121 198h81l114 -198l-30 -28zM305 61l86 -24v-37h-353v37l87 24v515l-87 24v37h353v-37l-86 -24v-515z" />
    <glyph glyph-name="Idieresis" unicode="&#xcf;" horiz-adv-x="430" 
d="M325 709c-22.667 0 -41.5 7.66699 -56.5 23s-22.5 34.666 -22.5 57.999s8.33301 43.833 25 61.5s37.334 26.5 62.001 26.5c22.667 0 41.5 -7.66699 56.5 -23s22.5 -34.666 22.5 -57.999s-8.33301 -43.833 -25 -61.5s-37.334 -26.5 -62.001 -26.5zM104 709
c-23.333 0 -42.333 7.66699 -57 23s-22 34.666 -22 57.999s8.33301 43.833 25 61.5s37 26.5 61 26.5c23.333 0 42.333 -7.66699 57 -23s22 -34.666 22 -57.999s-8.33301 -43.833 -25 -61.5s-37 -26.5 -61 -26.5zM305 61l86 -24v-37h-353v37l87 24v515l-87 24v37h353v-37
l-86 -24v-515z" />
    <glyph glyph-name="Eth" unicode="&#xd0;" horiz-adv-x="773" 
d="M728 327c0 -100.667 -34.499 -180.333 -103.499 -239s-160.833 -88 -275.5 -88h-316v37l89 24v237h-87v65h87v213l-89 24v37h323c113.333 0 203.666 -27.833 270.999 -83.5s101 -131.167 101 -226.5zM533.001 319.001c0 166 -66.333 253.002 -199 261.002l-36 2v-219h118
v-65h-118v-242l56 3c58.667 3.33301 103.167 24.666 133.5 63.999s45.5 104.666 45.5 195.999z" />
    <glyph glyph-name="Ntilde" unicode="&#xd1;" horiz-adv-x="795" 
d="M238 710c5.33301 60 16 103 32 129s40.333 39 73 39c20.667 0 48.667 -8.33301 84 -25s59.666 -25 72.999 -25c10.667 0 19.334 4.16699 26.001 12.5s14 23.166 22 44.499l47 -6c-5.33301 -60 -16 -103 -32 -129s-40.333 -39 -73 -39c-20.667 0 -48.667 8.33301 -84 25
s-59.666 25 -72.999 25c-10.667 0 -19.334 -4.16699 -26.001 -12.5s-14 -23.166 -22 -44.499zM120 73v494l-79 33v37h280l69 -104l197 -290h12v321l-85 36v37h256v-37l-85 -36v-570h-139l-70 104l-258 366h-12v-391l85 -36v-37h-256v37z" />
    <glyph glyph-name="Ograve" unicode="&#xd2;" horiz-adv-x="762" 
d="M407 723l-31.0039 -21.001c-69.333 50 -114.333 89.333 -135 118c-15.333 20.667 -22.166 41.334 -20.499 62.001s11.834 36.667 30.501 48s37.834 13.5 57.501 6.5s35.834 -21.167 48.501 -42.5c12 -21.333 28.667 -78.333 50 -171zM716.996 318.999
c0 -94.667 -30.168 -174 -90.501 -238s-143.166 -96 -248.499 -96c-108 0 -190.5 31.5 -247.5 94.5s-85.5 142.833 -85.5 239.5c0 94 30.167 173 90.5 237s143.166 96 248.499 96c108.667 0 191.334 -31.5 248.001 -94.5s85 -142.5 85 -238.5zM522.995 318.999
c0 91.333 -13.334 161 -40.001 209s-63 72 -109 72c-44 0 -77.5 -21.667 -100.5 -65s-34.5 -115.333 -34.5 -216s12.833 -172.667 38.5 -216s62.5 -65 110.5 -65c42.667 0 75.834 23.833 99.501 71.5s35.5 117.5 35.5 209.5z" />
    <glyph glyph-name="Oacute" unicode="&#xd3;" horiz-adv-x="762" 
d="M506 930c18.667 -12 28.8301 -28.167 30.4971 -48.5s-5.16602 -40.833 -20.499 -61.5c-20.667 -28.667 -65.667 -68 -135 -118l-31 21c21.333 92.667 38 149.667 50 171c12.667 21.333 28.834 35.5 48.501 42.5s38.834 4.83301 57.501 -6.5zM716.996 319
c0 -94.667 -30.168 -174 -90.501 -238s-143.166 -96 -248.499 -96c-108 0 -190.5 31.5 -247.5 94.5s-85.5 142.833 -85.5 239.5c0 94 30.167 173 90.5 237s143.166 96 248.499 96c108.667 0 191.334 -31.5 248.001 -94.5s85 -142.5 85 -238.5zM522.995 319
c0 91.333 -13.334 161 -40.001 209s-63 72 -109 72c-44 0 -77.5 -21.667 -100.5 -65s-34.5 -115.333 -34.5 -216s12.833 -172.667 38.5 -216s62.5 -65 110.5 -65c42.667 0 75.834 23.833 99.501 71.5s35.5 117.5 35.5 209.5z" />
    <glyph glyph-name="Ocircumflex" unicode="&#xd4;" horiz-adv-x="762" 
d="M383 797l-128 -99l-30 28l121 198h81l114 -198l-30 -28zM717 319c0 -94.667 -30.168 -174 -90.501 -238s-143.166 -96 -248.499 -96c-108 0 -190.5 31.5 -247.5 94.5s-85.5 142.833 -85.5 239.5c0 94 30.167 173 90.5 237s143.166 96 248.499 96
c108.667 0 191.334 -31.5 248.001 -94.5s85 -142.5 85 -238.5zM522.999 319c0 91.333 -13.334 161 -40.001 209s-63 72 -109 72c-44 0 -77.5 -21.667 -100.5 -65s-34.5 -115.333 -34.5 -216s12.833 -172.667 38.5 -216s62.5 -65 110.5 -65
c42.667 0 75.834 23.833 99.501 71.5s35.5 117.5 35.5 209.5z" />
    <glyph glyph-name="Otilde" unicode="&#xd5;" horiz-adv-x="762" 
d="M206 710c5.33301 60 16 103 32 129s40.333 39 73 39c20.667 0 48.667 -8.33301 84 -25s59.666 -25 72.999 -25c10.667 0 19.334 4.16699 26.001 12.5s14 23.166 22 44.499l47 -6c-5.33301 -60 -16 -103 -32 -129s-40.333 -39 -73 -39c-20.667 0 -48.667 8.33301 -84 25
s-59.666 25 -72.999 25c-10.667 0 -19.334 -4.16699 -26.001 -12.5s-14 -23.166 -22 -44.499zM717 319c0 -94.667 -30.168 -174 -90.501 -238s-143.166 -96 -248.499 -96c-108 0 -190.5 31.5 -247.5 94.5s-85.5 142.833 -85.5 239.5c0 94 30.167 173 90.5 237
s143.166 96 248.499 96c108.667 0 191.334 -31.5 248.001 -94.5s85 -142.5 85 -238.5zM522.999 319c0 91.333 -13.334 161 -40.001 209s-63 72 -109 72c-44 0 -77.5 -21.667 -100.5 -65s-34.5 -115.333 -34.5 -216s12.833 -172.667 38.5 -216s62.5 -65 110.5 -65
c42.667 0 75.834 23.833 99.501 71.5s35.5 117.5 35.5 209.5z" />
    <glyph glyph-name="Odieresis" unicode="&#xd6;" horiz-adv-x="762" 
d="M494 709c-22.667 0 -41.5 7.66699 -56.5 23s-22.5 34.666 -22.5 57.999s8.33301 43.833 25 61.5s37.334 26.5 62.001 26.5c22.667 0 41.5 -7.66699 56.5 -23s22.5 -34.666 22.5 -57.999s-8.33301 -43.833 -25 -61.5s-37.334 -26.5 -62.001 -26.5zM273 709
c-23.333 0 -42.333 7.66699 -57 23s-22 34.666 -22 57.999s8.33301 43.833 25 61.5s37 26.5 61 26.5c23.333 0 42.333 -7.66699 57 -23s22 -34.666 22 -57.999s-8.33301 -43.833 -25 -61.5s-37 -26.5 -61 -26.5zM717 319c0 -94.667 -30.168 -174 -90.501 -238
s-143.166 -96 -248.499 -96c-108 0 -190.5 31.5 -247.5 94.5s-85.5 142.833 -85.5 239.5c0 94 30.167 173 90.5 237s143.166 96 248.499 96c108.667 0 191.334 -31.5 248.001 -94.5s85 -142.5 85 -238.5zM522.999 319c0 91.333 -13.334 161 -40.001 209s-63 72 -109 72
c-44 0 -77.5 -21.667 -100.5 -65s-34.5 -115.333 -34.5 -216s12.833 -172.667 38.5 -216s62.5 -65 110.5 -65c42.667 0 75.834 23.833 99.501 71.5s35.5 117.5 35.5 209.5z" />
    <glyph glyph-name="multiply" unicode="&#xd7;" horiz-adv-x="520" 
d="M304 305l138 -141l-47 -45l-135 140l-135 -140l-47 45l138 141l-138 141l47 45l135 -140l135 140l47 -45z" />
    <glyph glyph-name="Oslash" unicode="&#xd8;" horiz-adv-x="762" 
d="M717 319c0 -94.667 -30.167 -173.999 -90.5 -237.999s-143.166 -96 -248.499 -96c-79.333 0 -147.333 20.333 -204 61l-69 -78l-43 31l73 81c-60 63.333 -90 143 -90 239c0 94 30.167 173 90.5 237s143.166 96 248.499 96c80 0 148 -20.667 204 -62l70 79l43 -32l-73 -82
c59.333 -62.667 89 -141.334 89 -236.001zM245 196.001l253 302c-26 68 -67.333 102 -124 102c-92 0 -138 -93.667 -138 -281c0 -47.333 3 -88.333 9 -123zM516 437.001l-255.001 -303c24 -64 66.333 -96 127 -96c42.667 0 76.334 24 101.001 72s37 117.667 37 209
c0 40.667 -3.33301 80 -10 118z" />
    <glyph glyph-name="Ugrave" unicode="&#xd9;" horiz-adv-x="759" 
d="M470 718l-31.0039 -21.001c-69.333 50 -114.333 89.333 -135 118c-15.333 20.667 -22.166 41.334 -20.499 62.001s11.834 36.667 30.501 48s37.834 13.5 57.501 6.5s35.834 -21.167 48.501 -42.5c12 -21.333 28.667 -78.333 50 -171zM574.996 566.999l-72 33v37h238v-37
l-78 -33v-341c0 -75.333 -23.333 -134.333 -70 -177s-111.667 -64 -195 -64c-195.333 0 -293 84 -293 252v339l-86 24v37h353v-37l-87 -24v-346c0 -109.333 49 -164 147 -164c45.333 0 80.5 14.333 105.5 43s37.5 67 37.5 115v343z" />
    <glyph glyph-name="Uacute" unicode="&#xda;" horiz-adv-x="759" 
d="M519 925c18.667 -12 28.8301 -28.167 30.4971 -48.5s-5.16602 -40.833 -20.499 -61.5c-20.667 -28.667 -65.667 -68 -135 -118l-31 21c21.333 92.667 38 149.667 50 171c12.667 21.333 28.834 35.5 48.501 42.5s38.834 4.83301 57.501 -6.5zM574.996 567l-72 33v37h238
v-37l-78 -33v-341c0 -75.333 -23.333 -134.333 -70 -177s-111.667 -64 -195 -64c-195.333 0 -293 84 -293 252v339l-86 24v37h353v-37l-87 -24v-346c0 -109.333 49 -164 147 -164c45.333 0 80.5 14.333 105.5 43s37.5 67 37.5 115v343z" />
    <glyph glyph-name="Ucircumflex" unicode="&#xdb;" horiz-adv-x="759" 
d="M412 797l-128 -99l-30 28l121 198h81l114 -198l-30 -28zM575 567l-72 33v37h238v-37l-78 -33v-341c0 -75.333 -23.333 -134.333 -70 -177s-111.667 -64 -195 -64c-195.333 0 -293 84 -293 252v339l-86 24v37h353v-37l-87 -24v-346c0 -109.333 49 -164 147 -164
c45.333 0 80.5 14.333 105.5 43s37.5 67 37.5 115v343z" />
    <glyph glyph-name="Udieresis" unicode="&#xdc;" horiz-adv-x="759" 
d="M522 709c-22.667 0 -41.5 7.66699 -56.5 23s-22.5 34.666 -22.5 57.999s8.33301 43.833 25 61.5s37.334 26.5 62.001 26.5c22.667 0 41.5 -7.66699 56.5 -23s22.5 -34.666 22.5 -57.999s-8.33301 -43.833 -25 -61.5s-37.334 -26.5 -62.001 -26.5zM301 709
c-23.333 0 -42.333 7.66699 -57 23s-22 34.666 -22 57.999s8.33301 43.833 25 61.5s37 26.5 61 26.5c23.333 0 42.333 -7.66699 57 -23s22 -34.666 22 -57.999s-8.33301 -43.833 -25 -61.5s-37 -26.5 -61 -26.5zM575 567l-72 33v37h238v-37l-78 -33v-341
c0 -75.333 -23.333 -134.333 -70 -177s-111.667 -64 -195 -64c-195.333 0 -293 84 -293 252v339l-86 24v37h353v-37l-87 -24v-346c0 -109.333 49 -164 147 -164c45.333 0 80.5 14.333 105.5 43s37.5 67 37.5 115v343z" />
    <glyph glyph-name="Yacute" unicode="&#xdd;" horiz-adv-x="737" 
d="M531 925c18.667 -12 28.8301 -28.167 30.4971 -48.5s-5.16602 -40.833 -20.499 -61.5c-20.667 -28.667 -65.667 -68 -135 -118l-31 21c21.333 92.667 38 149.667 50 171c12.667 21.333 28.834 35.5 48.501 42.5s38.834 4.83301 57.501 -6.5zM645.996 567l-177 -289v-210
l90 -31v-37h-359v37l89 31v185l-181 312l-86 35v37h346v-32l-65 -30l130 -234l117 228l-53 36v32h228v-37z" />
    <glyph glyph-name="Thorn" unicode="&#xde;" horiz-adv-x="666" 
d="M632 326c0 -64.667 -22.667 -113.167 -68 -145.5s-107 -48.5 -185 -48.5c-28 0 -56 1.66699 -84 5v-76l99 -24v-37h-366v37l87 24v515l-87 24v37h366v-37l-99 -24v-68c26.667 3.33301 51.667 5 75 5c81.333 0 145.333 -16.167 192 -48.5s70 -78.5 70 -138.5zM447 326
c0 82.667 -41.333 126.667 -124 132l-28 2v-269h25c84.667 0 127 45 127 135z" />
    <glyph glyph-name="germandbls" unicode="&#xdf;" horiz-adv-x="684" 
d="M654 167c0 -52 -17.502 -95.334 -52.502 -130.001s-79.167 -52 -132.5 -52c-45.333 0 -79.5 9.16699 -102.5 27.5s-34.5 41.833 -34.5 70.5c0 18.667 5.83301 34.5 17.5 47.5s26.167 19.5 43.5 19.5c30 0 49.5 -13 58.5 -39s5.83301 -52.333 -9.5 -79
c9.33301 -2 18 -3 26 -3c18.667 0 34 7.16699 46 21.5s18 33.833 18 58.5c0 36 -17.167 68.667 -51.5 98s-87.166 60 -158.499 92v22c35.333 46 59.5 86.333 72.5 121s19.5 72.334 19.5 113.001c0 36.667 -7.5 65.667 -22.5 87s-35.167 32 -60.5 32
c-24 0 -43.167 -10.833 -57.5 -32.5s-21.5 -52.834 -21.5 -93.501v-492l41 -27v-29h-259v34l60 24v323h-90v32l90 45v5c0 86 33.333 157.333 100 214c50.667 42.667 112 64 184 64c56.667 0 102.834 -14.833 138.501 -44.5s53.5 -68.167 53.5 -115.5
c0 -34.667 -9.33301 -65.5 -28 -92.5s-47 -56.5 -85 -88.5v-8c68 -33.333 117.833 -67.166 149.5 -101.499s47.5 -75.5 47.5 -123.5z" />
    <glyph glyph-name="agrave" unicode="&#xe0;" 
d="M323 532l-31.0039 -21.001c-69.333 50 -114.333 89.333 -135 118c-15.333 20.667 -22.166 41.334 -20.499 62.001s11.834 36.667 30.501 48s37.834 13.5 57.501 6.5s35.834 -21.167 48.501 -42.5c12 -21.333 28.667 -78.333 50 -171zM447.996 326.999v-219.998
c0 -20 5 -35.333 15 -46s27.667 -17.334 53 -20.001l2 -32c-49.333 -12.667 -88.666 -19 -117.999 -19c-50.667 0 -80.667 21 -90 63l-15 2c-46 -42 -92.333 -63 -139 -63c-38.667 0 -69.834 9.66699 -93.501 29s-35.5 46.666 -35.5 81.999c0 89.333 91 140 273 152v53
c0 36.667 -7.83301 62 -23.5 76s-43.167 21 -82.5 21c-13.333 0 -25 -1 -35 -3c14.667 -16 22 -34 22 -54c0 -17.333 -5.83301 -31.833 -17.5 -43.5s-27.834 -17.5 -48.501 -17.5c-19.333 0 -35.666 6.66699 -48.999 20s-20 29 -20 47c0 34 22.5 61.667 67.5 83
s96.833 32 155.5 32c62 0 107.333 -11.167 136 -33.5s43 -58.5 43 -108.5zM299.996 85.001v136c-84.667 -6 -127 -34.333 -127 -85c0 -45.333 23.667 -68 71 -68c18 0 36.667 5.66699 56 17z" />
    <glyph glyph-name="aacute" unicode="&#xe1;" 
d="M350 739c18.667 -12 28.8301 -28.167 30.4971 -48.5s-5.16602 -40.833 -20.499 -61.5c-20.667 -28.667 -65.667 -68 -135 -118l-31 21c21.333 92.667 38 149.667 50 171c12.667 21.333 28.834 35.5 48.501 42.5s38.834 4.83301 57.501 -6.5zM447.996 327v-219.998
c0 -20 5 -35.333 15 -46s27.667 -17.334 53 -20.001l2 -32c-49.333 -12.667 -88.666 -19 -117.999 -19c-50.667 0 -80.667 21 -90 63l-15 2c-46 -42 -92.333 -63 -139 -63c-38.667 0 -69.834 9.66699 -93.501 29s-35.5 46.666 -35.5 81.999c0 89.333 91 140 273 152v53
c0 36.667 -7.83301 62 -23.5 76s-43.167 21 -82.5 21c-13.333 0 -25 -1 -35 -3c14.667 -16 22 -34 22 -54c0 -17.333 -5.83301 -31.833 -17.5 -43.5s-27.834 -17.5 -48.501 -17.5c-19.333 0 -35.666 6.66699 -48.999 20s-20 29 -20 47c0 34 22.5 61.667 67.5 83
s96.833 32 155.5 32c62 0 107.333 -11.167 136 -33.5s43 -58.5 43 -108.5zM299.996 85.002v136c-84.667 -6 -127 -34.333 -127 -85c0 -45.333 23.667 -68 71 -68c18 0 36.667 5.66699 56 17z" />
    <glyph glyph-name="acircumflex" unicode="&#xe2;" 
d="M260 611l-128 -99l-30 28l121 198h81l114 -198l-30 -28zM448 327v-219.998c0 -20 5 -35.333 15 -46s27.667 -17.334 53 -20.001l2 -32c-49.333 -12.667 -88.666 -19 -117.999 -19c-50.667 0 -80.667 21 -90 63l-15 2c-46 -42 -92.333 -63 -139 -63
c-38.667 0 -69.834 9.66699 -93.501 29s-35.5 46.666 -35.5 81.999c0 89.333 91 140 273 152v53c0 36.667 -7.83301 62 -23.5 76s-43.167 21 -82.5 21c-13.333 0 -25 -1 -35 -3c14.667 -16 22 -34 22 -54c0 -17.333 -5.83301 -31.833 -17.5 -43.5
s-27.834 -17.5 -48.501 -17.5c-19.333 0 -35.666 6.66699 -48.999 20s-20 29 -20 47c0 34 22.5 61.667 67.5 83s96.833 32 155.5 32c62 0 107.333 -11.167 136 -33.5s43 -58.5 43 -108.5zM300 85.002v136c-84.667 -6 -127 -34.333 -127 -85c0 -45.333 23.667 -68 71 -68
c18 0 36.667 5.66699 56 17z" />
    <glyph glyph-name="atilde" unicode="&#xe3;" 
d="M82 524c5.33301 60 16 103 32 129s40.333 39 73 39c20.667 0 48.667 -8.33301 84 -25s59.666 -25 72.999 -25c10.667 0 19.334 4.16699 26.001 12.5s14 23.166 22 44.499l47 -6c-5.33301 -60 -16 -103 -32 -129s-40.333 -39 -73 -39c-20.667 0 -48.667 8.33301 -84 25
s-59.666 25 -72.999 25c-10.667 0 -19.334 -4.16699 -26.001 -12.5s-14 -23.166 -22 -44.499zM448 327v-219.998c0 -20 5 -35.333 15 -46s27.667 -17.334 53 -20.001l2 -32c-49.333 -12.667 -88.666 -19 -117.999 -19c-50.667 0 -80.667 21 -90 63l-15 2
c-46 -42 -92.333 -63 -139 -63c-38.667 0 -69.834 9.66699 -93.501 29s-35.5 46.666 -35.5 81.999c0 89.333 91 140 273 152v53c0 36.667 -7.83301 62 -23.5 76s-43.167 21 -82.5 21c-13.333 0 -25 -1 -35 -3c14.667 -16 22 -34 22 -54
c0 -17.333 -5.83301 -31.833 -17.5 -43.5s-27.834 -17.5 -48.501 -17.5c-19.333 0 -35.666 6.66699 -48.999 20s-20 29 -20 47c0 34 22.5 61.667 67.5 83s96.833 32 155.5 32c62 0 107.333 -11.167 136 -33.5s43 -58.5 43 -108.5zM300 85.002v136
c-84.667 -6 -127 -34.333 -127 -85c0 -45.333 23.667 -68 71 -68c18 0 36.667 5.66699 56 17z" />
    <glyph glyph-name="adieresis" unicode="&#xe4;" 
d="M363 523c-22.667 0 -41.5 7.66699 -56.5 23s-22.5 34.666 -22.5 57.999s8.33301 43.833 25 61.5s37.334 26.5 62.001 26.5c22.667 0 41.5 -7.66699 56.5 -23s22.5 -34.666 22.5 -57.999s-8.33301 -43.833 -25 -61.5s-37.334 -26.5 -62.001 -26.5zM142 523
c-23.333 0 -42.333 7.66699 -57 23s-22 34.666 -22 57.999s8.33301 43.833 25 61.5s37 26.5 61 26.5c23.333 0 42.333 -7.66699 57 -23s22 -34.666 22 -57.999s-8.33301 -43.833 -25 -61.5s-37 -26.5 -61 -26.5zM448 327v-219.998c0 -20 5 -35.333 15 -46
s27.667 -17.334 53 -20.001l2 -32c-49.333 -12.667 -88.666 -19 -117.999 -19c-50.667 0 -80.667 21 -90 63l-15 2c-46 -42 -92.333 -63 -139 -63c-38.667 0 -69.834 9.66699 -93.501 29s-35.5 46.666 -35.5 81.999c0 89.333 91 140 273 152v53
c0 36.667 -7.83301 62 -23.5 76s-43.167 21 -82.5 21c-13.333 0 -25 -1 -35 -3c14.667 -16 22 -34 22 -54c0 -17.333 -5.83301 -31.833 -17.5 -43.5s-27.834 -17.5 -48.501 -17.5c-19.333 0 -35.666 6.66699 -48.999 20s-20 29 -20 47c0 34 22.5 61.667 67.5 83
s96.833 32 155.5 32c62 0 107.333 -11.167 136 -33.5s43 -58.5 43 -108.5zM300 85.002v136c-84.667 -6 -127 -34.333 -127 -85c0 -45.333 23.667 -68 71 -68c18 0 36.667 5.66699 56 17z" />
    <glyph glyph-name="aring" unicode="&#xe5;" 
d="M381 623c0 -31.333 -11.999 -57.667 -35.999 -79s-54.333 -32 -91 -32s-66.334 10.333 -89.001 31s-34 47 -34 79c0 30.667 12 56.5 36 77.5s54.667 31.5 92 31.5c36.667 0 66.167 -10 88.5 -30s33.5 -46 33.5 -78zM448.001 326.999v-219.998c0 -20 5 -35.333 15 -46
s27.667 -17.334 53 -20.001l2 -32c-49.333 -12.667 -88.666 -19 -117.999 -19c-50.667 0 -80.667 21 -90 63l-15 2c-46 -42 -92.333 -63 -139 -63c-38.667 0 -69.834 9.66699 -93.501 29s-35.5 46.666 -35.5 81.999c0 89.333 91 140 273 152v53
c0 36.667 -7.83301 62 -23.5 76s-43.167 21 -82.5 21c-13.333 0 -25 -1 -35 -3c14.667 -16 22 -34 22 -54c0 -17.333 -5.83301 -31.833 -17.5 -43.5s-27.834 -17.5 -48.501 -17.5c-19.333 0 -35.666 6.66699 -48.999 20s-20 29 -20 47c0 34 22.5 61.667 67.5 83
s96.833 32 155.5 32c62 0 107.333 -11.167 136 -33.5s43 -58.5 43 -108.5zM307.001 623.001c0 23.333 -4.83301 41.5 -14.5 54.5s-22.167 19.5 -37.5 19.5c-14.667 0 -26.667 -6.66699 -36 -20s-14 -32 -14 -56c0 -23.333 5 -41.5 15 -54.5s22.333 -19.5 37 -19.5
c15.333 0 27.5 6.66699 36.5 20s13.5 32 13.5 56zM300.001 85.001v136c-84.667 -6 -127 -34.333 -127 -85c0 -45.333 23.667 -68 71 -68c18 0 36.667 5.66699 56 17z" />
    <glyph glyph-name="ae" unicode="&#xe6;" horiz-adv-x="789" 
d="M761 221l-305.999 0.000976562c3.33301 -102 49.666 -153 138.999 -153c44 0 93.667 7.66699 149 23l12 -25c-32 -24 -67.167 -43.667 -105.5 -59s-73.833 -23 -106.5 -23c-80 0 -142.333 24.333 -187 73h-14c-58.667 -43.333 -116.667 -65 -174 -65
c-41.333 0 -75.166 9.66699 -101.499 29s-39.5 46.666 -39.5 81.999c0 89.333 91 140 273 152v53c0 36.667 -7.83301 62 -23.5 76s-43.167 21 -82.5 21c-13.333 0 -25 -1 -35 -3c14.667 -16 22 -34 22 -54c0 -17.333 -5.83301 -31.833 -17.5 -43.5
s-27.834 -17.5 -48.501 -17.5c-19.333 0 -35.666 6.66699 -48.999 20s-20 29 -20 47c0 34 22.333 61.667 67 83s97.667 32 159 32c69.333 0 115 -19.333 137 -58c40.667 38.667 87 58 139 58c77.333 0 133.166 -23 167.499 -69s49.5 -105.667 45.5 -179zM541.001 422.001
c-24.667 0 -44.668 -14 -60.001 -42s-23.666 -68 -24.999 -120l159 11c0 52.667 -6 91 -18 115s-30.667 36 -56 36zM331 91.001c-20.667 37.333 -31 80.667 -31 130c-84.667 -6 -127 -34.333 -127 -85c0 -20.667 7.16699 -37.167 21.5 -49.5s34.166 -18.5 59.499 -18.5
c22.667 0 48.334 7.66699 77.001 23z" />
    <glyph glyph-name="ccedilla" unicode="&#xe7;" horiz-adv-x="491" 
d="M192 236c0 -52 14.1641 -91.665 42.4971 -118.998s65.833 -41 112.5 -41c30.667 0 66 6.33301 106 19l11 -30c-40 -37.333 -81.667 -61.333 -125 -72l-74 -61c28 -4.66699 50.833 -15.167 68.5 -31.5s26.5 -37.166 26.5 -62.499c0 -32 -12 -58 -36 -78
s-54.667 -30 -92 -30c-32 0 -58 5 -78 15s-30 24 -30 42c0 10.667 3.33301 19.667 10 27s15.334 11 26.001 11s19.334 -4 26.001 -12s10 -17 10 -27c0 -6.66699 -1 -13.334 -3 -20.001c7.33301 -3.33301 17 -5 29 -5c14.667 0 27.334 4.33301 38.001 13s16 22.334 16 41.001
s-6.16699 33 -18.5 43s-28.833 15 -49.5 15c-6.66699 0 -15.667 -1 -27 -3l-20 20l113 94h-4c-66 0 -122.5 21.833 -169.5 65.5s-70.5 99.5 -70.5 167.5c0 70 25.333 129.5 76 178.5s113.667 73.5 189 73.5c51.333 0 93 -11.333 125 -34s48 -50.334 48 -83.001
c0 -22.667 -6.83301 -41.334 -20.5 -56.001s-31.5 -22 -53.5 -22c-24 0 -43.167 8 -57.5 24s-21.5 37.333 -21.5 64c0 13.333 2.33301 30.666 7 51.999h-3c-37.333 -2 -67.833 -18.833 -91.5 -50.5s-35.5 -74.167 -35.5 -127.5z" />
    <glyph glyph-name="egrave" unicode="&#xe8;" 
d="M319 537l-31.0039 -21.001c-69.333 50 -114.333 89.333 -135 118c-15.333 20.667 -22.166 41.334 -20.499 62.001s11.834 36.667 30.501 48s37.834 13.5 57.501 6.5s35.834 -21.167 48.501 -42.5c12 -21.333 28.667 -78.333 50 -171zM490.996 220.999
l-305.997 -0.000976562c3.33301 -102 49.666 -153 138.999 -153c44 0 93.667 7.66699 149 23l12 -25c-32 -24 -67.167 -43.667 -105.5 -59s-73.833 -23 -106.5 -23c-74.667 0 -133.834 21.333 -177.501 64s-65.5 99 -65.5 169c0 70.667 25.167 130.334 75.5 179.001
s107.833 73 172.5 73c77.333 0 133.166 -23 167.499 -69s49.5 -105.667 45.5 -179zM185.999 259.998l158.999 11c0 52.667 -6 91 -18 115s-30.667 36 -56 36c-24.667 0 -44.667 -14 -60 -42s-23.666 -68 -24.999 -120z" />
    <glyph glyph-name="eacute" unicode="&#xe9;" 
d="M382 744c18.667 -12 28.8301 -28.167 30.4971 -48.5s-5.16602 -40.833 -20.499 -61.5c-20.667 -28.667 -65.667 -68 -135 -118l-31 21c21.333 92.667 38 149.667 50 171c12.667 21.333 28.834 35.5 48.501 42.5s38.834 4.83301 57.501 -6.5zM490.996 221
l-305.997 -0.000976562c3.33301 -102 49.666 -153 138.999 -153c44 0 93.667 7.66699 149 23l12 -25c-32 -24 -67.167 -43.667 -105.5 -59s-73.833 -23 -106.5 -23c-74.667 0 -133.834 21.333 -177.501 64s-65.5 99 -65.5 169c0 70.667 25.167 130.334 75.5 179.001
s107.833 73 172.5 73c77.333 0 133.166 -23 167.499 -69s49.5 -105.667 45.5 -179zM185.999 259.999l158.999 11c0 52.667 -6 91 -18 115s-30.667 36 -56 36c-24.667 0 -44.667 -14 -60 -42s-23.666 -68 -24.999 -120z" />
    <glyph glyph-name="ecircumflex" unicode="&#xea;" 
d="M277 611l-128 -99l-30 28l121 198h81l114 -198l-30 -28zM491 221l-305.997 -0.000976562c3.33301 -102 49.666 -153 138.999 -153c44 0 93.667 7.66699 149 23l12 -25c-32 -24 -67.167 -43.667 -105.5 -59s-73.833 -23 -106.5 -23c-74.667 0 -133.834 21.333 -177.501 64
s-65.5 99 -65.5 169c0 70.667 25.167 130.334 75.5 179.001s107.833 73 172.5 73c77.333 0 133.166 -23 167.499 -69s49.5 -105.667 45.5 -179zM186.003 259.999l158.999 11c0 52.667 -6 91 -18 115s-30.667 36 -56 36c-24.667 0 -44.667 -14 -60 -42
s-23.666 -68 -24.999 -120z" />
    <glyph glyph-name="edieresis" unicode="&#xeb;" 
d="M387 523c-22.667 0 -41.5 7.66699 -56.5 23s-22.5 34.666 -22.5 57.999s8.33301 43.833 25 61.5s37.334 26.5 62.001 26.5c22.667 0 41.5 -7.66699 56.5 -23s22.5 -34.666 22.5 -57.999s-8.33301 -43.833 -25 -61.5s-37.334 -26.5 -62.001 -26.5zM166 523
c-23.333 0 -42.333 7.66699 -57 23s-22 34.666 -22 57.999s8.33301 43.833 25 61.5s37 26.5 61 26.5c23.333 0 42.333 -7.66699 57 -23s22 -34.666 22 -57.999s-8.33301 -43.833 -25 -61.5s-37 -26.5 -61 -26.5zM491 221l-305.997 -0.000976562
c3.33301 -102 49.666 -153 138.999 -153c44 0 93.667 7.66699 149 23l12 -25c-32 -24 -67.167 -43.667 -105.5 -59s-73.833 -23 -106.5 -23c-74.667 0 -133.834 21.333 -177.501 64s-65.5 99 -65.5 169c0 70.667 25.167 130.334 75.5 179.001s107.833 73 172.5 73
c77.333 0 133.166 -23 167.499 -69s49.5 -105.667 45.5 -179zM186.003 259.999l158.999 11c0 52.667 -6 91 -18 115s-30.667 36 -56 36c-24.667 0 -44.667 -14 -60 -42s-23.666 -68 -24.999 -120z" />
    <glyph glyph-name="igrave" unicode="&#xec;" horiz-adv-x="309" 
d="M219 532l-31.0039 -21.001c-69.333 50 -114.333 89.333 -135 118c-15.333 20.667 -22.166 41.334 -20.499 62.001s11.834 36.667 30.501 48s37.834 13.5 57.501 6.5s35.834 -21.167 48.501 -42.5c12 -21.333 28.667 -78.333 50 -171zM79.9961 57.999v295l-59 47v30
l193 42l24 -13v-401l60 -24v-34h-281v34z" />
    <glyph glyph-name="iacute" unicode="&#xed;" horiz-adv-x="309" 
d="M249 739c18.667 -12 28.8301 -28.167 30.4971 -48.5s-5.16602 -40.833 -20.499 -61.5c-20.667 -28.667 -65.667 -68 -135 -118l-31 21c21.333 92.667 38 149.667 50 171c12.667 21.333 28.834 35.5 48.501 42.5s38.834 4.83301 57.501 -6.5zM79.9961 58v295l-59 47v30
l193 42l24 -13v-401l60 -24v-34h-281v34z" />
    <glyph glyph-name="icircumflex" unicode="&#xee;" horiz-adv-x="309" 
d="M149 611l-128 -99l-30 28l121 198h81l114 -198l-30 -28zM80 58v295l-59 47v30l193 42l24 -13v-401l60 -24v-34h-281v34z" />
    <glyph glyph-name="idieresis" unicode="&#xef;" horiz-adv-x="309" 
d="M264 523c-22.667 0 -41.5 7.66699 -56.5 23s-22.5 34.666 -22.5 57.999s8.33301 43.833 25 61.5s37.334 26.5 62.001 26.5c22.667 0 41.5 -7.66699 56.5 -23s22.5 -34.666 22.5 -57.999s-8.33301 -43.833 -25 -61.5s-37.334 -26.5 -62.001 -26.5zM43 523
c-23.333 0 -42.333 7.66699 -57 23s-22 34.666 -22 57.999s8.33301 43.833 25 61.5s37 26.5 61 26.5c23.333 0 42.333 -7.66699 57 -23s22 -34.666 22 -57.999s-8.33301 -43.833 -25 -61.5s-37 -26.5 -61 -26.5zM80 58v295l-59 47v30l193 42l24 -13v-401l60 -24v-34h-281v34
z" />
    <glyph glyph-name="eth" unicode="&#xf0;" horiz-adv-x="564" 
d="M525 289c0 -96 -24.165 -170.667 -72.498 -224s-111.5 -80 -189.5 -80c-66.667 0 -121.5 22.333 -164.5 67s-64.5 105 -64.5 181c0 68.667 18.5 125.667 55.5 171s84.167 68 141.5 68c31.333 0 66.333 -13 105 -39l9 5c-10.667 48.667 -33.334 94 -68.001 136l-97 -41
l-22 53l76 32c-31.333 29.333 -72.333 58 -123 86l18 40c75.333 -24 139.666 -53.667 192.999 -89l116 49l22 -52l-84 -36c99.333 -84 149 -193 149 -327zM364.002 261c0 48.667 -3.00195 86.667 -9.00195 114c-21.333 12 -42.666 18 -63.999 18c-66 0 -99 -58.333 -99 -175
c0 -120 27.333 -180 82 -180c28.667 0 50.834 19.5 66.501 58.5s23.5 93.833 23.5 164.5z" />
    <glyph glyph-name="ntilde" unicode="&#xf1;" horiz-adv-x="601" 
d="M133 524c5.33301 60 16 103 32 129s40.333 39 73 39c20.667 0 48.667 -8.33301 84 -25s59.666 -25 72.999 -25c10.667 0 19.334 4.16699 26.001 12.5s14 23.166 22 44.499l47 -6c-5.33301 -60 -16 -103 -32 -129s-40.333 -39 -73 -39c-20.667 0 -48.667 8.33301 -84 25
s-59.666 25 -72.999 25c-10.667 0 -19.334 -4.16699 -26.001 -12.5s-14 -23.166 -22 -44.499zM538 333v-275l60 -24v-34h-264v34l46 24v223c0 58 -22.333 87 -67 87c-22 0 -47 -6 -75 -18v-292l46 -24v-34h-264v34l60 24v295l-60 47v30l188 42l24 -13l-7 -71l14 -2
c60 55.333 117 83 171 83c40.667 0 72.167 -12.167 94.5 -36.5s33.5 -57.5 33.5 -99.5z" />
    <glyph glyph-name="ograve" unicode="&#xf2;" horiz-adv-x="570" 
d="M335 537l-31.0039 -21.001c-69.333 50 -114.333 89.333 -135 118c-15.333 20.667 -22.166 41.334 -20.499 62.001s11.834 36.667 30.501 48s37.834 13.5 57.501 6.5s35.834 -21.167 48.501 -42.5c12 -21.333 28.667 -78.333 50 -171zM539.996 226.999
c0 -64.667 -23.333 -121.332 -70 -169.999s-110.334 -73 -191.001 -73c-81.333 0 -143.166 23.167 -185.499 69.5s-63.5 104.166 -63.5 173.499c0 64.667 23.333 121.167 70 169.5s110.334 72.5 191.001 72.5c81.333 0 143.166 -23.167 185.499 -69.5
s63.5 -103.833 63.5 -172.5zM372.996 227.001c0 126.667 -29.333 190 -88 190s-88 -63.333 -88 -190s29.333 -190 88 -190s88 63.333 88 190z" />
    <glyph glyph-name="oacute" unicode="&#xf3;" horiz-adv-x="570" 
d="M389 744c18.667 -12 28.8301 -28.167 30.4971 -48.5s-5.16602 -40.833 -20.499 -61.5c-20.667 -28.667 -65.667 -68 -135 -118l-31 21c21.333 92.667 38 149.667 50 171c12.667 21.333 28.834 35.5 48.501 42.5s38.834 4.83301 57.501 -6.5zM539.996 227
c0 -64.667 -23.333 -121.332 -70 -169.999s-110.334 -73 -191.001 -73c-81.333 0 -143.166 23.167 -185.499 69.5s-63.5 104.166 -63.5 173.499c0 64.667 23.333 121.167 70 169.5s110.334 72.5 191.001 72.5c81.333 0 143.166 -23.167 185.499 -69.5
s63.5 -103.833 63.5 -172.5zM372.996 227.002c0 126.667 -29.333 190 -88 190s-88 -63.333 -88 -190s29.333 -190 88 -190s88 63.333 88 190z" />
    <glyph glyph-name="ocircumflex" unicode="&#xf4;" horiz-adv-x="570" 
d="M285 611l-128 -99l-30 28l121 198h81l114 -198l-30 -28zM540 227c0 -64.667 -23.333 -121.332 -70 -169.999s-110.334 -73 -191.001 -73c-81.333 0 -143.166 23.167 -185.499 69.5s-63.5 104.166 -63.5 173.499c0 64.667 23.333 121.167 70 169.5
s110.334 72.5 191.001 72.5c81.333 0 143.166 -23.167 185.499 -69.5s63.5 -103.833 63.5 -172.5zM373 227.002c0 126.667 -29.333 190 -88 190s-88 -63.333 -88 -190s29.333 -190 88 -190s88 63.333 88 190z" />
    <glyph glyph-name="otilde" unicode="&#xf5;" horiz-adv-x="570" 
d="M108 524c5.33301 60 16 103 32 129s40.333 39 73 39c20.667 0 48.667 -8.33301 84 -25s59.666 -25 72.999 -25c10.667 0 19.334 4.16699 26.001 12.5s14 23.166 22 44.499l47 -6c-5.33301 -60 -16 -103 -32 -129s-40.333 -39 -73 -39c-20.667 0 -48.667 8.33301 -84 25
s-59.666 25 -72.999 25c-10.667 0 -19.334 -4.16699 -26.001 -12.5s-14 -23.166 -22 -44.499zM540 227c0 -64.667 -23.333 -121.332 -70 -169.999s-110.334 -73 -191.001 -73c-81.333 0 -143.166 23.167 -185.499 69.5s-63.5 104.166 -63.5 173.499
c0 64.667 23.333 121.167 70 169.5s110.334 72.5 191.001 72.5c81.333 0 143.166 -23.167 185.499 -69.5s63.5 -103.833 63.5 -172.5zM373 227.002c0 126.667 -29.333 190 -88 190s-88 -63.333 -88 -190s29.333 -190 88 -190s88 63.333 88 190z" />
    <glyph glyph-name="odieresis" unicode="&#xf6;" horiz-adv-x="570" 
d="M397 523c-22.667 0 -41.5 7.66699 -56.5 23s-22.5 34.666 -22.5 57.999s8.33301 43.833 25 61.5s37.334 26.5 62.001 26.5c22.667 0 41.5 -7.66699 56.5 -23s22.5 -34.666 22.5 -57.999s-8.33301 -43.833 -25 -61.5s-37.334 -26.5 -62.001 -26.5zM176 523
c-23.333 0 -42.333 7.66699 -57 23s-22 34.666 -22 57.999s8.33301 43.833 25 61.5s37 26.5 61 26.5c23.333 0 42.333 -7.66699 57 -23s22 -34.666 22 -57.999s-8.33301 -43.833 -25 -61.5s-37 -26.5 -61 -26.5zM540 227c0 -64.667 -23.333 -121.332 -70 -169.999
s-110.334 -73 -191.001 -73c-81.333 0 -143.166 23.167 -185.499 69.5s-63.5 104.166 -63.5 173.499c0 64.667 23.333 121.167 70 169.5s110.334 72.5 191.001 72.5c81.333 0 143.166 -23.167 185.499 -69.5s63.5 -103.833 63.5 -172.5zM373 227.002
c0 126.667 -29.333 190 -88 190s-88 -63.333 -88 -190s29.333 -190 88 -190s88 63.333 88 190z" />
    <glyph glyph-name="divide" unicode="&#xf7;" horiz-adv-x="520" 
d="M260 529c18.667 0 34.667 -6.5 48 -19.5s20 -29.167 20 -48.5s-6.66699 -35.5 -20 -48.5s-29.333 -19.5 -48 -19.5s-34.667 6.5 -48 19.5s-20 29.167 -20 48.5s6.66699 35.5 20 48.5s29.333 19.5 48 19.5zM466 276h-413v61h413v-61zM260 220
c18.667 0 34.667 -6.66699 48 -20s20 -29.333 20 -48s-6.66699 -34.667 -20 -48s-29.333 -20 -48 -20s-34.667 6.66699 -48 20s-20 29.333 -20 48s6.66699 34.667 20 48s29.333 20 48 20z" />
    <glyph glyph-name="oslash" unicode="&#xf8;" horiz-adv-x="570" 
d="M478 393c41.333 -45.333 61.999 -100.666 61.999 -165.999c0 -64.667 -23.333 -121.334 -70 -170.001s-110.334 -73 -191.001 -73c-56.667 0 -105 13.667 -145 41l-49 -52l-38 31l49 53c-44 45.333 -66 102 -66 170c0 64.667 23.333 121.167 70 169.5
s110.334 72.5 191.001 72.5c56.667 0 105.334 -13.667 146.001 -41l44 47l43 -32zM360.999 351c-16 45.333 -41.332 67.999 -75.999 67.999c-30.667 0 -53.834 -17.167 -69.501 -51.5s-23.5 -81.166 -23.5 -140.499c0 -26 1.33301 -48 4 -66zM378 226.999
c0 22 -1.00098 42.001 -3.00098 60.001l-165 -186c16 -44 41 -66 75 -66c30.667 0 53.834 17.167 69.501 51.5s23.5 81.166 23.5 140.499z" />
    <glyph glyph-name="ugrave" unicode="&#xf9;" horiz-adv-x="596" 
d="M345 532l-31.0039 -21.001c-69.333 50 -114.333 89.333 -135 118c-15.333 20.667 -22.166 41.334 -20.499 62.001s11.834 36.667 30.501 48s37.834 13.5 57.501 6.5s35.834 -21.167 48.501 -42.5c12 -21.333 28.667 -78.333 50 -171zM520.996 100.999l60 -47v-30
l-188 -42l-24 13l7 71l-14 2c-60 -55.333 -117 -83 -171 -83c-40.667 0 -72.167 12.167 -94.5 36.5s-33.5 57.5 -33.5 99.5v232l-59 47v30l193 42l24 -13v-286c0 -58 22.333 -87 67 -87c22 0 47 6 75 18v249l-59 47v30l193 42l24 -13v-358z" />
    <glyph glyph-name="uacute" unicode="&#xfa;" horiz-adv-x="596" 
d="M391 739c18.667 -12 28.8301 -28.167 30.4971 -48.5s-5.16602 -40.833 -20.499 -61.5c-20.667 -28.667 -65.667 -68 -135 -118l-31 21c21.333 92.667 38 149.667 50 171c12.667 21.333 28.834 35.5 48.501 42.5s38.834 4.83301 57.501 -6.5zM520.996 101l60 -47v-30
l-188 -42l-24 13l7 71l-14 2c-60 -55.333 -117 -83 -171 -83c-40.667 0 -72.167 12.167 -94.5 36.5s-33.5 57.5 -33.5 99.5v232l-59 47v30l193 42l24 -13v-286c0 -58 22.333 -87 67 -87c22 0 47 6 75 18v249l-59 47v30l193 42l24 -13v-358z" />
    <glyph glyph-name="ucircumflex" unicode="&#xfb;" horiz-adv-x="596" 
d="M293 611l-128 -99l-30 28l121 198h81l114 -198l-30 -28zM521 101l60 -47v-30l-188 -42l-24 13l7 71l-14 2c-60 -55.333 -117 -83 -171 -83c-40.667 0 -72.167 12.167 -94.5 36.5s-33.5 57.5 -33.5 99.5v232l-59 47v30l193 42l24 -13v-286c0 -58 22.333 -87 67 -87
c22 0 47 6 75 18v249l-59 47v30l193 42l24 -13v-358z" />
    <glyph glyph-name="udieresis" unicode="&#xfc;" horiz-adv-x="596" 
d="M400 523c-22.667 0 -41.5 7.66699 -56.5 23s-22.5 34.666 -22.5 57.999s8.33301 43.833 25 61.5s37.334 26.5 62.001 26.5c22.667 0 41.5 -7.66699 56.5 -23s22.5 -34.666 22.5 -57.999s-8.33301 -43.833 -25 -61.5s-37.334 -26.5 -62.001 -26.5zM179 523
c-23.333 0 -42.333 7.66699 -57 23s-22 34.666 -22 57.999s8.33301 43.833 25 61.5s37 26.5 61 26.5c23.333 0 42.333 -7.66699 57 -23s22 -34.666 22 -57.999s-8.33301 -43.833 -25 -61.5s-37 -26.5 -61 -26.5zM521 101l60 -47v-30l-188 -42l-24 13l7 71l-14 2
c-60 -55.333 -117 -83 -171 -83c-40.667 0 -72.167 12.167 -94.5 36.5s-33.5 57.5 -33.5 99.5v232l-59 47v30l193 42l24 -13v-286c0 -58 22.333 -87 67 -87c22 0 47 6 75 18v249l-59 47v30l193 42l24 -13v-358z" />
    <glyph glyph-name="yacute" unicode="&#xfd;" horiz-adv-x="553" 
d="M407 739c18.667 -12 28.8301 -28.167 30.4971 -48.5s-5.16602 -40.833 -20.499 -61.5c-20.667 -28.667 -65.667 -68 -135 -118l-31 21c21.333 92.667 38 149.667 50 171c12.667 21.333 28.834 35.5 48.501 42.5s38.834 4.83301 57.501 -6.5zM499.996 385l-174 -414.999
c-27.333 -64.667 -56 -110.334 -86 -137.001s-66.667 -40 -110 -40c-31.333 0 -56 7 -74 21s-27 32 -27 54c0 19.333 7 35.5 21 48.5s31 19.5 51 19.5c33.333 0 61.333 -20 84 -60c20.667 18 38.667 40.333 54 67l11 19l-197 432l-60 26v34h296v-31l-62 -29l97 -246h5
l86 242l-54 33v31h200v-34z" />
    <glyph glyph-name="thorn" unicode="&#xfe;" horiz-adv-x="585" 
d="M552 240c0 -70.667 -24.166 -131 -72.499 -181s-113.166 -75 -194.499 -75c-20.667 0 -41.334 2 -62.001 6v-140l70 -24v-33h-288v33l60 24v762l-65 47v30l199 52l24 -13v-315l14 -2c46 38.667 92 58 138 58c49.333 0 91.166 -21.333 125.499 -64s51.5 -97.667 51.5 -165
zM385.001 209c0 109.333 -35 164 -105 164c-15.333 0 -34.333 -2.66699 -57 -8v-280c20 -32.667 46.333 -49 79 -49c24 0 43.833 14.167 59.5 42.5s23.5 71.833 23.5 130.5z" />
    <glyph glyph-name="ydieresis" unicode="&#xff;" horiz-adv-x="553" 
d="M413 523c-22.667 0 -41.5 7.66699 -56.5 23s-22.5 34.666 -22.5 57.999s8.33301 43.833 25 61.5s37.334 26.5 62.001 26.5c22.667 0 41.5 -7.66699 56.5 -23s22.5 -34.666 22.5 -57.999s-8.33301 -43.833 -25 -61.5s-37.334 -26.5 -62.001 -26.5zM192 523
c-23.333 0 -42.333 7.66699 -57 23s-22 34.666 -22 57.999s8.33301 43.833 25 61.5s37 26.5 61 26.5c23.333 0 42.333 -7.66699 57 -23s22 -34.666 22 -57.999s-8.33301 -43.833 -25 -61.5s-37 -26.5 -61 -26.5zM500 385l-174 -414.999
c-27.333 -64.667 -56 -110.334 -86 -137.001s-66.667 -40 -110 -40c-31.333 0 -56 7 -74 21s-27 32 -27 54c0 19.333 7 35.5 21 48.5s31 19.5 51 19.5c33.333 0 61.333 -20 84 -60c20.667 18 38.667 40.333 54 67l11 19l-197 432l-60 26v34h296v-31l-62 -29l97 -246h5
l86 242l-54 33v31h200v-34z" />
    <glyph glyph-name="dotlessi" unicode="&#x131;" horiz-adv-x="309" 
d="M80 58v295l-59 47v30l193 42l24 -13v-401l60 -24v-34h-281v34z" />
    <glyph glyph-name="Lslash" unicode="&#x141;" horiz-adv-x="640" 
d="M613 237l-23 -236.999h-557v37l89 24v208l-63 -17l-17 60l80 22v242l-89 24v37h354v-37l-89 -24v-194l122 33l18 -60l-140 -38v-262l76 4c28.667 1.33301 52.667 8.16602 72 20.499s41 33.833 65 64.5l75 96z" />
    <glyph glyph-name="lslash" unicode="&#x142;" horiz-adv-x="354" 
d="M256 347v-289l62 -24v-34h-281v34l65 24v242l-70 -21l-17 60l87 26v247l-66 47v30l196 52l24 -13v-316l81 25l18 -60z" />
    <glyph glyph-name="OE" unicode="&#x152;" horiz-adv-x="1030" 
d="M998 207l-19.001 -207.001h-562c-113.333 0 -203.666 27.833 -270.999 83.5s-101 131.167 -101 226.5c0 100.667 34.5 180.334 103.5 239.001s160.833 88 275.5 88h534l14 -215l-29 -5l-70 90c-20.667 26.667 -39.334 45 -56.001 55s-41 15.667 -73 17l-91 4v-239h36
c25.333 0 42.833 4.33301 52.5 13s20.834 30.334 33.501 65.001l12 32h31v-271h-32l-11 29c-12.667 33.333 -24.167 54.666 -34.5 63.999s-27.5 14 -51.5 14h-36v-235l123 6c28 1.33301 50.333 7 67 17s34.667 26.333 54 49l72 84zM239.999 317.999
c0 -166 66.333 -253.002 199 -261.002l34 -2v526l-54 -3c-58.667 -3.33301 -103.167 -24.666 -133.5 -63.999s-45.5 -104.666 -45.5 -195.999z" />
    <glyph glyph-name="oe" unicode="&#x153;" horiz-adv-x="860" 
d="M526 221c3.33301 -102 49.666 -152.999 138.999 -152.999c44 0 93.667 7.66699 149 23l12 -25c-32 -24.667 -66.667 -44.5 -104 -59.5s-71.666 -22.5 -102.999 -22.5c-72.667 0 -129.334 22 -170.001 66c-49.333 -44 -107.666 -66 -174.999 -66
c-78.667 0 -139 23.167 -181 69.5s-63 104.166 -63 173.499c0 64.667 23.167 121.167 69.5 169.5s108.5 72.5 186.5 72.5c72.667 0 131.667 -23.667 177 -71c46 47.333 99.667 71 161 71c75.333 0 129.833 -23 163.5 -69s48.5 -105.667 44.5 -179h-306zM527 260.001
l158.999 11c0 52.667 -6 91 -18 115s-30.667 36 -56 36c-24.667 0 -44.667 -14 -60 -42s-23.666 -68 -24.999 -120zM372.999 227.001c0 126.667 -29.333 190 -88 190s-88 -63.333 -88 -190s29.333 -190 88 -190s88 63.333 88 190z" />
    <glyph glyph-name="Scaron" unicode="&#x160;" horiz-adv-x="574" 
d="M296 828l128 99l30 -28l-121 -198h-81l-114 198l30 28zM533 198c0 -63.333 -22.3311 -114.668 -66.998 -154.001s-103.334 -59 -176.001 -59c-56 0 -110 12.667 -162 38l-27 -35h-40l-13 225l46 2c28 -65.333 57.167 -110.333 87.5 -135s63.833 -37 100.5 -37
c32.667 0 58.5 8.33301 77.5 25s28.5 38 28.5 64c0 25.333 -8.16699 45.333 -24.5 60s-47.166 31.334 -92.499 50.001c-46.667 18.667 -79.334 32.667 -98.001 42c-74.667 36 -112 93 -112 171c0 56.667 20.833 103.667 62.5 141s93.834 56 156.501 56
c50 0 96 -11.333 138 -34l28 34h40l17 -201l-45 -3c-26 52.667 -51.5 90.167 -76.5 112.5s-53.5 33.5 -85.5 33.5c-26.667 0 -47.834 -7 -63.501 -21s-23.5 -32.667 -23.5 -56c0 -22 6.83301 -40.333 20.5 -55s37.5 -29.667 71.5 -45c10 -4.66699 28.167 -12 54.5 -22
s46.166 -18.333 59.499 -25c78.667 -38 118 -95.333 118 -172z" />
    <glyph glyph-name="scaron" unicode="&#x161;" horiz-adv-x="445" 
d="M231 647l128 99l30 -28l-121 -198h-81l-114 198l30 28zM415 146c0 -49.333 -19 -88.665 -57 -117.998s-86 -44 -144 -44c-68.667 0 -126 9 -172 27l-3 137l35 2c33.333 -46 60.333 -77.333 81 -94s43 -25 67 -25c20 0 36.167 4.83301 48.5 14.5s18.5 23.167 18.5 40.5
c0 19.333 -7.83301 34.666 -23.5 45.999s-45.167 25.666 -88.5 42.999c-45.333 18 -79.5 37 -102.5 57s-34.5 49.333 -34.5 88c0 42 18 77.333 54 106s85 43 147 43c54 0 100.667 -6 140 -18l3 -124l-35 -4c-26 38 -47.667 64 -65 78s-36.333 21 -57 21
c-20 0 -35.333 -5 -46 -15s-16 -22.667 -16 -38c0 -17.333 6.5 -31 19.5 -41s37.5 -21.667 73.5 -35c56 -20.667 96.167 -41.167 120.5 -61.5s36.5 -48.833 36.5 -85.5z" />
    <glyph glyph-name="Ydieresis" unicode="&#x178;" horiz-adv-x="737" 
d="M529 709c-22.667 0 -41.5 7.66699 -56.5 23s-22.5 34.666 -22.5 57.999s8.33301 43.833 25 61.5s37.334 26.5 62.001 26.5c22.667 0 41.5 -7.66699 56.5 -23s22.5 -34.666 22.5 -57.999s-8.33301 -43.833 -25 -61.5s-37.334 -26.5 -62.001 -26.5zM308 709
c-23.333 0 -42.333 7.66699 -57 23s-22 34.666 -22 57.999s8.33301 43.833 25 61.5s37 26.5 61 26.5c23.333 0 42.333 -7.66699 57 -23s22 -34.666 22 -57.999s-8.33301 -43.833 -25 -61.5s-37 -26.5 -61 -26.5zM646 567l-177 -289v-210l90 -31v-37h-359v37l89 31v185
l-181 312l-86 35v37h346v-32l-65 -30l130 -234l117 228l-53 36v32h228v-37z" />
    <glyph glyph-name="Zcaron" unicode="&#x17d;" horiz-adv-x="660" 
d="M347 823l128 99l30 -28l-121 -198h-81l-114 198l30 28zM620 243l-16 -243.001h-574l-4 30l388 545l-132 -3c-26 -0.666992 -48.167 -6.66699 -66.5 -18s-39.5 -32.666 -63.5 -63.999l-59 -77l-31 5l17 219h544l4 -30l-384 -547l164 3c24.667 0.666992 45.5 7 62.5 19
s34.5 31.667 52.5 59l70 106z" />
    <glyph glyph-name="zcaron" unicode="&#x17e;" horiz-adv-x="501" 
d="M257 637l128 99l30 -28l-121 -198h-81l-114 198l30 28zM487 426l-287 -368h147l91 128l38 -6l-12 -180h-442l-9 29l287 367h-139l-83 -128l-38 6l9 180h429z" />
    <glyph glyph-name="florin" unicode="&#x192;" horiz-adv-x="518" 
d="M540 559c0 -19.333 -6.66895 -36 -20.002 -50s-30.666 -21 -51.999 -21c-40 0 -75.667 24.667 -107 74c-21.333 -18.667 -40.333 -70.334 -57 -155.001l-12 -60h124l-16 -64h-120l-32 -155c-25.333 -125.333 -73.666 -214 -144.999 -266
c-42.667 -31.333 -88 -47 -136 -47c-30.667 0 -55.5 6.5 -74.5 19.5s-28.5 30.5 -28.5 52.5c0 18.667 6.33301 34.667 19 48s29.334 20 50.001 20c19.333 0 39.166 -6.66699 59.499 -20s36.5 -31.666 48.5 -54.999c17.333 18.667 35.333 74 54 166l48 237h-103l9 37l110 39
l3 11c28 102 78.333 175.333 151 220c42 26 84.333 39 127 39c31.333 0 55.833 -6.33301 73.5 -19s26.5 -29.667 26.5 -51z" />
    <glyph glyph-name="circumflex" unicode="&#x2c6;" horiz-adv-x="319" 
d="M159 611l-128 -99l-30 28l121 198h81l114 -198l-30 -28z" />
    <glyph glyph-name="caron" unicode="&#x2c7;" horiz-adv-x="319" 
d="M159 637l128 99l30 -28l-121 -198h-81l-114 198l30 28z" />
    <glyph glyph-name="breve" unicode="&#x2d8;" horiz-adv-x="336" 
d="M167 623c54 0 93.334 32.667 118.001 98l42 -13c-14.667 -131.333 -68 -197 -160 -197c-94 0 -146.333 65.667 -157 197l42 13c21.333 -65.333 59.666 -98 114.999 -98z" />
    <glyph glyph-name="dotaccent" unicode="&#x2d9;" horiz-adv-x="207" 
d="M190 614c0 -24 -8.66699 -45.166 -26 -63.499s-38.666 -27.5 -63.999 -27.5c-24 0 -43.667 8 -59 24s-23 36 -23 60s8.66699 45.167 26 63.5s38.666 27.5 63.999 27.5c24 0 43.667 -7.83301 59 -23.5s23 -35.834 23 -60.501z" />
    <glyph glyph-name="ring" unicode="&#x2da;" horiz-adv-x="259" 
d="M253 623c0 -31.333 -11.999 -57.667 -35.999 -79s-54.333 -32 -91 -32s-66.334 10.333 -89.001 31s-34 47 -34 79c0 30.667 12 56.5 36 77.5s54.667 31.5 92 31.5c36.667 0 66.167 -10 88.5 -30s33.5 -46 33.5 -78zM179.001 622.999c0 23.333 -4.83301 41.5 -14.5 54.5
s-22.167 19.5 -37.5 19.5c-14.667 0 -26.667 -6.66699 -36 -20s-14 -32 -14 -56c0 -23.333 5 -41.5 15 -54.5s22.333 -19.5 37 -19.5c15.333 0 27.5 6.66699 36.5 20s13.5 32 13.5 56z" />
    <glyph glyph-name="ogonek" unicode="&#x2db;" horiz-adv-x="269" 
d="M234 22c-82.667 -57.333 -124 -108.332 -124 -152.999c0 -41.333 21.333 -62 64 -62c22 0 43 4.33301 63 13l21 -33c-42 -34.667 -87 -52 -135 -52c-35.333 0 -64.5 9.16699 -87.5 27.5s-34.5 45.166 -34.5 80.499c0 39.333 17.833 75.5 53.5 108.5
s89.5 65.167 161.5 96.5z" />
    <glyph glyph-name="tilde" unicode="&#x2dc;" horiz-adv-x="351" 
d="M-1 524c5.33301 60 16 103 32 129s40.333 39 73 39c20.667 0 48.667 -8.33301 84 -25s59.666 -25 72.999 -25c10.667 0 19.334 4.16699 26.001 12.5s14 23.166 22 44.499l47 -6c-5.33301 -60 -16 -103 -32 -129s-40.333 -39 -73 -39c-20.667 0 -48.667 8.33301 -84 25
s-59.666 25 -72.999 25c-10.667 0 -19.334 -4.16699 -26.001 -12.5s-14 -23.166 -22 -44.499z" />
    <glyph glyph-name="hungarumlaut" unicode="&#x2dd;" horiz-adv-x="334" 
d="M340 640c-30.667 -41.333 -75.667 -84.3311 -135 -128.998l-24 16c18.667 82 38.667 141.667 60 179c11.333 19.333 25.5 32.333 42.5 39s33.5 5 49.5 -5c17.333 -10.667 26.5 -25.334 27.5 -44.001s-5.83301 -37.334 -20.5 -56.001zM156 640.002
c-32 -43.333 -76.332 -86.3311 -132.999 -128.998l-24 16c19.333 86 38.666 145.667 57.999 179c11.333 19.333 25.5 32.333 42.5 39s33.5 5 49.5 -5c17.333 -10.667 26.5 -25.334 27.5 -44.001s-5.83301 -37.334 -20.5 -56.001z" />
    <glyph glyph-name="Delta" unicode="&#x394;" horiz-adv-x="500" 
d="M25 -200v1000h450v-1000h-450z" />
    <glyph glyph-name="Omega" unicode="&#x3a9;" horiz-adv-x="689" 
d="M564 455h124.996v-74h-125v-323l75 -24v-34h-284v34l51 24v323h-154v-323l53 -24v-34h-271v34l60 24v323h-90v32l90 45v35c0 94 37 162.667 111 206c47.333 28 101 42 161 42c62.667 0 103.334 -19.333 122.001 -58c8.66699 6.66699 16.334 12 23.001 16
c44.667 28 95.667 42 153 42c38 0 68.167 -8.66699 90.5 -26s33.5 -38.333 33.5 -63c0 -20.667 -6.16699 -37.167 -18.5 -49.5s-28.5 -18.5 -48.5 -18.5c-47.333 0 -81.666 33 -102.999 99c-19.333 -12 -33.166 -30.333 -41.499 -55s-12.5 -61 -12.5 -109v-64zM251.996 455
h154v38c0 34.667 4.66699 66 14 94c-46.667 6.66699 -79 38.667 -97 96c-24.667 -10 -42.667 -27.833 -54 -53.5s-17 -62.5 -17 -110.5v-64z" />
    <glyph glyph-name="pi" unicode="&#x3c0;" horiz-adv-x="788" 
d="M745 320c0 -97.333 -34.1689 -180.168 -102.502 -248.501s-151.166 -102.5 -248.499 -102.5c-96.667 0 -179.334 34.333 -248.001 103s-103 151.334 -103 248.001s34.333 179.167 103 247.5s151.334 102.5 248.001 102.5s179.334 -34.167 248.001 -102.5
s103 -150.833 103 -247.5zM701.998 319.998c0 85.333 -30.167 158.667 -90.5 220s-132.833 92 -217.5 92s-157 -30.5 -217 -91.5s-90 -134.5 -90 -220.5s30 -159.667 90 -221s132.333 -92 217 -92s157.167 30.667 217.5 92s90.5 135 90.5 221zM579.998 390.999
c0 -38 -13.333 -66.833 -40 -86.5s-62.667 -29.5 -108 -29.5c-4.66699 0 -21 1 -49 3v-102l54 -14v-26h-207v26l47 14v287l-47 14v26h198c46.667 0 83.667 -9.66699 111 -29s41 -47 41 -83zM470.998 390.999c0 46 -23.667 70.667 -71 74l-17 1v-152h14
c49.333 0 74 25.667 74 77z" />
    <glyph glyph-name="endash" unicode="&#x2013;" horiz-adv-x="533" 
d="M495 213h-457v79h457v-79z" />
    <glyph glyph-name="emdash" unicode="&#x2014;" horiz-adv-x="783" 
d="M745 213h-707v79h707v-79z" />
    <glyph glyph-name="quoteleft" unicode="&#x2018;" horiz-adv-x="250" 
d="M211 398c0 -24 -8.33203 -45.5 -24.999 -64.5s-36.667 -28.5 -60 -28.5c-30 0 -53.667 9.66699 -71 29s-26 46.666 -26 81.999c0 46 15.5 90 46.5 132s75.5 79 133.5 111l24 -27c-67.333 -61.333 -105.666 -112.333 -114.999 -153l8 -8l6 1
c3.33301 0.666992 7.66602 1 12.999 1c19.333 0 35.166 -7.16699 47.499 -21.5s18.5 -32.166 18.5 -53.499z" />
    <glyph glyph-name="quoteright" unicode="&#x2019;" horiz-adv-x="250" 
d="M221 541c0 -46 -15.501 -90 -46.501 -132s-75.5 -79 -133.5 -111l-24 27c67.333 61.333 105.666 112.333 114.999 153l-8 8l-6 -1c-3.33301 -0.666992 -7.66602 -1 -12.999 -1c-19.333 0 -35.166 7.16699 -47.499 21.5s-18.5 32.166 -18.5 53.499
c0 24 8.33301 45.5 25 64.5s36.667 28.5 60 28.5c30 0 53.667 -9.66699 71 -29s26 -46.666 26 -81.999z" />
    <glyph glyph-name="quotesinglbase" unicode="&#x201a;" horiz-adv-x="250" 
d="M216 55c0 -46 -15.501 -90 -46.501 -132s-75.5 -79 -133.5 -111l-24 27c67.333 61.333 105.666 112.333 114.999 153l-8 8l-6 -1c-3.33301 -0.666992 -7.66602 -1 -12.999 -1c-19.333 0 -35.166 7.16699 -47.499 21.5s-18.5 32.166 -18.5 53.499
c0 24 8.33301 45.5 25 64.5s36.667 28.5 60 28.5c30 0 53.667 -9.66699 71 -29s26 -46.666 26 -81.999z" />
    <glyph glyph-name="quotedblleft" unicode="&#x201c;" horiz-adv-x="485" 
d="M446 398c0 -24 -8.33203 -45.5 -24.999 -64.5s-36.667 -28.5 -60 -28.5c-30 0 -53.667 9.66699 -71 29s-26 46.666 -26 81.999c0 46 15.5 90 46.5 132s75.5 79 133.5 111l24 -27c-67.333 -61.333 -105.666 -112.333 -114.999 -153l8 -8l6 1
c3.33301 0.666992 7.66602 1 12.999 1c19.333 0 35.166 -7.16699 47.499 -21.5s18.5 -32.166 18.5 -53.499zM211.001 398c0 -24 -8.33203 -45.5 -24.999 -64.5s-36.667 -28.5 -60 -28.5c-30 0 -53.667 9.66699 -71 29s-26 46.666 -26 81.999c0 46 15.5 90 46.5 132
s75.5 79 133.5 111l24 -27c-67.333 -61.333 -105.666 -112.333 -114.999 -153l8 -8l6 1c3.33301 0.666992 7.66602 1 12.999 1c19.333 0 35.166 -7.16699 47.499 -21.5s18.5 -32.166 18.5 -53.499z" />
    <glyph glyph-name="quotedblright" unicode="&#x201d;" horiz-adv-x="485" 
d="M456 541c0 -46 -15.501 -90 -46.501 -132s-75.5 -79 -133.5 -111l-24 27c67.333 61.333 105.666 112.333 114.999 153l-8 8l-6 -1c-3.33301 -0.666992 -7.66602 -1 -12.999 -1c-19.333 0 -35.166 7.16699 -47.499 21.5s-18.5 32.166 -18.5 53.499
c0 24 8.33301 45.5 25 64.5s36.667 28.5 60 28.5c30 0 53.667 -9.66699 71 -29s26 -46.666 26 -81.999zM220.999 541c0 -46 -15.501 -90 -46.501 -132s-75.5 -79 -133.5 -111l-24 27c67.333 61.333 105.666 112.333 114.999 153l-8 8l-6 -1
c-3.33301 -0.666992 -7.66602 -1 -12.999 -1c-19.333 0 -35.166 7.16699 -47.499 21.5s-18.5 32.166 -18.5 53.499c0 24 8.33301 45.5 25 64.5s36.667 28.5 60 28.5c30 0 53.667 -9.66699 71 -29s26 -46.666 26 -81.999z" />
    <glyph glyph-name="quotedblbase" unicode="&#x201e;" horiz-adv-x="480" 
d="M451 55c0 -46 -15.501 -90 -46.501 -132s-75.5 -79 -133.5 -111l-24 27c67.333 61.333 105.666 112.333 114.999 153l-8 8l-6 -1c-3.33301 -0.666992 -7.66602 -1 -12.999 -1c-19.333 0 -35.166 7.16699 -47.499 21.5s-18.5 32.166 -18.5 53.499
c0 24 8.33301 45.5 25 64.5s36.667 28.5 60 28.5c30 0 53.667 -9.66699 71 -29s26 -46.666 26 -81.999zM215.999 55c0 -46 -15.501 -90 -46.501 -132s-75.5 -79 -133.5 -111l-24 27c67.333 61.333 105.666 112.333 114.999 153l-8 8l-6 -1
c-3.33301 -0.666992 -7.66602 -1 -12.999 -1c-19.333 0 -35.166 7.16699 -47.499 21.5s-18.5 32.166 -18.5 53.499c0 24 8.33301 45.5 25 64.5s36.667 28.5 60 28.5c30 0 53.667 -9.66699 71 -29s26 -46.666 26 -81.999z" />
    <glyph glyph-name="dagger" unicode="&#x2020;" horiz-adv-x="474" 
d="M444 387l-179 5l5 -475h-66l5 475l-179 -5v61l179 -5l-5 227h66l-5 -227l179 5v-61z" />
    <glyph glyph-name="daggerdbl" unicode="&#x2021;" horiz-adv-x="474" 
d="M444 134l-179 5l5 -222h-66l5 222l-179 -5v59l179 -5v211l-179 -5v59l179 -5l-5 222h66l-5 -222l179 5v-59l-179 5v-211l179 5v-59z" />
    <glyph glyph-name="bullet" unicode="&#x2022;" horiz-adv-x="500" 
d="M425 319c0 -48.667 -17.167 -90.334 -51.5 -125.001s-75.833 -52 -124.5 -52s-90.334 17.333 -125.001 52s-52 76.334 -52 125.001s17.333 90.167 52 124.5s76.334 51.5 125.001 51.5s90.167 -17.167 124.5 -51.5s51.5 -75.833 51.5 -124.5z" />
    <glyph glyph-name="ellipsis" unicode="&#x2026;" horiz-adv-x="744" 
d="M710 72c0 -24 -8.66699 -44.667 -26 -62s-38 -26 -62 -26s-44.667 8.66699 -62 26s-26 38 -26 62s8.66699 44.667 26 62s38 26 62 26s44.667 -8.66699 62 -26s26 -38 26 -62zM460 72c0 -24 -8.66699 -44.667 -26 -62s-38 -26 -62 -26s-44.667 8.66699 -62 26
s-26 38 -26 62s8.66699 44.667 26 62s38 26 62 26s44.667 -8.66699 62 -26s26 -38 26 -62zM210 72c0 -24 -8.66699 -44.667 -26 -62s-38 -26 -62 -26s-44.667 8.66699 -62 26s-26 38 -26 62s8.66699 44.667 26 62s38 26 62 26s44.667 -8.66699 62 -26s26 -38 26 -62z" />
    <glyph glyph-name="perthousand" unicode="&#x2030;" horiz-adv-x="788" 
d="M745 320c0 -97.333 -34.1689 -180.168 -102.502 -248.501s-151.166 -102.5 -248.499 -102.5c-96.667 0 -179.334 34.333 -248.001 103s-103 151.334 -103 248.001s34.333 179.167 103 247.5s151.334 102.5 248.001 102.5s179.334 -34.167 248.001 -102.5
s103 -150.833 103 -247.5zM701.998 319.998c0 85.333 -30.167 158.667 -90.5 220s-132.833 92 -217.5 92s-157 -30.5 -217 -91.5s-90 -134.5 -90 -220.5s30 -159.667 90 -221s132.333 -92 217 -92s157.167 30.667 217.5 92s90.5 135 90.5 221zM562.998 416.999
c0 -52 -36.668 -83.0029 -110.001 -93.0029v-13c26.667 -3.33301 46.667 -10 60 -20s23 -25 29 -45c7.33301 -24.667 17.666 -44 30.999 -58c10 -11.333 20.667 -17.666 32 -18.999v-26h-79c-21.333 0 -37.166 4.33301 -47.499 13s-20.166 25.334 -29.499 50.001l-18 48
c-10 27.333 -31 41 -63 41h-8v-112l47 -14v-26h-200v26l47 14v287l-47 14v26h218c44 0 78 -8.16699 102 -24.5s36 -39.166 36 -68.499zM456.997 401.996c0 44 -24.333 67 -73 69l-24 1v-140l26 2c47.333 3.33301 71 26 71 68z" />
    <glyph glyph-name="guilsinglleft" unicode="&#x2039;" horiz-adv-x="326" 
d="M177 224l93 -179l-33 -25l-207 189v30l207 189l33 -26z" />
    <glyph glyph-name="guilsinglright" unicode="&#x203a;" horiz-adv-x="326" 
d="M296 239v-30l-207 -189l-33 26l93 178l-93 179l33 25z" />
    <glyph glyph-name="fraction" unicode="&#x2044;" horiz-adv-x="536" 
d="M529 608l-231 -317l-229 -326l-65 37l233 318l227 325z" />
    <glyph glyph-name="trademark" unicode="&#x2122;" horiz-adv-x="900" 
d="M818 593v-199l44 -14v-30h-169v30l36 14v208h-9l-87 -252h-69l-78 252h-10v-205l34 -17v-30h-119v30l38 17v194l-38 15v31h175l12 -50l42 -150h6l48 152l13 48h175v-31zM361 529l-26 -3l-33 47c-9.33301 13.333 -16.833 22 -22.5 26s-13.5 6 -23.5 6h-11v-211l46 -14v-30
h-180v30l46 14v211h-14c-10 0 -17.667 -2 -23 -6s-13 -12.667 -23 -26l-33 -47l-26 3l13 108h297z" />
    <glyph glyph-name="partialdiff" unicode="&#x2202;" horiz-adv-x="500" 
d="M25 -200v1000h450v-1000h-450z" />
    <glyph glyph-name="product" unicode="&#x220f;" horiz-adv-x="500" 
d="M25 -200v1000h450v-1000h-450z" />
    <glyph glyph-name="summation" unicode="&#x2211;" horiz-adv-x="500" 
d="M25 -200v1000h450v-1000h-450z" />
    <glyph glyph-name="minus" unicode="&#x2212;" horiz-adv-x="520" 
d="M463 272h-405v70h405v-70z" />
    <glyph glyph-name="radical" unicode="&#x221a;" horiz-adv-x="942" 
d="M871 58l59.998 -24v-34h-267v34l49 24v323h-149v-323l50 -24v-34h-259v34l51 24v323h-154v-323l53 -24v-34h-271v34l60 24v323h-90v32l90 45v35c0 94 37 162.667 111 206c47.333 28 101 42 161 42c34.667 0 63.167 -6.66699 85.5 -20s36.5 -30.333 42.5 -51
c0.666992 0.666992 1.83398 1.66699 3.50098 3s2.83398 2.33301 3.50098 3c54 43.333 119.667 65 197 65c32 0 60 -5.66699 84 -17l65 17l24 -13v-670zM563.998 455l149 0.000976562v121c-22.667 20.667 -35.667 57.667 -39 111c-73.333 -12.667 -110 -75.334 -110 -188.001
v-44zM251.998 455.001l154 0.000976562v8c0 47.333 8 88.333 24 123c-51.333 3.33301 -87 35.666 -107 96.999c-24.667 -10 -42.667 -27.833 -54 -53.5s-17 -62.5 -17 -110.5v-64z" />
    <glyph glyph-name="infinity" unicode="&#x221e;" horiz-adv-x="500" 
d="M25 -200v1000h450v-1000h-450z" />
    <glyph glyph-name="integral" unicode="&#x222b;" horiz-adv-x="500" 
d="M25 -200v1000h450v-1000h-450z" />
    <glyph glyph-name="approxequal" unicode="&#x2248;" horiz-adv-x="942" 
d="M564 455h204.998l78 17l24 -13v-401l60 -24v-34h-267v34l49 24v323h-149v-323l50 -24v-34h-259v34l51 24v323h-154v-323l53 -24v-34h-271v34l60 24v323h-90v32l90 45v35c0 94 37 162.667 111 206c47.333 28 101 42 161 42c34.667 0 63.167 -6.66699 85.5 -20
s36.5 -30.333 42.5 -51c0.666992 0.666992 1.83398 1.66699 3.50098 3s2.83398 2.33301 3.50098 3c54 43.333 119.667 65 197 65c45.333 0 81.833 -10.667 109.5 -32s41.5 -46.666 41.5 -75.999c0 -24 -7.33301 -43 -22 -57s-33 -21 -55 -21c-60 0 -92.667 44 -98 132
c-73.333 -12.667 -110 -75.334 -110 -188.001v-44zM251.998 455l154 0.000976562v8c0 47.333 8 88.333 24 123c-51.333 3.33301 -87 35.666 -107 96.999c-24.667 -10 -42.667 -27.833 -54 -53.5s-17 -62.5 -17 -110.5v-64z" />
    <glyph glyph-name="notequal" unicode="&#x2260;" horiz-adv-x="500" 
d="M25 -200v1000h450v-1000h-450z" />
    <glyph glyph-name="lessequal" unicode="&#x2264;" horiz-adv-x="500" 
d="M25 -200v1000h450v-1000h-450z" />
    <glyph glyph-name="greaterequal" unicode="&#x2265;" horiz-adv-x="500" 
d="M25 -200v1000h450v-1000h-450z" />
    <glyph glyph-name="lozenge" unicode="&#x25ca;" horiz-adv-x="856" 
d="M774 593v-199l44 -14v-30h-169v30l36 14v208h-9l-87 -252h-69l-78 252h-10v-205l34 -17v-30h-119v30l38 17v194l-38 15v31h175l12 -50l42 -150h6l48 152l13 48h175v-31zM306 438c0 -30 -11.666 -53.833 -34.999 -71.5s-51.333 -26.5 -84 -26.5
c-30.667 0 -63 6.33301 -97 19l-11 -20h-26l-3 109l31 1c30 -52 64 -78 102 -78c14.667 0 26.334 3.16699 35.001 9.5s13 15.166 13 26.499c0 12.667 -5.33301 22 -16 28s-30.334 13.333 -59.001 22c-30.667 8.66699 -54.834 19.667 -72.501 33s-26.5 33 -26.5 59
c0 29.333 11.167 52.666 33.5 69.999s48.5 26 78.5 26c29.333 0 56.333 -5.33301 81 -16l11 19h25l6 -97l-31 -3c-27.333 44.667 -57 67 -89 67c-12.667 0 -22.5 -3.16699 -29.5 -9.5s-10.5 -14.166 -10.5 -23.499c0 -12.667 5.16699 -22.167 15.5 -28.5
s30.166 -14.166 59.499 -23.499c32.667 -10 57.334 -21.5 74.001 -34.5s25 -32.167 25 -57.5z" />
    <glyph glyph-name="apple" unicode="&#xf8ff;" horiz-adv-x="694" 
d="M644 -200h-208l-8 14h-163l-8 -14h-207v303c9.33301 0 17 3.16699 23 9.5s9 13.833 9 22.5s-3.16699 16.167 -9.5 22.5s-13.833 9.5 -22.5 9.5v554h100l30 79h334l29 -79h101v-921zM400 563v-172h15v78h38v14h-38v66h43v14h-58zM184 563v-172h15v79h47v-79h15v172h-15
v-79h-47v79h-15zM460 394c5.33301 -2.66699 12.334 -4 21.001 -4c20.667 0 31 12 31 36v137h-16v-137c0 -14.667 -5.33301 -22 -16 -22c-6.66699 0 -13.334 2 -20.001 6v-16zM349.001 438l-15.999 30.999c15.333 14 23 28 23 42c0 8 -2.33301 15.167 -7 21.5
s-11.334 9.5 -20.001 9.5c-8 0 -14.667 -3.16699 -20 -9.5s-8 -13.5 -8 -21.5c0 -8.66699 4.66699 -21.667 14 -39c-15.333 -12 -23 -27 -23 -45c0 -11.333 3 -20.666 9 -27.999s13.333 -11 22 -11c11.333 0 20.333 8 27 24h1l12 -24l11 8l-16 30
c6.66699 15.333 11 28.333 13 39l-13 3c-1.33301 -6 -4.33301 -16 -9 -30zM523.002 322.999v-46h8v13l7 7l16 -20h9l-19 26l18 20h-10l-21 -24v24h-8zM488.002 291.999l10 -15h9l-12 17c6.66699 2 10 7 10 15c0 3.33301 -1.5 6.5 -4.5 9.5s-6.83301 4.5 -11.5 4.5h-21v-46h8
v15h12zM426.002 275.999c7.33301 0 13.168 2.33301 17.501 7s6.5 10.334 6.5 17.001c0 6 -2.33301 11.5 -7 16.5s-10.334 7.5 -17.001 7.5s-12.167 -2.5 -16.5 -7.5s-6.5 -10.5 -6.5 -16.5c0 -6.66699 2.16699 -12.334 6.5 -17.001s9.83301 -7 16.5 -7zM370.004 300.999
l-13 22h-9l18 -29v-17h8v17l18 29h-9zM193.004 322.999v-46h33v7h-25v13h22v7h-22v12h25v7h-33zM132.004 322.999v-46h8v32l25 -32h7v46h-8v-32l-25 32h-7zM241.004 322.999l15 -47h8l10 34h1l11 -34h8l14 47h-8l-10 -35h-1l-10 35h-8l-11 -35h-1l-10 35h-8z
M327.004 478.999c-8 14.667 -12 25.333 -12 32c0 12.667 4.66699 19 14 19c8.66699 0 13 -6.33301 13 -19c0 -10 -5 -20.667 -15 -32zM342.004 422.998c-4 -14 -10 -21 -18 -21c-11.333 0 -17 9 -17 27c0 12 5 23 15 33zM488.004 298.998h-12v17h11
c6.66699 0 10 -2.66699 10 -8c0 -6 -3 -9 -9 -9zM426.004 282.998c-10 0 -15 5.66699 -15 17c0 4 1.5 7.83301 4.5 11.5s6.5 5.5 10.5 5.5c4.66699 0 8.5 -1.83301 11.5 -5.5s4.5 -7.5 4.5 -11.5c0 -4.66699 -1.5 -8.66699 -4.5 -12s-6.83301 -5 -11.5 -5z" />
    <glyph glyph-name="fi" unicode="&#xfb01;" horiz-adv-x="630" 
d="M252 381v-323l50 -24v-34h-268v34l60 24v323h-90v32l90 45v5c0 90.667 31.667 161.667 95 213c54 43.333 119.667 65 197 65c45.333 0 81.833 -10.667 109.5 -32s41.5 -46.666 41.5 -75.999c0 -24 -7.33301 -43 -22 -57s-33 -21 -55 -21c-60 0 -92.667 44 -98 132
c-73.333 -12.667 -110 -75.334 -110 -188.001v-44h205l78 17l24 -13v-401l60 -24v-34h-267v34l49 24v323h-149z" />
    <glyph glyph-name="fl" unicode="&#xfb02;" horiz-adv-x="630" 
d="M559 58l60 -24v-34h-267v34l49 24v323h-149v-323l50 -24v-34h-268v34l60 24v323h-90v32l90 45v5c0 90.667 31.667 161.667 95 213c54 43.333 119.667 65 197 65c32 0 60 -5.66699 84 -17l65 17l24 -13v-670zM401 455v121.001c-22.667 20.667 -35.667 57.667 -39 111
c-73.333 -12.667 -110 -75.334 -110 -188.001v-44h149z" />
    <glyph glyph-name=".null" horiz-adv-x="0" 
 />
    <glyph glyph-name="nonmarkingreturn" horiz-adv-x="333" 
 />
    <glyph glyph-name="NUL" horiz-adv-x="0" 
 />
    </font>
</defs>
</svg>
